<svg xmlns="http://www.w3.org/2000/svg" id="Layer_2" viewBox="0 0 156.25 83.03"><defs><style>.cls-1{fill:#00aeb1;}.cls-2{fill:#a5e1e2;}</style></defs><g id="Layer_1-2"><g><g><path class="cls-1" d="m35.9,6.15l-4.5,3.11c-.2.14-.32.37-.32.61v45.13c-.01.41.32.74.73.74h4.5c.41,0,.74-.33.74-.74V6.77c.01-.6-.66-.95-1.15-.61Z"></path><path class="cls-1" d="m90.71,27.35l-3.98,2.1c-.41.22-.67.65-.67,1.12v22.67c0,3.48-.83,6.21-2.48,8.18-1.65,1.97-3.94,2.95-6.87,2.95-1.92,0-3.83-.43-5.75-1.29-.59-.27-1.26.18-1.26.83v3.14c0,.34.19.65.49.8,2.46,1.21,4.97,1.81,7.55,1.81,4.26,0,7.67-1.49,10.24-4.46,2.7-3.12,4.06-7.24,4.06-12.37v-24.69c0-.68-.72-1.12-1.32-.8Z"></path><path class="cls-1" d="m25.64,49.92h-9.07c-3.14,0-4.74-2.19-4.74-6.57,0-4.08,2.19-5.83,4.74-5.83,1.59,0,3.66,1.02,5.77,3.12.36.35.94.34,1.27-.04l2.79-3.15c.3-.34.29-.85-.02-1.18-3.12-3.35-6.43-4.66-9.67-4.66-5.4,0-10.87,3.28-10.87,11.74,0,2.21.24,4.35.96,6.1.09.22-.08.46-.31.46H1.9c-.5,0-.92.35-1.01.84-.22,1.28-.53,2.54-.86,3.81-.16.6.3,1.18.92,1.18h22.4c.44,0,.85-.25,1.04-.66l1.92-4.14c.22-.48-.13-1.03-.66-1.03Z"></path><path class="cls-2" d="m79.78,76.53l1.25-2.66c.05-.1.14-.17.25-.19l10.6-1.93c.27-.05.48.23.37.48l-1.25,2.66c-.05.1-.14.17-.25.19l-10.6,1.93c-.27.05-.48-.23-.37-.48Z"></path><path class="cls-1" d="m67.47,28.09c0-.47-.38-.85-.85-.85h-12.23c-10.13,0-12.91,4.43-12.92,14.21,0,9.78,2.78,14.22,12.91,14.22h5.92c.47,0,.85.38.85.85h.04c-.37,1.96-1.1,3.59-2.19,4.89-1.65,1.97-3.94,2.95-6.87,2.95-1.92,0-3.83-.43-5.75-1.29-.59-.27-1.26.18-1.26.83v3.14c0,.34.19.65.49.8,2.46,1.21,4.97,1.81,7.55,1.81,4.26,0,7.67-1.49,10.24-4.46,1.98-2.28,3.23-5.09,3.76-8.44h0s0,0,0,0c.2-1.23.3-2.54.3-3.92v-24.56s0,0,0,0v-.17Zm-6.86,22.01h-6.07c-5.64,0-6.76-.97-6.76-8.65s1.13-8.64,6.77-8.64h6.07c.48,0,.87.38.87.85v15.58c0,.47-.4.85-.88.85Z"></path></g><g><path class="cls-2" d="m111.72,13.14c-.11-.36-.17-.74-.17-1.12,0-2.1,1.7-3.79,3.79-3.8h24.81c1.06,0,2.11.12,3.15.33-2-3.62-5.34-6.5-9.59-7.81-1.58-.49-3.22-.74-4.88-.74h-23.71c-2.32,0-4.2,1.87-4.2,4.19,0,.42.06.84.19,1.24l20.21,65.43c1.22,3.95,6.8,3.95,8.02,0l.11-.35-17.72-57.38Z"></path><path class="cls-1" d="m144.86,8.95c-.51-.16-1.03-.28-1.56-.39,0,0,0,0,0-.01-1.04-.21-2.09-.32-3.15-.32h-24.81c-2.1,0-3.79,1.69-3.79,3.79,0,.38.06.76.17,1.12l17.7,57.31-.02.07,3.04,9.83c1.1,3.56,6.15,3.57,7.25,0l15.84-51.22c2.63-8.52-2.14-17.56-10.66-20.19Z"></path></g></g></g></svg>