<svg id="Layer_1" data-name="Layer 1" xmlns="http://www.w3.org/2000/svg" viewBox="0 0 251.63 76.48"><defs><style>.cls-1{fill:#7a8590;}.cls-2{fill:#4e5462;}.cls-3{fill:#fefefe;}.cls-4{fill:#f23f6f;}.cls-5{fill:#2d90e9;}.cls-6{fill:#fdb453;}</style></defs><path shape-rendering="optimizeQuality" class="cls-1" d="M557.32,431.92v-76.3a1.92,1.92,0,0,1,1.21-.16q21.65,0,43.3,0a2.14,2.14,0,0,1,1.84.81q9,10.44,18.08,20.82a2,2,0,0,1,.58,1.38q0,26.51,0,53c0,.12,0,.24,0,.45Zm4.36-72.15v67.82H618V381.68c0-.48,0-1,0-1.44a2.39,2.39,0,0,0-2.43-2.47H602.64V362.82a2.9,2.9,0,0,0-3-3.05h-38Z" transform="translate(-557.32 -355.44)"/><path shape-rendering="optimizeQuality" class="cls-2" d="M675.06,414.21c-2.84,0-5.47,0-8.1,0-.63,0-.65-.45-.78-.86-.73-2.32-1.49-4.63-2.17-7a1.6,1.6,0,0,0-1.81-1.31q-6.23.06-12.47,0a1.54,1.54,0,0,0-1.71,1.28c-.68,2.3-1.45,4.56-2.1,6.87-.21.74-.5,1-1.3,1-2.46-.05-4.92,0-7.56,0l2.64-7.46q5.59-15.66,11.17-31.33c.26-.74.56-1.06,1.41-1,2.92.06,5.84,0,8.9,0C665.78,387.62,670.4,400.85,675.06,414.21Zm-19.16-15h4c1.67,0,1.86-.3,1.39-1.94-1.41-5-3.3-9.75-4.41-14.78-.1-.44-.34-.76-.79-.78a.91.91,0,0,0-.87.71c-.22.72-.36,1.47-.59,2.19q-2,6.39-4,12.79c-.45,1.42-.16,1.8,1.35,1.81Z" transform="translate(-557.32 -355.44)"/><path shape-rendering="optimizeQuality" class="cls-2" d="M714,412.51v13h-7.2c-.3-.42-.17-.91-.17-1.38,0-8.39-.06-16.79,0-25.19,0-3.6-.27-7-2.87-10l6.12-4a15.89,15.89,0,0,1,2.89,4.34,1.11,1.11,0,0,0,.27-.19c2.87-3.79,6.8-4.54,11.16-3.78a9.78,9.78,0,0,1,8,7.14,22.93,22.93,0,0,1-.15,15,11.38,11.38,0,0,1-17.54,5.39A3.12,3.12,0,0,0,714,412.51Zm0-12.29a15.79,15.79,0,0,0,.21,3.41,5.7,5.7,0,0,0,5.3,5c3,.17,4.91-1.15,5.65-4.06a18.09,18.09,0,0,0-.06-9.24c-.69-2.53-2.22-3.81-4.5-4a5.69,5.69,0,0,0-5.67,3.23A11.68,11.68,0,0,0,714,400.22Z" transform="translate(-557.32 -355.44)"/><path shape-rendering="optimizeQuality" class="cls-2" d="M762.53,414.25c-2.18,0-4.33,0-6.49,0-.94,0-.72-.66-.72-1.18,0-5.07,0-10.15,0-15.23a13.72,13.72,0,0,0-.19-2.86,3.58,3.58,0,0,0-3-3,10,10,0,0,0-6.49,1.06c-.66.33-.49.85-.49,1.33q0,9.18,0,18.35a2.72,2.72,0,0,1-.19,1.47h-7.09v-40c2.25,0,4.51,0,6.77,0,.73,0,.5.7.5,1.13,0,3.44,0,6.88,0,10.32v1.49a15.13,15.13,0,0,1,6.67-2.12,13,13,0,0,1,5.43.68c3.64,1.39,5.34,4.29,5.43,8,.15,6.71.06,13.43.07,20.15C762.69,414,762.63,414,762.53,414.25Z" transform="translate(-557.32 -355.44)"/><path shape-rendering="optimizeQuality" class="cls-2" d="M801.82,388v-2.42H809v28.39h-7.11v-2.27a.48.48,0,0,0-.62.14c-4.74,4.31-12.15,3.8-16.82-1.11-5.75-6.05-5.52-17,.6-22.69a12,12,0,0,1,15.89-.55C801.13,387.63,801.31,387.93,801.82,388Zm.26,11.69c0-.28,0-.64-.05-1a7.38,7.38,0,0,0-5.36-6.77,7,7,0,0,0-7.63,2.69,9.41,9.41,0,0,0,0,10.17,7,7,0,0,0,10.47,1.32A8.3,8.3,0,0,0,802.08,399.64Z" transform="translate(-557.32 -355.44)"/><path shape-rendering="optimizeQuality" class="cls-2" d="M677.32,374.28h7.1a2.42,2.42,0,0,1,.18,1.44q0,14.34,0,28.68v.6c0,3.06.61,3.6,3.6,3.29.31,0,.63,0,1,0v5.91a14.77,14.77,0,0,1-6.74.18c-3.17-.72-4.63-2.53-5.12-6.25a9.73,9.73,0,0,1-.07-1.32q0-15.84,0-31.68C677.28,374.9,677.3,374.66,677.32,374.28Z" transform="translate(-557.32 -355.44)"/><path shape-rendering="optimizeQuality" class="cls-2" d="M692.66,414.25V391.84h-3.59v-6.12h10.78c.31.37.18.79.18,1.17,0,8.68,0,17.36,0,26,0,1.05-.24,1.4-1.33,1.35C696.75,414.19,694.76,414.25,692.66,414.25Z" transform="translate(-557.32 -355.44)"/><path class="cls-2" d="M776.35,414.22h-7V385.56a10.15,10.15,0,0,0,7,0Z" transform="translate(-557.32 -355.44)"/><path shape-rendering="optimizeQuality" class="cls-2" d="M695.9,373.66c2.75,0,4.18,1.54,4.14,4.31s-1.57,4-4.48,3.92c-2.42-.05-3.86-1.58-3.84-4.09C691.74,375.12,693.26,373.62,695.9,373.66Z" transform="translate(-557.32 -355.44)"/><path shape-rendering="optimizeQuality" class="cls-2" d="M776.92,377.9c0,2.65-1.46,4-4.27,4-2.62,0-4-1.45-4-4.15s1.44-4.1,4.06-4.08C775.53,373.69,776.93,375.11,776.92,377.9Z" transform="translate(-557.32 -355.44)"/><path shape-rendering="optimizeQuality" class="cls-3" d="M561.68,359.77h38a2.9,2.9,0,0,1,3,3.05v14.95h12.92a2.39,2.39,0,0,1,2.43,2.47c0,.48,0,1,0,1.44v45.91H561.68Zm22,38.5H565.53v11.18c2,0,3.85,0,5.73,0a1.29,1.29,0,0,0,1.43-.86c.9-1.81,2.2-2.36,3.65-1.74a4.37,4.37,0,0,1,1.54,1.48,2.89,2.89,0,0,0,2.47,1.13c4.76-.07,9.52-.19,14.27,0a6.66,6.66,0,0,0,5.79-2.62c.34-.4.67-.8,1-1.22q1.58-2.16,3.45-1.1a2.75,2.75,0,0,1,1.3,3.94c-.13.28-.41.51-.29.86h8.21V398.25H592.38c-.1,2.37-.25,4.66-.52,6.95s-2.45,3.46-4.17,2c-2.2-1.9-4.9-3.71-4.06-7.38A7.73,7.73,0,0,0,583.64,398.27Zm-18.16,25.5h48.58v-11.2c-3.13,0-6.17,0-9.2,0a2.66,2.66,0,0,0-2.26,1,19.15,19.15,0,0,1-14.85,6.34,16,16,0,0,1-13.38-6.54c-.25-.33-.42-.77-1-.76h-7.91Zm27.13-28.57h21.48V384.08H592.74C592.81,387.8,592.43,391.45,592.61,395.2ZM565.53,384v11.2H584l.69-11.2Zm24.24,21.7a1.46,1.46,0,0,0,.12-.33,242.93,242.93,0,0,0,.73-30.76c-.11-2.5-1.49-4.32-3.07-6.06a.65.65,0,0,0-.83-.25c-.44.2-.42.51-.37.89.08.55.16,1.11.19,1.67a197.25,197.25,0,0,1-.84,27.28c-.37,4.13-.37,4.29,2.71,7.11l.35.33A.86.86,0,0,0,589.77,405.74Zm-15.5,3.89c2,3.76,4.91,6.6,9.14,7.72a18.06,18.06,0,0,0,20.78-9.23c.57-1,.4-1.58-.7-2A18.21,18.21,0,0,1,589.84,414c-5.73.6-10.75-.88-14.45-5.55A3.32,3.32,0,0,0,574.27,409.63Z" transform="translate(-557.32 -355.44)"/><path shape-rendering="optimizeQuality" class="cls-4" d="M583.64,398.27a7.73,7.73,0,0,1,0,1.53c-.84,3.67,1.86,5.48,4.06,7.38,1.72,1.48,3.9.28,4.17-2s.42-4.58.52-6.95h21.68v11.12h-8.21c-.12-.35.16-.58.29-.86a2.75,2.75,0,0,0-1.3-3.94q-1.87-1.06-3.45,1.1c-.31.42-.64.82-1,1.22a6.66,6.66,0,0,1-5.79,2.62c-4.75-.22-9.51-.1-14.27,0a2.89,2.89,0,0,1-2.47-1.13,4.37,4.37,0,0,0-1.54-1.48c-1.45-.62-2.75-.07-3.65,1.74a1.29,1.29,0,0,1-1.43.86c-1.88-.06-3.76,0-5.73,0V398.27Z" transform="translate(-557.32 -355.44)"/><path shape-rendering="optimizeQuality" class="cls-5" d="M565.48,423.77v-11.2h7.91c.56,0,.73.43,1,.76a16,16,0,0,0,13.38,6.54,19.15,19.15,0,0,0,14.85-6.34,2.66,2.66,0,0,1,2.26-1c3,.06,6.07,0,9.2,0v11.2Z" transform="translate(-557.32 -355.44)"/><path shape-rendering="optimizeQuality" class="cls-6" d="M592.61,395.2c-.18-3.75.2-7.4.13-11.12h21.35V395.2Z" transform="translate(-557.32 -355.44)"/><path shape-rendering="optimizeQuality" class="cls-6" d="M565.53,384h19.14l-.69,11.2H565.53Z" transform="translate(-557.32 -355.44)"/><path shape-rendering="optimizeQuality" class="cls-2" d="M589.77,405.74a.86.86,0,0,1-1-.12l-.35-.33c-3.08-2.82-3.08-3-2.71-7.11a197.25,197.25,0,0,0,.84-27.28c0-.56-.11-1.12-.19-1.67-.05-.38-.07-.69.37-.89a.65.65,0,0,1,.83.25c1.58,1.74,3,3.56,3.07,6.06a242.93,242.93,0,0,1-.73,30.76A1.46,1.46,0,0,1,589.77,405.74Z" transform="translate(-557.32 -355.44)"/><path shape-rendering="optimizeQuality" class="cls-2" d="M574.27,409.63a3.32,3.32,0,0,1,1.12-1.19c3.7,4.67,8.72,6.15,14.45,5.55a18.21,18.21,0,0,0,13.65-7.91c1.1.46,1.27,1,.7,2a18.06,18.06,0,0,1-20.78,9.23C579.18,416.23,576.31,413.39,574.27,409.63Z" transform="translate(-557.32 -355.44)"/></svg>