<svg xmlns="http://www.w3.org/2000/svg" width="148.045" height="93.228" viewBox="0 0 148.045 93.228">
  <g id="Group_825" data-name="Group 825" transform="translate(-207.275 -237.241)">
    <g id="Group_670" data-name="Group 670" transform="translate(207.717 258.854)">
      <path id="Path_3153" data-name="Path 3153" d="M576.452,405.137a3.913,3.913,0,1,0,3.914,3.913A3.913,3.913,0,0,0,576.452,405.137Z" transform="translate(-437.375 -364.417)" fill="#ff9a02"/>
      <path id="Path_3154" data-name="Path 3154" d="M482.244,375.605a3.913,3.913,0,1,0,3.914,3.914A3.913,3.913,0,0,0,482.244,375.605Z" transform="translate(-378.142 -345.849)" fill="#ff9a02"/>
      <path id="Path_3155" data-name="Path 3155" d="M470.926,324.842v5.74H458.66v-9.133l-5.743,3.393a5.866,5.866,0,0,0-1.3,3.132v7.307s1.044,2.872,3.393,2.872H474.58a3.412,3.412,0,0,0,3.394-3.655V319.361l-5.742,2.348A4.127,4.127,0,0,0,470.926,324.842Z" transform="translate(-361.342 -310.486)" fill="#ff9a02"/>
      <path id="Path_3156" data-name="Path 3156" d="M554.745,318.685s-1.565.523-1.435,2.871c.073,1.3,0,4.7,0,4.7h-12.4V303.026a4.127,4.127,0,0,0-1.3-3.133l-5.742-4.437v34.712a3.412,3.412,0,0,0,3.393,3.655h19.575c2.349,0,3.393-2.873,3.393-2.873V315.816Z" transform="translate(-413.059 -295.456)" fill="#ff9a02"/>
      <path id="Path_3157" data-name="Path 3157" d="M402.077,477.271a2.058,2.058,0,1,0,2.058,2.059A2.058,2.058,0,0,0,402.077,477.271Z" transform="translate(-328.904 -409.771)" fill="#ff9a02"/>
      <path id="Path_3158" data-name="Path 3158" d="M375.676,341.271a10.469,10.469,0,0,0-2.608-.868v-.242a7.852,7.852,0,0,0,1.733-.887,10.947,10.947,0,0,0,2.223-1.956,3.9,3.9,0,0,0,1.14-2.6,5.826,5.826,0,0,0-1.123-3.792,9.154,9.154,0,0,0-3.973-2.424,17.1,17.1,0,0,0-1.751-.523c-.653-.161-1.244-.284-1.772-.364s-1.19-.187-1.977-.321a22.686,22.686,0,0,0-2.607-.124l-5.5-.115h-3.507l.122,9.106.041,8.621-.163,11.162H361.7a40.653,40.653,0,0,0,6.073-.565,29.572,29.572,0,0,0,3.057-.725,13.494,13.494,0,0,0,2.141-.807q.8-.405,1.65-.887,1.142-.65,1.551-.93a8.263,8.263,0,0,0,2.241-2.141,6.833,6.833,0,0,0,.793-1.47,4.369,4.369,0,0,0,.266-1.555,5.287,5.287,0,0,0-1.182-3.511A7.62,7.62,0,0,0,375.676,341.271Zm-11.05-9.7q4.626,0,4.629,3.146a4.156,4.156,0,0,1-.813,2.5,6.563,6.563,0,0,1-1.99,1.532,4.723,4.723,0,0,1-1.827.486Zm5.035,16.918a5.335,5.335,0,0,1-1.868,1.654,6.664,6.664,0,0,1-3.167.8v-7.887a7.374,7.374,0,0,1,3.468.682,3.945,3.945,0,0,1,1.688,1.448,2.98,2.98,0,0,1,.527,1.649A2.612,2.612,0,0,1,369.661,348.494Z" transform="translate(-301.197 -315.321)" fill="#ff9a02"/>
      <path id="Path_3159" data-name="Path 3159" d="M299.45,374.047l-3.913-5.974-4.931-7.469-2.525-3.837-1.632-2.463h-.407l-1.508,2.374-1.261,2.055-1.143,1.854-1.018,1.73-1.468,2.376-1.67,2.819-1.388,2.3-1.425,2.376-.976,1.568-1.02,1.694-3.585,5.92,7.783,4.308.65-1.417.736-1.576.651-1.336.611-1.254,12.346-.725,3.629,6.307,8.069-4.724-2.57-3.835Zm-16.832.057,1.144-2.418.894-1.816.735-1.492.734-1.454,3.423,6.779Z" transform="translate(-246.891 -332.456)" fill="#ff9a02"/>
      <path id="Path_3160" data-name="Path 3160" d="M231.982,370.12a5.285,5.285,0,0,0-1.183-3.511,7.6,7.6,0,0,0-2.61-2.078,10.361,10.361,0,0,0-2.6-.866v-.243a8.032,8.032,0,0,0,1.729-.889,10.905,10.905,0,0,0,2.22-1.957,3.893,3.893,0,0,0,1.143-2.6,5.82,5.82,0,0,0-1.122-3.792,9.193,9.193,0,0,0-3.975-2.423,16.88,16.88,0,0,0-1.75-.522c-.655-.164-1.244-.284-1.773-.365s-1.189-.188-1.977-.323a23.765,23.765,0,0,0-2.608-.12l-5.5-.115h-3.5l.122,9.106.042,8.621-.164,11.16h5.748a40.3,40.3,0,0,0,6.071-.565,30.866,30.866,0,0,0,3.058-.724,13.576,13.576,0,0,0,2.139-.808c.53-.27,1.082-.565,1.652-.888.759-.429,1.275-.741,1.548-.927a8.39,8.39,0,0,0,2.24-2.139,6.863,6.863,0,0,0,.8-1.474A4.38,4.38,0,0,0,231.982,370.12Zm-14.844-15.282q4.629,0,4.629,3.141a4.173,4.173,0,0,1-.812,2.5,6.657,6.657,0,0,1-1.99,1.534,4.76,4.76,0,0,1-1.828.483Zm5.035,16.918a5.286,5.286,0,0,1-1.868,1.651,6.614,6.614,0,0,1-3.167.806v-7.891a7.428,7.428,0,0,1,3.471.684,3.918,3.918,0,0,1,1.686,1.451,2.978,2.978,0,0,1,.527,1.648A2.617,2.617,0,0,1,222.173,371.756Z" transform="translate(-208.465 -329.947)" fill="#ff9a02"/>
    </g>
    <g id="Group_671" data-name="Group 671" transform="translate(207.275 237.241)">
      <path id="Path_3161" data-name="Path 3161" d="M430.717,269.736a4.548,4.548,0,0,0-1.469,3.473v5.3h-5.23c3.084-20.718,6.48-41.273,6.48-41.273l-44.481,2.731c1.391,3.533,2.318,16.038,2.928,29.488.511.085,1.065.2,1.694.356a18.572,18.572,0,0,1,1.935.579,17.318,17.318,0,0,1,1.949.849c-.039-12.742-.249-24.123-.863-24.756l28.237-1.6s-2.09,16.715-3.993,33.621h-.051v-9.461l-6.465,3.82-.048.058a6.249,6.249,0,0,0-1.406,3.41v7.384l.026.072c.047.129,1.178,3.159,3.8,3.159h3.211c-1.132,10.523-2.033,20-2.111,24.146l-20.53-3.892s.047-3.682.095-9.232l-.051.029c-.6.337-1.175.646-1.719.924a15.056,15.056,0,0,1-2.425.92c-.113.034-.233.066-.349.1.113,5.784.153,9.545.153,9.545l29.092,8.168c.164-4.207,1.112-12.269,2.4-21.723a4.348,4.348,0,1,0,1.038-7.443q.11-.768.221-1.543h10.556a3.858,3.858,0,0,0,3.829-4.09V267.08l-6.342,2.594ZM424.2,289.045a3.478,3.478,0,1,1-2.537,5.85c.239-1.745.489-3.532.746-5.348A3.45,3.45,0,0,1,424.2,289.045Zm-10.44-2.96c-1.828,0-2.79-2.115-2.957-2.52v-7.224a5.317,5.317,0,0,1,1.16-2.8l5.016-2.964v8.805h.824c-.252,2.248-.5,4.493-.738,6.7Zm17.459-15.632,5.075-2.075v14.488a2.975,2.975,0,0,1-2.958,3.219h-10.43c.32-2.214.648-4.456.981-6.7h6.231v-6.176A3.731,3.731,0,0,1,431.221,270.452Z" transform="translate(-319.658 -237.241)" fill="#0081c5"/>
      <path id="Path_3162" data-name="Path 3162" d="M553.829,316.783c-.279.109-1.828.83-1.691,3.294.056,1,.024,3.286.008,4.237H540.609V301.523a4.546,4.546,0,0,0-1.473-3.478l-6.444-4.98v35.6a3.858,3.858,0,0,0,3.829,4.091H556.1c2.624,0,3.755-3.031,3.8-3.16l.026-.072V313.593Zm5.224,12.581c-.167.405-1.129,2.521-2.957,2.521H536.522a2.976,2.976,0,0,1-2.959-3.22V294.84l5.032,3.889a3.677,3.677,0,0,1,1.143,2.794v23.661H553l.009-.426c0-.139.073-3.426,0-4.73-.109-1.962,1.091-2.416,1.138-2.433l4.908-2.563Z" transform="translate(-411.879 -272.341)" fill="#0081c5"/>
      <path id="Path_3163" data-name="Path 3163" d="M575.715,403.964a4.349,4.349,0,1,0,4.349,4.348A4.353,4.353,0,0,0,575.715,403.964Zm0,7.827a3.478,3.478,0,1,1,3.479-3.478A3.482,3.482,0,0,1,575.715,411.791Z" transform="translate(-436.195 -342.067)" fill="#0081c5"/>
      <path id="Path_3164" data-name="Path 3164" d="M422.51,467.66q-2.915,0-2.916-3.336a4.037,4.037,0,0,1,.749-2.589,2.481,2.481,0,0,1,2.047-.936,2.87,2.87,0,0,1,2.141.816l.971-1.85a4.489,4.489,0,0,0-2.954-1.035,5.045,5.045,0,0,0-3.895,1.546,6.572,6.572,0,0,0-.119,8.024,4.585,4.585,0,0,0,3.559,1.43,7.513,7.513,0,0,0,1.755-.179,5.5,5.5,0,0,0,1.736-.856l-.843-1.96A3.119,3.119,0,0,1,422.51,467.66Z" transform="translate(-339.281 -376.501)" fill="#0081c5"/>
      <path id="Path_3165" data-name="Path 3165" d="M447.576,458.73a4.235,4.235,0,0,0-3.4,1.525,5.908,5.908,0,0,0-1.288,3.952,6.139,6.139,0,0,0,1.234,4.013,4.69,4.69,0,0,0,6.879.017,7.135,7.135,0,0,0,.024-8.04A4.254,4.254,0,0,0,447.576,458.73Zm1.685,8.073a1.941,1.941,0,0,1-1.685.913q-2.32,0-2.32-3.509a4.452,4.452,0,0,1,.63-2.55,1.955,1.955,0,0,1,1.69-.912q2.308,0,2.309,3.462A4.581,4.581,0,0,1,449.261,466.8Z" transform="translate(-355.415 -376.501)" fill="#0081c5"/>
      <path id="Path_3166" data-name="Path 3166" d="M483.148,458.73a4.045,4.045,0,0,0-1.526.311,2.9,2.9,0,0,0-1.189.833,3.644,3.644,0,0,0-2.925-1.145,3.073,3.073,0,0,0-2.448,1.117l-.465-.927h-1.567v10.619h2.287V461.89a2.253,2.253,0,0,1,.735-.75,1.716,1.716,0,0,1,.933-.34,1.674,1.674,0,0,1,1.262.462,1.708,1.708,0,0,1,.447,1.243v7.034h2.26v-7.658a1.8,1.8,0,0,1,.665-.754,1.725,1.725,0,0,1,.983-.327q1.729,0,1.728,2.092v6.647h2.261v-7a4.045,4.045,0,0,0-.907-2.79A3.224,3.224,0,0,0,483.148,458.73Z" transform="translate(-374.366 -376.501)" fill="#0081c5"/>
      <path id="Path_3167" data-name="Path 3167" d="M382.253,369.746a7.718,7.718,0,0,0-3.674-.734h-.435v8.758h.435a7.129,7.129,0,0,0,3.377-.858,5.745,5.745,0,0,0,2-1.762,3.04,3.04,0,0,0,.745-1.923,3.413,3.413,0,0,0-.588-1.872A4.333,4.333,0,0,0,382.253,369.746Zm1,4.884a4.929,4.929,0,0,1-1.714,1.516,6.308,6.308,0,0,1-2.528.738V369.89a6.512,6.512,0,0,1,2.827.623h0a3.57,3.57,0,0,1,1.509,1.269l.02.034a2.531,2.531,0,0,1,.456,1.41A2.241,2.241,0,0,1,383.255,374.63Z" transform="translate(-314.707 -320.091)" fill="#0081c5"/>
      <path id="Path_3168" data-name="Path 3168" d="M374.084,352.6c.785-.447,1.3-.757,1.566-.939a8.762,8.762,0,0,0,2.368-2.263,7.179,7.179,0,0,0,.842-1.563,4.808,4.808,0,0,0,.294-1.71,5.736,5.736,0,0,0-1.283-3.79,8.09,8.09,0,0,0-2.761-2.193,12.815,12.815,0,0,0-1.774-.681c.285-.148.6-.332.948-.553a11.42,11.42,0,0,0,2.314-2.033,4.337,4.337,0,0,0,1.252-2.9,6.271,6.271,0,0,0-1.221-4.066,9.59,9.59,0,0,0-4.161-2.558,17.593,17.593,0,0,0-1.8-.537c-.686-.169-1.278-.291-1.814-.372s-1.184-.186-1.989-.322a23.121,23.121,0,0,0-2.646-.127h0l-5.51-.115h-3.948l.127,9.544.042,8.612-.17,11.6h6.188a41.306,41.306,0,0,0,6.152-.572,30.123,30.123,0,0,0,3.1-.736,13.962,13.962,0,0,0,2.213-.836C372.938,353.227,373.5,352.926,374.084,352.6Zm-4.132.9a29.21,29.21,0,0,1-3,.712,40.428,40.428,0,0,1-6.005.56h-5.3l.157-10.729-.041-8.625-.116-8.664H358.7l5.51.116a22.593,22.593,0,0,1,2.534.118c.79.135,1.452.244,1.985.322.507.077,1.074.193,1.733.356a16.713,16.713,0,0,1,1.706.509,8.789,8.789,0,0,1,3.786,2.29,5.439,5.439,0,0,1,1.025,3.516,3.5,3.5,0,0,1-1.029,2.313,10.565,10.565,0,0,1-2.132,1.88,7.483,7.483,0,0,1-1.628.838l-.307.095v.931l.362.062a10.109,10.109,0,0,1,2.5.833,7.223,7.223,0,0,1,2.46,1.962h0a4.824,4.824,0,0,1,1.081,3.231,3.95,3.95,0,0,1-.24,1.4,6.4,6.4,0,0,1-.735,1.363,7.9,7.9,0,0,1-2.137,2.041c-.259.177-.756.475-1.518.909-.574.322-1.123.618-1.633.878A13.138,13.138,0,0,1,369.953,353.495Z" transform="translate(-300.006 -292.971)" fill="#0081c5"/>
      <path id="Path_3169" data-name="Path 3169" d="M380.6,346.063a7.029,7.029,0,0,0,2.12-1.634l.025-.03a4.6,4.6,0,0,0,.9-2.751c0-1.634-.879-3.582-5.064-3.582h-.435v8.53h.435A5.129,5.129,0,0,0,380.6,346.063Zm-1.589-7.118c3.758.137,3.757,2.056,3.757,2.7a3.744,3.744,0,0,1-.718,2.224,6.149,6.149,0,0,1-1.825,1.405,5.615,5.615,0,0,1-1.214.4Z" transform="translate(-314.707 -300.634)" fill="#0081c5"/>
      <path id="Path_3170" data-name="Path 3170" d="M304.254,391.231l-1.461,3.087,8.326-.482-4.111-8.142Zm5.489,1.813-5.534.32.829-1.752.893-1.813,1.078-2.171Z" transform="translate(-267.331 -330.58)" fill="#0081c5"/>
      <path id="Path_3171" data-name="Path 3171" d="M298.786,373.071l-3.914-5.976-9.217-13.964h-.88l-1.64,2.582-2.408,3.916-1.013,1.722-1.472,2.384-4.478,7.482-.979,1.574-4.839,8,8.59,4.755,1.578-3.41,1.151-2.36,11.823-.695,3.714,6.454,8.847-5.179-2.827-4.218Zm-3.668,11.267-3.545-6.161-12.869.756-1.378,2.825-1.191,2.568-6.976-3.861,4.368-7.221.979-1.575L277.32,367l1.666-2.812,1.473-2.385,1.014-1.723,2.4-3.9,1.347-2.121,8.923,13.521,3.915,5.977,4.35,6.519Z" transform="translate(-245.42 -310.106)" fill="#0081c5"/>
      <path id="Path_3172" data-name="Path 3172" d="M234.767,393h0a7.871,7.871,0,0,0-3.676-.735h-.436v8.762h.436a7.065,7.065,0,0,0,3.375-.86,5.689,5.689,0,0,0,2-1.76,3.054,3.054,0,0,0,.745-1.923,3.4,3.4,0,0,0-.587-1.87A4.311,4.311,0,0,0,234.767,393Zm1,4.887a4.868,4.868,0,0,1-1.714,1.514,6.232,6.232,0,0,1-2.525.739v-7a6.555,6.555,0,0,1,2.83.625,3.54,3.54,0,0,1,1.506,1.27l.021.036a2.557,2.557,0,0,1,.456,1.41A2.221,2.221,0,0,1,235.765,397.884Z" transform="translate(-221.974 -334.71)" fill="#0081c5"/>
      <path id="Path_3173" data-name="Path 3173" d="M231.377,371.09a4.841,4.841,0,0,0,.293-1.708,5.736,5.736,0,0,0-1.284-3.79,8.071,8.071,0,0,0-2.76-2.194,12.678,12.678,0,0,0-1.774-.681q.432-.226.948-.554a11.381,11.381,0,0,0,2.311-2.033,4.329,4.329,0,0,0,1.254-2.894,6.261,6.261,0,0,0-1.22-4.068,9.511,9.511,0,0,0-4.163-2.557,17.309,17.309,0,0,0-1.794-.536c-.652-.163-1.262-.288-1.813-.373-.528-.081-1.184-.188-1.994-.325a24.214,24.214,0,0,0-2.645-.123h0l-5.512-.115h-3.946l.128,9.544.042,8.612-.17,11.6h6.19a40.883,40.883,0,0,0,6.152-.573,31.43,31.43,0,0,0,3.1-.735,13.887,13.887,0,0,0,2.211-.836c.562-.286,1.123-.588,1.669-.9.729-.412,1.275-.739,1.566-.938a8.873,8.873,0,0,0,2.365-2.259A7.341,7.341,0,0,0,231.377,371.09Zm-3.689,3.1c-.281.191-.82.513-1.518.908-.534.3-1.084.6-1.633.878a13.254,13.254,0,0,1-2.067.779,30.528,30.528,0,0,1-3,.712,39.988,39.988,0,0,1-6,.56h-5.306l.157-10.727-.042-8.625-.116-8.665h3.054l5.512.115a23.771,23.771,0,0,1,2.535.114q1.187.2,1.984.325c.525.08,1.108.2,1.735.357a16.514,16.514,0,0,1,1.7.508,8.836,8.836,0,0,1,3.788,2.291,5.428,5.428,0,0,1,1.023,3.516,3.493,3.493,0,0,1-1.031,2.313,10.552,10.552,0,0,1-2.13,1.88,7.759,7.759,0,0,1-1.627.842l-.3.1v.93l.363.061a9.989,9.989,0,0,1,2.493.831,7.212,7.212,0,0,1,2.46,1.963h0a4.823,4.823,0,0,1,1.082,3.231,3.975,3.975,0,0,1-.237,1.4,6.422,6.422,0,0,1-.74,1.368A8.011,8.011,0,0,1,227.687,374.189Z" transform="translate(-207.275 -307.596)" fill="#0081c5"/>
      <path id="Path_3174" data-name="Path 3174" d="M233.117,369.323a7.121,7.121,0,0,0,2.118-1.635l.026-.033a4.614,4.614,0,0,0,.895-2.751c0-1.632-.879-3.577-5.065-3.577h-.436v8.526h.436A5.18,5.18,0,0,0,233.117,369.323Zm-1.591-7.116c3.758.137,3.758,2.053,3.758,2.7a3.756,3.756,0,0,1-.718,2.225,6.238,6.238,0,0,1-1.823,1.407,5.68,5.68,0,0,1-1.217.4Z" transform="translate(-221.974 -315.26)" fill="#0081c5"/>
    </g>
  </g>
</svg>
