<svg xmlns="http://www.w3.org/2000/svg" width="179" height="50" viewBox="0 0 179 50" fill="none"><g clip-path="url(#clip0_719_3932)"><path d="M9.38514 5.65063C7.84179 5.65063 6.58691 6.90551 6.58691 8.44886C6.58691 9.99222 7.84179 11.2471 9.38514 11.2471C10.9285 11.2471 12.1834 9.99222 12.1834 8.44886C12.1834 6.90551 10.9285 5.65063 9.38514 5.65063ZM11.6533 8.44886C11.6533 9.70013 10.6364 10.717 9.38514 10.717C8.13387 10.717 7.11699 9.70013 7.11699 8.44886C7.11699 7.19759 8.13387 6.18071 9.38514 6.18071C10.6364 6.18071 11.6533 7.19759 11.6533 8.44886Z" fill="#06262D"></path><path d="M9.92967 8.57141C10.0595 8.50651 10.1568 8.41636 10.2254 8.30097C10.2939 8.18558 10.3299 8.04855 10.3299 7.8971C10.3299 7.74565 10.2939 7.61583 10.2254 7.50044C10.1568 7.38505 10.0559 7.2949 9.92967 7.22639C9.80346 7.16148 9.65562 7.12903 9.48614 7.12903H8.50171V9.76859H8.94885V8.66517H9.09309L9.96934 9.74696L9.98376 9.76499H10.5571L9.63759 8.65075C9.74937 8.63632 9.84313 8.61108 9.92607 8.56781L9.92967 8.57141ZM9.47171 8.27212H8.95245V7.5365H9.47532C9.60874 7.5365 9.7061 7.57256 9.77461 7.64108C9.84313 7.71319 9.87919 7.79974 9.87919 7.90792C9.87919 8.02331 9.84673 8.10985 9.77822 8.17476C9.70971 8.23967 9.60874 8.27212 9.47171 8.27212Z" fill="#06262D"></path><path d="M124.149 45.0854H120.6V48.6337H124.149V45.0854Z" fill="#06262D"></path><path d="M41.7523 26.0495V38.4648C41.7523 42.3809 38.5718 45.565 34.6594 45.565L31.1111 45.5614V49.1096H34.6594C37.5946 49.1096 40.2558 47.9233 42.185 45.9941C44.1106 44.0685 45.3006 41.4073 45.3006 38.4684V27.8272V26.0495C45.3006 23.1142 47.6877 20.7271 50.623 20.7271V17.1788C48.6253 17.1788 46.7826 17.8387 45.3006 18.953C43.1478 20.572 41.7523 23.1467 41.7523 26.0459V26.0495Z" fill="#06262D"></path><path d="M127.823 27.8237V29.5978C127.823 31.0655 127.228 32.3924 126.262 33.3552C125.299 34.318 123.968 34.9166 122.501 34.9166C119.616 34.9166 117.265 32.6088 117.189 29.7385C117.189 29.6916 117.196 29.6447 117.196 29.5942V27.8237H117.182V9.17725H113.634V17.1536V17.1789V29.5942C113.634 29.6555 113.641 29.7132 113.641 29.7709C113.547 32.6232 111.203 34.913 108.329 34.913H95.914H74.9777V27.8201C74.9777 21.9424 70.2142 17.1789 64.3365 17.1789C58.4588 17.1789 53.6953 21.9424 53.6953 27.8201C53.6953 33.6978 58.4588 38.4613 64.3365 38.4613H71.4294C71.4294 42.3738 68.249 45.5578 64.3365 45.5578H60.7882V49.1061H64.3365C67.2718 49.1061 69.933 47.9161 71.8622 45.9905C73.7877 44.065 74.9777 41.4038 74.9777 38.4649H95.914H108.322H108.344C110.334 38.4649 112.173 37.8014 113.652 36.6908C114.322 36.1859 114.91 35.5801 115.415 34.9094C115.667 35.2448 115.934 35.5693 116.234 35.865C116.529 36.1643 116.847 36.4383 117.182 36.6908C117.46 36.8999 117.752 37.091 118.051 37.2677C118.451 37.5021 118.873 37.704 119.313 37.8735C119.425 37.9168 119.533 37.9565 119.645 37.9961C119.868 38.0718 120.096 38.1404 120.326 38.1981C120.442 38.2305 120.557 38.2557 120.676 38.281C120.737 38.2918 120.802 38.3062 120.867 38.317C121.397 38.418 121.945 38.4685 122.504 38.4685L123.608 38.4C123.806 38.3783 124.001 38.3459 124.192 38.3062L125.353 37.9997C125.353 37.9997 125.353 37.9997 125.357 37.9997C125.692 37.8879 126.017 37.7545 126.33 37.6031C126.539 37.5021 126.745 37.3939 126.947 37.2785C127.149 37.1631 127.344 37.0369 127.531 36.9071C127.625 36.8422 127.719 36.7737 127.812 36.7052C129.969 35.0861 131.361 32.5114 131.361 29.6123V17.1969H127.812V27.8381L127.823 27.8237ZM57.2436 27.8237C57.2436 23.9112 60.424 20.7308 64.3365 20.7308C68.249 20.7308 71.4294 23.9148 71.4294 27.8237V34.9166H64.3365C60.424 34.9166 57.2436 31.7326 57.2436 27.8237Z" fill="#06262D"></path><path d="M31.2338 34.3505C31.3492 34.199 31.4646 34.0476 31.5728 33.8925C31.6052 33.8457 31.6341 33.8024 31.6629 33.7555C31.7891 33.568 31.9081 33.3769 32.0235 33.1822C32.0632 33.11 32.1064 33.0415 32.1425 32.9694C32.2218 32.8288 32.2976 32.6845 32.3697 32.5403C32.3913 32.4934 32.4129 32.4501 32.4346 32.4033C32.6545 31.9417 32.8421 31.4657 32.9899 30.9789C33.0151 30.9068 33.0368 30.8275 33.0584 30.7517C33.08 30.676 33.1017 30.6003 33.1197 30.521C33.163 30.3587 33.2027 30.1964 33.2351 30.0341C33.2495 29.9656 33.264 29.8971 33.2748 29.8286C33.3216 29.5978 33.3577 29.3598 33.3866 29.1254C33.3974 29.0461 33.4046 28.9704 33.4118 28.8947C33.4226 28.7865 33.4298 28.6783 33.437 28.5701C33.6426 25.606 32.6149 22.5698 30.3467 20.3016L22.8211 12.776L20.3149 15.2821L22.2297 17.1969C22.172 17.1969 22.1143 17.2041 22.0566 17.2077C21.9737 17.2149 21.8871 17.2222 21.8042 17.2294C21.7213 17.2366 21.6347 17.2474 21.5482 17.2546C21.3787 17.2726 21.2092 17.2979 21.0397 17.3267C20.8883 17.352 20.7368 17.3808 20.5854 17.4133C20.4772 17.4385 20.3726 17.4601 20.2681 17.4854C20.1923 17.5034 20.1166 17.5251 20.0373 17.5467C19.9039 17.5828 19.774 17.6188 19.6406 17.6621C19.5721 17.6837 19.5 17.7054 19.4351 17.7306C19.3594 17.7558 19.2836 17.7811 19.2079 17.8099C19.1322 17.8388 19.0565 17.8676 18.9807 17.8929C18.7319 17.9902 18.4831 18.0948 18.2379 18.2138C18.191 18.2354 18.1477 18.2571 18.1009 18.2787C17.6177 18.5167 17.1489 18.7944 16.7018 19.1117C16.6441 19.1513 16.5864 19.1946 16.5287 19.2343C16.4566 19.2848 16.3844 19.3425 16.3159 19.3966C16.269 19.4326 16.2258 19.4687 16.1789 19.5047C16.1356 19.5408 16.0887 19.5769 16.0455 19.6129C15.9157 19.7211 15.7894 19.8293 15.6668 19.9411C15.5406 20.0564 15.418 20.1718 15.299 20.2908C11.145 24.4449 11.1414 31.1845 15.299 35.3385C19.4531 39.4926 26.1927 39.4926 30.3467 35.3385C30.4657 35.2195 30.5847 35.0969 30.6965 34.9707C30.8083 34.8481 30.9201 34.7219 31.0283 34.5921C31.0643 34.5488 31.104 34.5019 31.1364 34.4587C31.1689 34.419 31.1977 34.3829 31.2266 34.3433L31.2338 34.3505ZM27.8442 32.8396C25.0784 35.6054 20.5782 35.6054 17.8124 32.8396C15.0466 30.0738 15.043 25.5736 17.8124 22.8078C19.2367 21.3834 21.1263 20.6911 23.0014 20.7344C23.1709 20.738 23.3403 20.7488 23.5134 20.7668C23.6288 20.7776 23.7406 20.7921 23.8524 20.8065C23.9101 20.8137 23.9678 20.8245 24.0219 20.8317C24.1913 20.857 24.3572 20.893 24.5231 20.9363C24.689 20.976 24.8548 21.0228 25.0171 21.0769C25.2371 21.1491 25.4534 21.2284 25.6626 21.3221C26.4595 21.6647 27.2023 22.1623 27.8478 22.8114C28.4969 23.4605 28.9909 24.2033 29.3371 24.9966C29.4308 25.2094 29.5101 25.4257 29.5823 25.6421C29.6364 25.8044 29.6832 25.9702 29.7229 26.1361C29.7662 26.302 29.7986 26.4715 29.8275 26.6373C29.8383 26.6914 29.8455 26.7491 29.8527 26.8068C29.8707 26.9186 29.8816 27.0304 29.8924 27.1458C29.9104 27.3153 29.9176 27.4847 29.9248 27.6578C29.9681 29.5293 29.2758 31.4188 27.8514 32.8432L27.8442 32.8396Z" fill="#06262D"></path><path d="M96.0726 13.4828C96.5053 13.8073 97.039 13.9984 97.6231 13.9984C98.2037 13.9984 98.741 13.8073 99.1737 13.4828C99.3756 13.3313 99.5415 13.1438 99.6894 12.9455C99.8372 13.1474 100.007 13.3349 100.205 13.4828C100.638 13.8073 101.171 13.9984 101.756 13.9984C102.336 13.9984 102.873 13.8073 103.306 13.4828C103.934 13.0104 104.337 12.2603 104.337 11.4166V9.17725H103.306V11.4166C103.306 12.2712 102.61 12.9671 101.756 12.9671C100.901 12.9671 100.205 12.2712 100.205 11.4166V9.17725H99.1737V11.4166C99.1737 12.2712 98.4777 12.9671 97.6231 12.9671C96.7685 12.9671 96.0726 12.2712 96.0726 11.4166V9.17725H95.0413V11.4166C95.0413 12.2603 95.4487 13.0104 96.0726 13.4828Z" fill="#06262D"></path><path d="M26.3947 6.67468H19.3018V10.223H26.3947V6.67468Z" fill="#06262D"></path><path d="M164.355 34.5344C164.665 34.336 164.835 34.1233 164.835 33.8997C164.835 33.4814 164.236 33.0956 163.208 32.7711C165.718 30.5065 167.308 27.2359 167.308 23.5903C167.308 16.757 161.77 11.2146 154.933 11.2146C148.096 11.2146 142.557 16.7534 142.557 23.5903C142.557 27.2395 144.144 30.5065 146.657 32.7711C145.633 33.0956 145.034 33.485 145.034 33.8997C145.034 34.1197 145.208 34.3324 145.514 34.5344C144.176 34.9382 143.383 35.4323 143.383 35.9623C143.383 37.329 148.554 38.436 154.933 38.436C161.312 38.436 166.483 37.329 166.483 35.9623C166.483 35.4287 165.689 34.9382 164.352 34.5344H164.355Z" fill="#06262D"></path></g><defs><clipPath id="clip0_719_3932"><rect width="177.5" height="49.6325" fill="white" transform="translate(0.994141 0.0253906)"></rect></clipPath></defs></svg>