<?xml version="1.0" encoding="utf-8"?>
<!-- Generator: Adobe Illustrator 28.0.0, SVG Export Plug-In . SVG Version: 6.00 Build 0)  -->
<svg version="1.1" id="Layer_1" xmlns="http://www.w3.org/2000/svg" xmlns:xlink="http://www.w3.org/1999/xlink" x="0px" y="0px"
	 viewBox="0 0 543.32 308.43" style="enable-background:new 0 0 543.32 308.43;" xml:space="preserve">
<style type="text/css">
	.st0{fill:#2661E9;}
	.st1{fill:#FABD40;}
</style>
<g>
	<g>
		<path class="st0" d="M108.53,185.8c1.75,0,2.89-0.3,3.43-0.9c0.54-0.6,0.81-1.84,0.81-3.7v-46.88c0-0.78,0.14-1.31,0.41-1.58
			s0.71-0.47,1.31-0.59l6.5-0.9c1.26-0.18,1.9,0.45,1.9,1.9v51.3c0,3.73-1.05,6.55-3.16,8.45s-5.48,2.85-10.12,2.85h-36.4
			c-7.17,0-12.59-1.69-16.26-5.06s-5.51-8.04-5.51-14v-10.57c0-1.38,0.75-2.08,2.26-2.08h5.69c0.72,0,1.28,0.14,1.67,0.41
			c0.39,0.27,0.59,0.83,0.59,1.67v6.14c0,2.47,0.23,4.56,0.68,6.28s1.2,3.12,2.26,4.2c1.05,1.08,2.45,1.87,4.2,2.35
			s3.94,0.72,6.59,0.72L108.53,185.8L108.53,185.8z M81.08,160.96c-1.08-1.57-1.63-3.31-1.63-5.24c0-2.53,0.89-4.55,2.66-6.05
			c1.78-1.5,3.93-2.26,6.46-2.26s4.88,0.69,7.05,2.08c0.3,0.24,0.54,0.53,0.72,0.86c0.18,0.33,0.15,0.68-0.09,1.04l-0.9,2.26
			c-0.18,0.42-0.36,0.71-0.54,0.86c-0.18,0.15-0.51,0.08-0.99-0.23c-1.69-0.84-3.22-1.26-4.61-1.26c-1.14,0-2.08,0.36-2.8,1.08
			s-1.08,1.69-1.08,2.89c0,1.33,0.48,2.65,1.45,3.97h9.21c0.84,0,1.26,0.42,1.26,1.26v3.07c0,0.84-0.42,1.26-1.26,1.26H78.47
			c-0.84,0-1.26-0.45-1.26-1.36v-2.98c0-0.84,0.42-1.26,1.26-1.26L81.08,160.96L81.08,160.96z"/>
		<path class="st0" d="M148.46,185.8h8.49v9.94h-9.39c-0.42,2.11-1.07,4.03-1.94,5.78s-2.02,3.39-3.43,4.92
			c-1.42,1.54-3.15,3.01-5.19,4.43c-2.05,1.41-4.46,2.88-7.23,4.38c-1.26,0.72-2.26,0.39-2.98-0.99l-2.53-4.61
			c-0.36-0.66-0.41-1.22-0.14-1.67c0.27-0.45,0.83-0.92,1.67-1.4c2.41-1.39,4.43-2.72,6.05-4.02s2.92-2.77,3.88-4.43
			s1.64-3.58,2.03-5.78s0.59-4.86,0.59-7.99v-23.58c0-1.5,0.78-2.26,2.35-2.26h5.42c1.56,0,2.35,0.75,2.35,2.26L148.46,185.8
			L148.46,185.8z"/>
		<path class="st0" d="M158.21,216.42c-1.5,0-2.75-0.44-3.75-1.31c-0.99-0.87-1.49-2.06-1.49-3.57s0.5-2.71,1.49-3.61
			s2.24-1.36,3.75-1.36c1.45,0,2.66,0.45,3.66,1.36s1.49,2.11,1.49,3.61s-0.5,2.69-1.49,3.57S159.66,216.42,158.21,216.42z
			 M156.05,195.74c-0.6,0-1.23-0.29-1.9-0.86c-0.66-0.57-0.99-1.94-0.99-4.11s0.33-3.54,0.99-4.11s1.3-0.86,1.9-0.86h8.85
			c1.75,0,2.9-0.3,3.48-0.9c0.57-0.6,0.86-1.84,0.86-3.7v-20.41c0-1.5,0.78-2.26,2.35-2.26h5.42c1.57,0,2.35,0.75,2.35,2.26v22.4
			c1.02,0.9,2.26,1.57,3.7,1.99c1.45,0.42,3.34,0.63,5.69,0.63h0.54v9.94h-0.54c-2.65,0-4.88-0.39-6.68-1.17
			c-1.81-0.78-3.28-1.9-4.43-3.34c-1.99,3.01-5.9,4.52-11.74,4.52h-9.85V195.74z M171.49,216.42c-1.51,0-2.75-0.44-3.75-1.31
			c-0.99-0.87-1.49-2.06-1.49-3.57s0.5-2.71,1.49-3.61s2.24-1.36,3.75-1.36c1.45,0,2.66,0.45,3.66,1.36s1.49,2.11,1.49,3.61
			s-0.5,2.69-1.49,3.57S172.94,216.42,171.49,216.42z"/>
		<path class="st0" d="M197.41,185.8c1.99,0,3.34-0.48,4.06-1.45c0.72-0.96,1.08-2.65,1.08-5.06v-10.48c0-0.84,0.19-1.41,0.59-1.72
			c0.39-0.3,0.92-0.45,1.58-0.45h5.87c0.66,0,1.19,0.15,1.58,0.45s0.59,0.87,0.59,1.72v14.45c2.29,1.87,4.67,2.8,7.14,2.8
			c2.11,0,3.55-0.59,4.34-1.76c0.78-1.17,1.17-2.63,1.17-4.38v-11.11c0-0.84,0.21-1.41,0.63-1.72c0.42-0.3,0.96-0.45,1.63-0.45h5.78
			c0.72,0,1.26,0.15,1.63,0.45c0.36,0.3,0.54,0.87,0.54,1.72v14.36c1.08,1.03,2.21,1.76,3.39,2.21c1.17,0.45,2.36,0.68,3.57,0.68
			c1.99,0,3.39-0.56,4.2-1.67s1.22-2.6,1.22-4.47v-19.24c0-0.84,0.19-1.42,0.59-1.72c0.39-0.3,0.92-0.45,1.58-0.45h5.87
			c0.72,0,1.26,0.15,1.63,0.45c0.36,0.3,0.54,0.87,0.54,1.72v21.68c0,1.81-0.29,3.52-0.86,5.15s-1.43,3.06-2.57,4.29
			s-2.54,2.2-4.2,2.89c-1.66,0.69-3.57,1.04-5.74,1.04c-4.82,0-8.7-1.78-11.65-5.33c-1.08,1.63-2.57,2.92-4.47,3.88
			c-1.9,0.96-4.11,1.45-6.64,1.45c-1.99,0-4.04-0.41-6.14-1.22c-2.11-0.81-3.85-2.06-5.24-3.75c-1.02,1.57-2.53,2.79-4.52,3.66
			s-4.52,1.31-7.59,1.31h-10.21c-0.6,0-1.23-0.29-1.9-0.86c-0.66-0.57-0.99-1.94-0.99-4.11s0.33-3.54,0.99-4.11s1.3-0.86,1.9-0.86
			L197.41,185.8L197.41,185.8z M223.97,147.69c-1.51,0-2.75-0.44-3.75-1.31c-0.99-0.87-1.49-2.06-1.49-3.57
			c0-1.5,0.5-2.71,1.49-3.61s2.24-1.35,3.75-1.35c1.45,0,2.66,0.45,3.66,1.35s1.49,2.11,1.49,3.61c0,1.51-0.5,2.7-1.49,3.57
			C226.63,147.25,225.42,147.69,223.97,147.69z M230.56,136.21c-1.45,0-2.66-0.42-3.66-1.26c-0.99-0.84-1.49-2.05-1.49-3.61
			c0-1.5,0.5-2.69,1.49-3.57c0.99-0.87,2.21-1.31,3.66-1.31c1.5,0,2.75,0.44,3.75,1.31c0.99,0.87,1.49,2.06,1.49,3.57
			c0,1.57-0.5,2.77-1.49,3.61C233.32,135.79,232.07,136.21,230.56,136.21z M237.25,147.69c-1.51,0-2.75-0.44-3.75-1.31
			c-0.99-0.87-1.49-2.06-1.49-3.57c0-1.5,0.5-2.71,1.49-3.61s2.24-1.35,3.75-1.35c1.45,0,2.66,0.45,3.66,1.35s1.49,2.11,1.49,3.61
			c0,1.51-0.5,2.7-1.49,3.57C239.91,147.25,238.69,147.69,237.25,147.69z"/>
		<path class="st0" d="M269.76,134.32c0-0.78,0.14-1.31,0.41-1.58s0.71-0.47,1.31-0.59l6.5-0.9c1.26-0.18,1.9,0.45,1.9,1.9v48.05
			c0,1.87,0.29,3.1,0.86,3.7c0.57,0.6,1.73,0.9,3.48,0.9h4.61v9.94h-5.6c-4.7,0-8.12-0.95-10.25-2.85c-2.14-1.9-3.21-4.71-3.21-8.45
			L269.76,134.32L269.76,134.32z"/>
		<path class="st0" d="M287.92,195.74c-0.6,0-1.23-0.29-1.9-0.86c-0.66-0.57-0.99-1.91-0.99-4.02c0-1.08,0.09-1.96,0.27-2.62
			s0.42-1.17,0.72-1.54c0.3-0.36,0.62-0.6,0.95-0.72s0.65-0.18,0.95-0.18h19.69c2.41,0,4.32-0.35,5.74-1.04
			c1.41-0.69,2.12-1.94,2.12-3.75c0-1.26-0.51-2.63-1.54-4.11c-1.02-1.47-2.63-2.98-4.83-4.52c-2.2-1.54-5-3.05-8.4-4.56
			c-3.4-1.5-7.45-2.92-12.15-4.25c-0.66-0.24-1.16-0.5-1.49-0.77s-0.5-0.74-0.5-1.4v-4.25c0-0.48,0.09-0.9,0.27-1.26
			s0.51-0.72,0.99-1.08l26.47-23.03c1.26-1.08,2.32-1.14,3.16-0.18l3.34,3.79c0.48,0.6,0.74,1.14,0.77,1.63
			c0.03,0.48-0.26,0.99-0.86,1.54l-21.59,18.79c8.97,3.43,15.67,7.14,20.1,11.11s6.64,8.52,6.64,13.64c0,2.83-0.59,5.13-1.76,6.91
			c-1.17,1.78-2.66,3.16-4.47,4.16s-3.83,1.67-6.05,2.03c-2.23,0.36-4.43,0.54-6.59,0.54L287.92,195.74L287.92,195.74z"/>
	</g>
</g>
<g>
	<g>
		<path class="st0" d="M49.3,241.64c0-4.03,0.8-7.54,2.41-10.54c1.6-3,3.95-5.34,7.05-7.01c3.09-1.67,6.88-2.51,11.35-2.51
			c1.9,0,3.6,0.15,5.09,0.46c1.49,0.31,2.76,0.71,3.8,1.21v5.72h-0.5c-1.04-0.61-2.27-1.07-3.69-1.38c-1.42-0.3-2.95-0.46-4.59-0.46
			c-2.95,0-5.49,0.54-7.63,1.62s-3.79,2.7-4.92,4.85c-1.14,2.16-1.71,4.84-1.71,8.04c0,3.2,0.57,5.88,1.71,8.04s2.78,3.77,4.92,4.85
			c2.14,1.08,4.69,1.62,7.63,1.62c1.64,0,3.17-0.15,4.59-0.46c1.42-0.3,2.65-0.76,3.69-1.38H79v5.72c-1.04,0.5-2.31,0.91-3.8,1.21
			c-1.49,0.31-3.19,0.46-5.09,0.46c-4.47,0-8.26-0.8-11.35-2.4c-3.1-1.6-5.44-3.9-7.05-6.9C50.11,249.4,49.3,245.81,49.3,241.64z"/>
		<path class="st0" d="M85.38,261.06l4.47-25.78c0.37-2.3,0.97-4.3,1.79-5.99s1.89-3.09,3.22-4.21c1.32-1.11,2.98-1.94,4.98-2.48
			c1.99-0.54,4.39-0.81,7.19-0.81c1.38,0,2.81,0.07,4.28,0.22c1.47,0.14,2.94,0.38,4.39,0.7l0.11,0.65
			c-0.11,0.68-0.2,1.56-0.25,2.64c-0.06,1.08-0.08,2.17-0.08,3.26s0,2,0,2.72v29.07h-6.43v-31c0-0.79,0.01-1.53,0.03-2.21
			s0.1-1.33,0.25-1.94l1.01,1.73c-0.49-0.18-1.07-0.31-1.76-0.38s-1.43-0.11-2.21-0.11c-2.27,0-4.08,0.31-5.43,0.92
			c-1.34,0.61-2.36,1.51-3.05,2.7s-1.2,2.71-1.54,4.58l-4.42,25.72L85.38,261.06L85.38,261.06z M91.31,249.68v-5.29h20.53v5.29
			H91.31z"/>
		<path class="st0" d="M124.03,253.83h0.5c0.9,0.47,1.93,0.88,3.1,1.24c1.17,0.36,2.46,0.65,3.86,0.86s2.88,0.32,4.45,0.32
			c1.75,0,3.3-0.16,4.64-0.49s2.39-0.84,3.13-1.56c0.75-0.72,1.12-1.73,1.12-3.02c0-1.58-0.49-2.71-1.45-3.4
			c-0.97-0.68-2.44-1.2-4.42-1.56l-4.64-0.81c-2.09-0.32-3.95-0.93-5.59-1.81c-1.64-0.88-2.94-2.08-3.89-3.61s-1.43-3.44-1.43-5.74
			c0-2.84,0.7-5.2,2.1-7.09c1.4-1.89,3.38-3.29,5.96-4.21s5.67-1.38,9.28-1.38c1.64,0,3.26,0.14,4.87,0.43
			c1.6,0.29,2.93,0.67,3.97,1.13v5.72h-0.45c-0.97-0.47-2.18-0.89-3.64-1.27s-3.15-0.57-5.09-0.57c-2.05,0-3.88,0.23-5.48,0.7
			c-1.6,0.47-2.86,1.21-3.78,2.24c-0.91,1.02-1.37,2.36-1.37,4.02c0,2.05,0.59,3.5,1.76,4.34s2.84,1.45,5.01,1.81l4.59,0.81
			c1.98,0.32,3.72,0.88,5.23,1.67s2.69,1.87,3.55,3.24s1.29,3.07,1.29,5.12c0,1.83-0.37,3.42-1.12,4.77
			c-0.75,1.35-1.8,2.46-3.16,3.34s-2.96,1.54-4.81,1.97s-3.91,0.65-6.18,0.65c-1.57,0-3.08-0.09-4.53-0.27s-2.81-0.42-4.06-0.73
			c-1.25-0.3-2.36-0.64-3.33-1v-5.86H124.03z"/>
		<path class="st0" d="M158.93,261.06v-38.83h6.49v38.83H158.93z M162.62,243.75v-5.39h24.05v5.39H162.62z M183.87,261.06v-38.83
			h6.49v38.83H183.87z"/>
		<path class="st0" d="M200.54,222.23h6.49v38.83h-6.49V222.23z"/>
		<path class="st0" d="M217.21,261.06v-38.83h6.49v38.83H217.21z M220.9,227.67v-5.45h22.15v5.45H220.9z M220.9,243.53v-5.29h19.07
			v5.29H220.9z M220.9,261.06v-5.45h22.76v5.45H220.9z"/>
		<path class="st0" d="M251.61,261.06v-38.83h6.49v38.83H251.61z M255.3,250v-5.5h9.56c2.05,0,3.75-0.46,5.09-1.38
			s2.34-2.12,2.99-3.61c0.65-1.49,0.98-3.1,0.98-4.83c0-2.44-0.69-4.24-2.07-5.39s-3.19-1.73-5.43-1.73h-11.13v-5.34h11.3
			c2.95,0,5.45,0.49,7.52,1.46s3.66,2.38,4.78,4.23c1.12,1.85,1.68,4.09,1.68,6.71c0,2.45-0.44,4.62-1.31,6.53
			c-0.88,1.91-2.06,3.51-3.55,4.83c-1.49,1.31-3.18,2.31-5.06,2.99s-3.85,1.02-5.9,1.02L255.3,250L255.3,250z M275.32,261.06
			l-9.9-12.67l6.49-0.86l10.79,13.27v0.27h-7.38V261.06z"/>
		<path class="st0" d="M289.31,261.06v-38.83h6.49v38.83H289.31z M299.65,246.39h-6.77V241h6.43c1.9,0,3.35-0.41,4.33-1.24
			c0.99-0.83,1.76-1.91,2.32-3.24l6.6-14.29h6.6v0.49l-7.33,15.53c-0.71,1.55-1.6,2.93-2.68,4.15c-1.08,1.22-2.4,2.19-3.97,2.91
			C303.62,246.03,301.78,246.39,299.65,246.39z M307.48,242.56l11.91,18.01v0.49h-7.1l-9.96-15.69L307.48,242.56z"/>
	</g>
</g>
<g>
	<path class="st1" d="M493.92,202.21c-0.74,20.33-9.6,40.36-25.1,54.05c-24.2,21.37-60.81,24.91-88.49,8.13
		c-32.85-19.92-40.75-58.78-35.62-94.42c0.5-3.46,1.1-6.9,1.79-10.32c6.73-33.15,21.1-64.49,39.99-92.55
		c-10.92,21.6-19.34,44.64-22.93,68.58c-3.58,23.94-2.2,48.84,5.93,71.65c4.85,13.62,12.53,26.89,24.72,34.65
		c9.67,6.15,21.71,8.34,33,6.35c14.78-2.61,29.31-12.5,35.61-26.37c1.05-2.31,2.1-4.63,2.92-7.03c0.65-1.9,0.95-3.91,1.42-5.87
		c0.84-3.49,0.94-7.05,0.81-10.6c-0.09-2.32-0.41-4.65-0.78-6.95c-0.33-2.08-0.73-4.17-1.36-6.18c-0.67-2.13-1.53-4.21-2.51-6.21
		c-1.03-2.12-2.17-4.21-3.48-6.17c-2.32-3.5-4.92-6.79-8.2-9.44c-2.11-1.7-4.22-3.43-6.5-4.89c-2.11-1.35-4.4-2.46-6.69-3.5
		c-1.91-0.87-3.93-1.52-5.91-2.23c-0.7-0.25-1.43-0.4-2.16-0.55c-1.31-0.27-2.62-0.6-3.94-0.75c-2.19-0.25-4.4-0.51-6.6-0.52
		c-2.17-0.02-4.35,0.23-6.52,0.43c-1.3,0.12-2.6,0.29-3.86,0.59c-2.2,0.52-4.41,1.05-6.54,1.79c-2.25,0.78-4.46,1.73-6.61,2.77
		c-3.28,1.59-6.18,3.72-8.7,6.39c-2.53,2.68-5.19,5.25-7.78,7.88c-0.41,0.42-0.7,0.96-1.13,1.36c-0.26,0.24-0.7,0.46-1.03,0.42
		c-0.22-0.03-0.49-0.51-0.55-0.82c-0.41-1.98-0.8-3.97-1.14-5.97c-0.29-1.72-0.46-3.46-0.74-5.18c-0.25-1.59-0.6-3.17-0.86-4.77
		c-0.38-2.4-0.72-4.8-1.08-7.2c-0.32-2.19-0.7-4.37-0.93-6.57c-0.16-1.5-0.15-3.03-0.13-4.55c0-0.33,0.34-0.72,0.61-0.99
		c5.21-5.18,10.46-10.32,15.66-15.51c10.08-10.05,20.13-20.13,30.19-30.19c9.47-9.47,18.94-18.92,28.41-28.39
		c8.64-8.65,17.27-17.32,25.91-25.98c0.13-0.13,0.28-0.22,0.5-0.39c0.07,0.12,0.14,0.19,0.16,0.28c0.28,1.59,0.56,3.18,0.84,4.78
		c0.34,1.96,0.73,3.91,1.03,5.88c0.29,1.91,0.47,3.83,0.75,5.75c0.33,2.28,0.72,4.56,1.04,6.84c0.16,1.11,0.2,2.24,0.34,3.35
		c0.33,2.65,0.73,5.3,1.01,7.95c0.05,0.47-0.2,1.13-0.54,1.47c-12.54,12.58-25.11,25.14-37.67,37.7c-4.4,4.4-8.8,8.8-13.2,13.2
		c-0.2,0.2-0.45,0.37-0.58,0.61c-0.16,0.31-0.3,0.68-0.26,1c0.01,0.13,0.5,0.26,0.78,0.31c3.12,0.58,6.28,1.01,9.37,1.74
		c2.99,0.71,5.95,1.57,8.83,2.63c2.64,0.97,5.2,2.2,7.73,3.46c2.25,1.13,4.42,2.42,6.57,3.73c1.57,0.96,3.12,1.97,4.53,3.14
		c2.81,2.32,5.66,4.63,8.25,7.2c3.61,3.59,6.84,7.55,9.55,11.88c1.76,2.82,3.38,5.74,4.87,8.71c1.09,2.18,1.91,4.51,2.74,6.8
		C492.88,183.48,494.26,192.88,493.92,202.21z M414.92,137.12c0-0.03-0.01-0.06-0.01-0.08c-0.64,0.1-1.29,0.21-1.93,0.3
		c-2.98,0.45-5.96,0.88-8.94,1.37c-1.23,0.2-1.59,0.79-1.42,1.98c0.11,0.81,0.87,1.26,1.94,1.19c1.78-0.11,3.55-0.25,5.33-0.27
		c3.9-0.03,7.81-0.09,11.68,0.6c2.76,0.49,5.54,0.86,8.26,1.51c2.37,0.57,4.69,1.4,6.99,2.23c2.27,0.82,4.54,1.67,6.72,2.71
		c4.85,2.31,9.41,5.11,13.66,8.41c4.11,3.19,7.89,6.75,11.18,10.77c2.28,2.79,4.33,5.8,6.3,8.83c3.04,4.69,5.33,9.76,7.08,15.07
		c0.32,0.98,1.22,1.54,2.18,1.32c0.75-0.17,1.37-1.07,1.2-1.86c-0.33-1.58-0.6-3.18-1.1-4.71c-0.86-2.65-1.73-5.31-2.85-7.86
		c-1.36-3.1-2.83-6.16-4.53-9.09c-2.31-3.97-5.12-7.61-8.27-10.97c-3.41-3.63-7.1-6.96-11.3-9.66c-2.82-1.82-5.74-3.51-8.71-5.06
		c-2.05-1.07-4.26-1.85-6.42-2.69c-1.5-0.58-3.03-1.09-4.56-1.57c-0.98-0.31-1.97-0.57-2.98-0.78c-1.49-0.3-2.99-0.58-4.5-0.79
		c-2.4-0.33-4.8-0.72-7.22-0.86C420.11,137.01,417.51,137.12,414.92,137.12z"/>
	<path class="st0" d="M383.92,212.99c0.26-1.5,0.51-3.01,0.78-4.51c0.29-1.59,0.59-3.19,0.92-4.77c0.26-1.25,0.59-2.48,0.87-3.73
		c0.51-2.25,1.02-4.5,1.52-6.75c0.31-1.36,0.64-2.72,0.93-4.08c0.33-1.55,0.61-3.11,0.94-4.66c0.42-1.92,0.73-3.88,1.36-5.73
		c0.45-1.32,1.65-2.1,3.07-2.35c1.41-0.25,2.83-0.43,4.25-0.64c3.54-0.54,7.08-1.1,10.63-1.6c2.25-0.32,4.52-0.51,6.77-0.83
		c2.07-0.29,4.12-0.69,6.18-1c1.08-0.16,2.18-0.19,3.26-0.33c2.74-0.36,5.48-0.75,8.21-1.14c3.08-0.43,6.16-0.93,9.25-1.29
		c2.72-0.32,3.85,0.08,5.32,2.76c1.77,3.24,3.52,6.5,5.26,9.75c1.31,2.44,2.59,4.89,3.91,7.32c1.32,2.43,2.75,4.81,3.99,7.28
		c0.97,1.93,1.8,3.95,2.56,5.97c0.63,1.68-0.66,3.07-2.44,3.53c-1.35,0.35-2.76,0.5-4.15,0.71c-2.49,0.39-4.99,0.78-7.49,1.13
		s-5,0.64-7.5,0.97c-2.56,0.34-5.11,0.69-7.66,1.04c-3.08,0.43-6.17,0.83-9.25,1.29c-3.39,0.5-6.77,1.07-10.16,1.57
		c-2.56,0.37-5.13,0.67-7.69,1c-1.33,0.17-2.66,0.33-3.98,0.51c-2.8,0.38-5.6,0.76-8.4,1.17c-1.91,0.28-3.8,0.68-5.71,0.93
		c-1.04,0.14-2.16,0.27-3.16,0.05C384.73,216.21,384,215.35,383.92,212.99z M442.99,172.73c-0.06,0.05-0.12,0.11-0.18,0.16
		c-0.31,0.06-0.61,0.12-0.92,0.17c-2.1,0.33-4.19,0.68-6.29,0.97c-3.52,0.49-7.05,0.92-10.58,1.41c-2.22,0.31-4.44,0.69-6.66,1.01
		c-2.56,0.37-5.13,0.7-7.69,1.06c-3.21,0.45-6.42,0.94-9.64,1.38c-1.7,0.24-3.41,0.4-5.1,0.67c-0.25,0.04-0.59,0.45-0.64,0.72
		c-0.41,2.43-0.78,4.87-1.14,7.31c-0.24,1.64-0.46,3.27-0.67,4.91c-0.27,2.07-0.51,4.15-0.8,6.22c-0.29,2.07-0.64,4.13-0.95,6.19
		c-0.1,0.64,0.13,0.91,0.85,0.79c1.51-0.25,3.03-0.43,4.54-0.63c3.34-0.44,6.69-0.84,10.02-1.31c3.8-0.54,7.59-1.16,11.38-1.71
		c3.98-0.58,7.97-1.12,11.95-1.66c3.74-0.51,7.49-0.96,11.23-1.48c3.96-0.55,7.9-1.18,11.85-1.75c0.68-0.1,0.79-0.36,0.49-0.94
		c-0.33-0.67-0.63-1.36-0.93-2.04c-1.48-3.36-2.95-6.73-4.44-10.09c-1.54-3.47-3.1-6.94-4.69-10.39
		C443.8,173.33,443.32,173.06,442.99,172.73z"/>
	<path class="st0" d="M436.81,226.83c-1.1,0.21-2.19,0.45-3.3,0.63c-0.55,0.09-1.12,0.06-1.67,0.13c-3.36,0.45-6.73,0.91-10.09,1.38
		c-3.05,0.43-6.1,0.91-9.16,1.3c-2.71,0.35-4-1.89-3.48-4.42c0.33-1.6,1.6-2.38,3.4-2.49c1.21-0.07,2.4-0.35,3.6-0.51
		c0.52-0.07,1.06-0.04,1.58-0.12c2.4-0.36,4.8-0.78,7.2-1.12c2.19-0.31,4.4-0.51,6.6-0.82c2.07-0.29,4.12-0.67,6.19-0.95
		c1.05-0.14,2.11-0.18,3.17-0.21c1.81-0.06,2.79,1.73,2.81,3.43c0.02,1.94-1.05,3.08-2.85,3.28c-1.33,0.15-2.64,0.42-3.96,0.64
		C436.83,226.93,436.82,226.88,436.81,226.83z"/>
</g>
</svg>
