<?xml version="1.0" encoding="UTF-8"?>
<!-- Generator: Adobe Illustrator 27.9.0, SVG Export Plug-In . SVG Version: 6.00 Build 0)  -->
<svg xmlns="http://www.w3.org/2000/svg" xmlns:xlink="http://www.w3.org/1999/xlink" version="1.1" id="Layer_1" x="0px" y="0px" viewBox="0 0 726.38 216.38" style="enable-background:new 0 0 726.38 216.38;" xml:space="preserve">
<style type="text/css">
	.st0{fill:#F7941E;}
	.st1{fill:#231F20;}
</style>
<g>
	<g>
		<g>
			<path class="st0" d="M141.43,77.92c0-10.1-8.21-18.31-18.31-18.31c-10.1,0-18.31,8.21-18.31,18.31c0,10.1,8.21,18.31,18.31,18.31     C133.22,96.22,141.43,88.01,141.43,77.92z M109.85,77.92c0-7.32,5.95-13.27,13.27-13.27s13.27,5.95,13.27,13.27     s-5.95,13.27-13.27,13.27S109.85,85.23,109.85,77.92z"></path>
			<path class="st1" d="M234.77,2.65c-1.39,0-2.52,1.13-2.52,2.52v54.62c0,7.97-2.31,15.67-6.67,22.27     c-3.43,5.21-8.1,9.63-13.5,12.76c-0.81,0.47-1.59,0.89-2.38,1.28l-0.22,0.1c-0.04,0.02-0.08,0.04-0.12,0.06     c-0.06,0.03-0.13,0.06-0.19,0.09l-0.73,0.34c-0.06,0.03-0.11,0.05-0.18,0.08l-0.09,0.04c-0.01,0-0.02,0.01-0.03,0.02l-8.21,3.85     c-0.01,0.01-0.03,0.01-0.04,0.02l-6.34,2.98c-0.01,0-0.01,0.01-0.02,0.01c-0.03,0.01-0.06,0.03-0.09,0.04c0,0,0,0,0,0     l-24.52,11.48c0.94-5.47,3.01-10.71,6.07-15.35c5.37-8.15,13.48-14.09,22.79-16.71c0.2-0.05,0.4-0.1,0.57-0.15     c0.01,0,0.01,0,0.02-0.01c0,0,0.01,0,0.01,0c0,0,0,0,0,0c10.3-2.94,17.48-12.47,17.48-23.19V38.35c0-1.39-1.13-2.52-2.52-2.52     s-2.52,1.13-2.52,2.52v21.44c0,8.49-5.7,16.04-13.88,18.36c-0.14,0.04-0.28,0.08-0.42,0.12c0,0,0,0,0,0     c-0.02,0-0.03,0.01-0.05,0.01c-10.52,2.96-19.64,9.64-25.68,18.8c-4.08,6.18-6.59,13.3-7.29,20.68     c-0.69,0.34-1.36,0.67-1.98,1.01c-10.87,5.94-18.79,15.98-22.05,27.8c-4.43-1.27-8.58-3.26-12.38-5.95     c2.75-2.6,5.17-5.51,7.22-8.69c0,0,0,0,0,0c5.29-8.16,10.49-15.99,16.74-25.37c0.26-0.39,0.52-0.78,0.76-1.16     c4.19-6.41,9.17-15.02,10.53-24.75c0.25-1.73,0.37-3.49,0.37-5.21c0-4.2-0.65-8.31-1.93-12.23     c-5.3-16.37-20.44-27.36-37.66-27.36c-17.22,0-32.36,10.99-37.67,27.36c-1.28,3.95-1.93,8.06-1.93,12.24     c0,1.72,0.12,3.47,0.37,5.2c0.08,0.61,0.18,1.21,0.3,1.81c1.68,8.97,6.3,16.91,10.22,22.92c0.25,0.39,0.51,0.79,0.79,1.2     l0.71,1.07c5.09,7.65,10.34,15.55,15.42,23.37h0c0.01,0.01,0.02,0.03,0.02,0.04c0,0.01,0.01,0.01,0.01,0.02     c0.45,0.68,0.89,1.37,1.32,2.04c0.01,0.01,0.01,0.02,0.02,0.03c0,0,0.01,0.01,0.01,0.01c0,0.01,0.01,0.01,0.01,0.02     c0.02,0.03,0.04,0.06,0.06,0.09c1.86,2.68,3.99,5.16,6.35,7.38c-3.8,2.69-7.95,4.69-12.39,5.95     c-3.03-10.93-10.17-20.51-19.91-26.55c-0.77-0.47-1.48-0.88-2.13-1.24c-0.38-0.21-0.78-0.42-1.19-0.63     c-0.12-0.06-0.24-0.12-0.36-0.18c-0.14-0.07-0.28-0.14-0.43-0.22c-0.05-0.48-0.1-0.95-0.16-1.42c-0.02-0.12-0.04-0.25-0.05-0.37     c-0.05-0.35-0.1-0.7-0.15-1.05c-0.03-0.17-0.06-0.34-0.09-0.51c-0.05-0.3-0.1-0.6-0.16-0.9c-0.04-0.19-0.08-0.38-0.12-0.57     c-0.06-0.28-0.11-0.56-0.18-0.84c-0.04-0.2-0.09-0.39-0.14-0.59c-0.06-0.27-0.13-0.54-0.2-0.8c-0.05-0.2-0.11-0.4-0.16-0.6     c-0.07-0.26-0.14-0.52-0.22-0.78c-0.06-0.2-0.12-0.4-0.18-0.6c-0.08-0.26-0.16-0.51-0.24-0.77c-0.07-0.2-0.13-0.4-0.2-0.6     c-0.09-0.25-0.17-0.5-0.27-0.75c-0.07-0.2-0.15-0.4-0.22-0.6c-0.09-0.25-0.19-0.5-0.29-0.75c-0.08-0.2-0.16-0.39-0.24-0.59     c-0.1-0.25-0.21-0.5-0.32-0.74c-0.08-0.19-0.17-0.38-0.25-0.57c-0.11-0.25-0.23-0.49-0.34-0.74c-0.09-0.19-0.18-0.37-0.27-0.56     c-0.12-0.25-0.25-0.5-0.38-0.74c-0.09-0.18-0.18-0.36-0.27-0.53c-0.14-0.26-0.28-0.51-0.42-0.76c-0.09-0.16-0.18-0.33-0.27-0.49     c-0.16-0.28-0.33-0.55-0.49-0.83c-0.08-0.13-0.16-0.27-0.24-0.4c-0.25-0.41-0.51-0.81-0.77-1.21c-0.5-0.75-1.02-1.49-1.56-2.21     c-2.1-2.81-4.5-5.36-7.17-7.61c-0.48-0.4-0.97-0.8-1.47-1.18c0,0,0,0,0,0c-1.89-1.46-3.91-2.78-5.99-3.93     c-0.04-0.02-0.07-0.04-0.11-0.06c-2.94-1.6-6.08-2.88-9.39-3.82c-0.01,0-0.02-0.01-0.03-0.01c-0.07-0.02-0.13-0.03-0.2-0.05     c-0.01,0-0.01,0-0.02-0.01c-0.07-0.02-0.15-0.04-0.23-0.06c-8.16-2.32-13.85-9.86-13.85-18.35V38.35c0-1.39-1.13-2.52-2.52-2.52     s-2.52,1.13-2.52,2.52v21.44c0,10.73,7.19,20.26,17.47,23.19c0.01,0,0.01,0.01,0.02,0.01c0.2,0.06,0.39,0.11,0.54,0.15     c2.95,0.83,5.78,1.99,8.42,3.44c0.03,0.02,0.06,0.03,0.09,0.05c0.26,0.15,0.52,0.3,0.78,0.45c0.19,0.11,0.38,0.22,0.57,0.33     c0.28,0.17,0.55,0.35,0.83,0.52c0.17,0.11,0.34,0.21,0.5,0.32c0.32,0.21,0.63,0.43,0.94,0.64c0.12,0.08,0.24,0.16,0.36,0.25     c0.43,0.31,0.85,0.62,1.27,0.94c3.54,2.74,6.6,6.03,9.08,9.78c0.24,0.37,0.48,0.74,0.71,1.11c0.06,0.09,0.11,0.19,0.17,0.29     c0.17,0.28,0.34,0.56,0.5,0.84c0.1,0.17,0.19,0.34,0.28,0.51c0.12,0.21,0.24,0.42,0.35,0.64c0.09,0.17,0.17,0.34,0.26,0.51     c0.11,0.22,0.23,0.44,0.34,0.66c0.09,0.18,0.17,0.36,0.25,0.54c0.1,0.22,0.2,0.43,0.3,0.65c0.09,0.19,0.17,0.39,0.25,0.58     c0.09,0.21,0.18,0.41,0.27,0.62c0.08,0.2,0.16,0.4,0.24,0.61c0.08,0.2,0.16,0.41,0.24,0.61c0.08,0.21,0.15,0.42,0.22,0.64     c0.07,0.2,0.14,0.4,0.21,0.6c0.07,0.22,0.14,0.43,0.21,0.65c0.06,0.2,0.13,0.4,0.19,0.6c0.07,0.22,0.13,0.45,0.19,0.67     c0.06,0.2,0.11,0.39,0.17,0.59c0.06,0.24,0.12,0.48,0.18,0.71c0.05,0.19,0.09,0.37,0.14,0.56c0.05,0.24,0.1,0.48,0.15,0.71     c0.04,0.19,0.08,0.38,0.12,0.57c0.05,0.23,0.08,0.47,0.13,0.7c0.01,0.06,0.02,0.12,0.03,0.18l-29.02-13.59l-1.94-0.91     c-0.01,0-0.01,0-0.02-0.01l-8.25-3.86c-0.01,0-0.01-0.01-0.02-0.01l-0.15-0.07c-0.35-0.16-0.7-0.31-1.05-0.49     c-0.04-0.02-0.08-0.04-0.12-0.06l-0.22-0.1c-0.79-0.39-1.57-0.81-2.38-1.28c-5.4-3.14-10.07-7.55-13.5-12.77     c-4.36-6.6-6.67-14.3-6.67-22.27V5.17c0-1.39-1.13-2.52-2.52-2.52S8.92,3.78,8.92,5.17v54.62c0,8.96,2.6,17.62,7.5,25.04     c3.86,5.86,9.11,10.83,15.18,14.35c0.92,0.53,1.8,1.01,2.71,1.46c0.01,0.01,0.03,0.01,0.04,0.02c0.01,0,0.01,0.01,0.02,0.01     l0.49,0.23c0.24,0.12,0.49,0.24,0.75,0.35l12.13,5.68l1.44,0.68c0,0.21,0.01,0.42,0.02,0.63c0.01,0.27,0.01,0.55,0.03,0.82     c0.01,0.31,0.03,0.63,0.06,0.94c0.02,0.27,0.03,0.55,0.06,0.82c0.03,0.31,0.06,0.62,0.09,0.93c0.03,0.27,0.05,0.54,0.09,0.81     c0.04,0.31,0.08,0.62,0.13,0.93c0.04,0.27,0.07,0.54,0.12,0.8c0.05,0.31,0.11,0.61,0.16,0.92c0.05,0.26,0.09,0.53,0.15,0.79     c0.06,0.31,0.13,0.61,0.2,0.91c0.06,0.26,0.11,0.52,0.17,0.78c0.07,0.31,0.16,0.61,0.23,0.91c0.07,0.25,0.13,0.51,0.2,0.76     c0.09,0.31,0.19,0.62,0.28,0.94c0.07,0.24,0.14,0.48,0.21,0.71c0.12,0.37,0.25,0.74,0.38,1.11c0.13,0.39,0.28,0.77,0.42,1.15     c0.12,0.31,0.23,0.63,0.36,0.94c0.1,0.26,0.22,0.51,0.32,0.77c0.11,0.27,0.22,0.54,0.34,0.81c0.12,0.26,0.24,0.52,0.36,0.78     c0.12,0.26,0.24,0.51,0.36,0.76c0.13,0.26,0.26,0.52,0.4,0.77c0.13,0.25,0.25,0.5,0.38,0.74c0.14,0.26,0.28,0.51,0.43,0.76     c0.14,0.24,0.27,0.48,0.41,0.72c0.15,0.25,0.3,0.5,0.45,0.75c0.14,0.23,0.29,0.47,0.43,0.7c0.16,0.25,0.32,0.49,0.48,0.73     c0.15,0.23,0.3,0.46,0.46,0.69c0.17,0.24,0.34,0.48,0.51,0.71c0.16,0.22,0.32,0.45,0.48,0.67c0.17,0.23,0.35,0.47,0.53,0.7     c0.17,0.22,0.34,0.43,0.51,0.65c0.18,0.23,0.37,0.45,0.56,0.68c0.18,0.21,0.35,0.42,0.53,0.63c0.19,0.22,0.38,0.44,0.58,0.65     c0.19,0.21,0.37,0.41,0.56,0.61c0.2,0.21,0.4,0.42,0.6,0.63c0.19,0.2,0.39,0.4,0.59,0.6c0.2,0.2,0.41,0.41,0.62,0.61     c0.2,0.19,0.41,0.39,0.61,0.58c0.21,0.2,0.43,0.39,0.64,0.58c0.21,0.19,0.42,0.37,0.63,0.56c0.22,0.19,0.44,0.38,0.66,0.56     c0.22,0.18,0.44,0.36,0.66,0.54c0.22,0.18,0.45,0.36,0.68,0.53c0.23,0.17,0.46,0.35,0.69,0.52c0.23,0.17,0.46,0.34,0.69,0.5     c0.24,0.17,0.48,0.33,0.72,0.5c0.23,0.16,0.47,0.32,0.71,0.48c0.25,0.16,0.5,0.32,0.74,0.47c0.24,0.15,0.47,0.3,0.72,0.44     c0.26,0.16,0.52,0.3,0.78,0.46c0.24,0.14,0.48,0.28,0.72,0.41c0.27,0.15,0.54,0.29,0.81,0.43c0.24,0.13,0.48,0.26,0.73,0.38     c0.28,0.14,0.57,0.28,0.85,0.41c0.24,0.11,0.48,0.23,0.72,0.34c0.3,0.14,0.6,0.27,0.91,0.4c0.23,0.1,0.47,0.21,0.71,0.3     c0.04,0.01,0.07,0.03,0.11,0.05c0,0.07,0.01,0.15,0.01,0.22c0.01,0.32,0.02,0.64,0.03,0.96c0.01,0.34,0.03,0.69,0.04,1.03     c0.02,0.32,0.04,0.63,0.06,0.95c0.02,0.34,0.04,0.69,0.07,1.03c0.03,0.31,0.06,0.63,0.08,0.94c0.03,0.34,0.06,0.69,0.1,1.03     c0.03,0.31,0.07,0.62,0.11,0.93c0.04,0.34,0.08,0.69,0.13,1.03c0.04,0.31,0.09,0.61,0.13,0.92c0.05,0.34,0.1,0.68,0.16,1.03     c0.05,0.3,0.1,0.61,0.16,0.91c0.06,0.34,0.12,0.68,0.19,1.02c0.06,0.3,0.12,0.6,0.18,0.9c0.07,0.34,0.14,0.68,0.22,1.02     c0.07,0.3,0.13,0.59,0.2,0.88c0.08,0.34,0.16,0.68,0.25,1.02c0.07,0.29,0.15,0.58,0.23,0.87c0.09,0.34,0.18,0.67,0.27,1.01     c0.08,0.29,0.16,0.58,0.25,0.87c0.1,0.34,0.2,0.67,0.3,1c0.09,0.29,0.18,0.57,0.27,0.85c0.11,0.33,0.22,0.66,0.33,1     c0.1,0.28,0.19,0.56,0.29,0.84c0.12,0.33,0.24,0.66,0.36,0.99c0.1,0.28,0.21,0.55,0.31,0.83c0.13,0.33,0.26,0.66,0.39,0.98     c0.11,0.27,0.22,0.55,0.33,0.82c0.14,0.33,0.27,0.65,0.41,0.97c0.12,0.27,0.24,0.54,0.36,0.81c0.14,0.32,0.29,0.64,0.44,0.96     c0.12,0.27,0.25,0.53,0.38,0.79c0.15,0.32,0.31,0.64,0.47,0.95c0.13,0.26,0.26,0.52,0.4,0.78c0.16,0.32,0.33,0.63,0.5,0.94     c0.14,0.26,0.28,0.51,0.42,0.77c0.17,0.31,0.35,0.62,0.53,0.93c0.14,0.25,0.29,0.51,0.44,0.76c0.18,0.31,0.37,0.61,0.55,0.92     c0.15,0.25,0.3,0.5,0.46,0.74c0.19,0.3,0.39,0.61,0.58,0.91c0.16,0.24,0.31,0.48,0.47,0.72c0.2,0.3,0.4,0.6,0.61,0.9     c0.16,0.24,0.33,0.48,0.49,0.71c0.21,0.3,0.42,0.59,0.64,0.88c0.17,0.23,0.34,0.47,0.51,0.7c0.22,0.29,0.44,0.58,0.67,0.87     c0.17,0.23,0.35,0.45,0.52,0.68c0.23,0.29,0.46,0.57,0.69,0.86c0.18,0.22,0.36,0.44,0.54,0.66c0.24,0.28,0.48,0.56,0.72,0.84     c0.19,0.22,0.37,0.43,0.56,0.64c0.25,0.28,0.5,0.56,0.76,0.83c0.19,0.21,0.38,0.42,0.57,0.62c0.26,0.28,0.53,0.55,0.79,0.83     c0.19,0.2,0.38,0.4,0.57,0.59c0.27,0.28,0.56,0.55,0.84,0.82c0.19,0.19,0.38,0.38,0.57,0.56c0.3,0.28,0.6,0.56,0.9,0.84     c0.18,0.17,0.37,0.34,0.55,0.51c0.33,0.3,0.67,0.6,1.01,0.9c0.16,0.14,0.32,0.28,0.48,0.42c0.5,0.43,1.02,0.86,1.53,1.28     c5.4,4.4,11.42,7.97,17.87,10.61c0.31,0.13,0.63,0.19,0.95,0.19c0.32,0,0.65-0.06,0.96-0.19c6.43-2.64,12.44-6.2,17.85-10.61     c0.52-0.42,1.03-0.85,1.53-1.28c0.17-0.15,0.33-0.3,0.5-0.44c0.33-0.29,0.66-0.58,0.99-0.87c0.2-0.18,0.4-0.37,0.6-0.56     c0.28-0.26,0.57-0.52,0.85-0.79c0.21-0.2,0.42-0.41,0.63-0.62c0.26-0.26,0.52-0.51,0.78-0.77c0.21-0.21,0.42-0.43,0.63-0.65     c0.25-0.26,0.5-0.51,0.74-0.77c0.21-0.22,0.41-0.45,0.62-0.68c0.24-0.26,0.47-0.51,0.7-0.77c0.21-0.23,0.41-0.47,0.61-0.7     c0.22-0.26,0.45-0.52,0.67-0.78c0.2-0.24,0.4-0.48,0.59-0.72c0.21-0.26,0.43-0.53,0.64-0.79c0.19-0.25,0.38-0.49,0.58-0.74     c0.21-0.27,0.41-0.53,0.61-0.8c0.19-0.25,0.37-0.51,0.56-0.76c0.2-0.27,0.4-0.54,0.59-0.81c0.18-0.26,0.36-0.52,0.54-0.78     c0.19-0.28,0.38-0.55,0.56-0.83c0.17-0.26,0.35-0.53,0.52-0.79c0.18-0.28,0.36-0.56,0.54-0.84c0.17-0.27,0.33-0.54,0.5-0.81     c0.17-0.28,0.34-0.57,0.51-0.85c0.16-0.27,0.32-0.55,0.47-0.82c0.16-0.29,0.33-0.57,0.49-0.86c0.15-0.28,0.3-0.55,0.45-0.83     c0.16-0.29,0.31-0.58,0.46-0.88c0.15-0.28,0.29-0.56,0.43-0.84c0.15-0.3,0.3-0.59,0.44-0.89c0.14-0.28,0.27-0.57,0.4-0.85     c0.14-0.3,0.28-0.6,0.42-0.9c0.13-0.29,0.26-0.58,0.38-0.86c0.13-0.3,0.26-0.61,0.39-0.91c0.12-0.29,0.24-0.58,0.36-0.88     c0.12-0.31,0.24-0.61,0.36-0.92c0.11-0.29,0.23-0.59,0.33-0.89c0.11-0.31,0.23-0.62,0.34-0.93c0.11-0.3,0.21-0.6,0.31-0.89     c0.11-0.31,0.21-0.63,0.31-0.95c0.1-0.3,0.19-0.6,0.29-0.9c0.1-0.32,0.19-0.64,0.29-0.96c0.09-0.3,0.18-0.6,0.26-0.91     c0.09-0.32,0.18-0.65,0.26-0.97c0.08-0.3,0.16-0.61,0.24-0.91c0.08-0.33,0.16-0.65,0.24-0.98c0.07-0.31,0.14-0.61,0.21-0.92     c0.07-0.33,0.14-0.66,0.21-0.99c0.06-0.31,0.13-0.62,0.19-0.93c0.06-0.33,0.12-0.67,0.18-1c0.05-0.31,0.11-0.62,0.16-0.93     c0.06-0.34,0.11-0.67,0.16-1.01c0.05-0.31,0.09-0.62,0.14-0.93c0.05-0.34,0.09-0.68,0.13-1.02c0.04-0.31,0.08-0.62,0.11-0.94     c0.04-0.34,0.07-0.69,0.1-1.03c0.03-0.31,0.06-0.62,0.08-0.94c0.03-0.35,0.05-0.69,0.07-1.04c0.02-0.31,0.04-0.62,0.06-0.93     c0.02-0.35,0.03-0.7,0.04-1.05c0.01-0.31,0.03-0.62,0.03-0.93c0-0.07,0.01-0.15,0.01-0.22c1.68-0.69,3.3-1.47,4.86-2.33     c0.04-0.02,0.07-0.04,0.11-0.06c0.47-0.26,0.94-0.53,1.4-0.81c0.07-0.04,0.13-0.08,0.2-0.13c0.43-0.26,0.85-0.53,1.27-0.8     c0.09-0.06,0.17-0.12,0.26-0.17c0.4-0.26,0.79-0.53,1.17-0.81c0.1-0.07,0.19-0.14,0.29-0.21c0.37-0.27,0.74-0.54,1.1-0.82     c0.1-0.08,0.21-0.16,0.31-0.24c0.35-0.27,0.7-0.55,1.04-0.84c0.11-0.09,0.21-0.18,0.32-0.27c0.33-0.28,0.66-0.57,0.98-0.86     c0.11-0.1,0.22-0.2,0.33-0.3c0.32-0.29,0.63-0.58,0.94-0.88c0.11-0.1,0.21-0.21,0.32-0.31c0.3-0.3,0.6-0.6,0.89-0.91     c0.11-0.11,0.21-0.22,0.32-0.33c0.29-0.31,0.57-0.62,0.85-0.93c0.1-0.11,0.2-0.23,0.31-0.35c0.28-0.32,0.55-0.64,0.82-0.96     c0.1-0.12,0.19-0.24,0.29-0.35c0.27-0.33,0.53-0.66,0.79-1c0.09-0.12,0.18-0.24,0.27-0.35c0.26-0.34,0.51-0.69,0.76-1.04     c0.08-0.12,0.17-0.23,0.25-0.35c0.25-0.36,0.49-0.72,0.73-1.08c0.07-0.11,0.15-0.23,0.22-0.34c0.24-0.38,0.48-0.76,0.71-1.14     c0.06-0.11,0.13-0.21,0.19-0.32c0.24-0.4,0.47-0.81,0.69-1.22c0.05-0.09,0.1-0.18,0.15-0.28c0.24-0.43,0.46-0.87,0.68-1.31     c0.04-0.07,0.07-0.14,0.11-0.21c0.24-0.48,0.47-0.97,0.69-1.46c0.01-0.03,0.03-0.06,0.04-0.09c1.19-2.65,2.14-5.42,2.82-8.27     c0-0.01,0.01-0.03,0.01-0.04c0.13-0.55,0.25-1.1,0.36-1.65c0.02-0.09,0.03-0.17,0.05-0.26c0.09-0.48,0.18-0.97,0.26-1.46     c0.02-0.13,0.04-0.25,0.06-0.38c0.07-0.45,0.13-0.9,0.19-1.35c0.02-0.15,0.03-0.3,0.05-0.46c0.05-0.43,0.09-0.86,0.13-1.29     c0.01-0.17,0.02-0.34,0.04-0.52c0.03-0.41,0.06-0.83,0.07-1.25c0.01-0.19,0.01-0.37,0.02-0.56c0.01-0.27,0.02-0.54,0.03-0.82     l13.25-6.21l0.19-0.09c0.34-0.15,0.64-0.29,0.91-0.43l0.44-0.21c0.01,0,0.01-0.01,0.02-0.01c0.02-0.01,0.03-0.02,0.05-0.02     c0.9-0.45,1.79-0.93,2.71-1.46c6.07-3.53,11.32-8.49,15.17-14.35c4.91-7.43,7.51-16.09,7.51-25.05V5.17     C237.29,3.78,236.16,2.65,234.77,2.65z M142.85,158.73c0-2.06,0.16-4.12,0.47-6.14c2.46,0.4,4.98,0.61,7.5,0.61     c4.22,0,8.36-0.57,12.37-1.68c-0.84,16.98-8.09,32.82-20.34,44.52L142.85,158.73C142.85,158.74,142.85,158.74,142.85,158.73z      M168.32,122.05c0-0.33,0.01-0.67,0.02-1.01l23.54-11.02c-1.09,14.79-10.17,27.95-23.56,34.25V122.05z M163.28,123.57v22.67     c-4.01,1.27-8.19,1.92-12.46,1.92c-2.16,0-4.31-0.18-6.43-0.51C147.28,137.5,154.03,128.86,163.28,123.57z M116.97,130.42     c-0.01-0.01-0.01-0.02-0.02-0.03c0,0,0,0,0-0.01c0,0,0,0,0,0c0,0,0,0,0,0c-0.45-0.71-0.91-1.42-1.37-2.13c0,0,0,0,0-0.01     c0,0,0,0,0-0.01c0,0,0,0,0,0c0,0,0-0.01-0.01-0.01c-5.09-7.84-10.36-15.76-15.45-23.41l-0.72-1.08c-0.25-0.38-0.5-0.75-0.75-1.14     c-0.24-0.37-0.49-0.75-0.74-1.14c-3.73-5.83-7.87-13.36-9.01-21.54c-0.21-1.5-0.32-3.01-0.32-4.5c0-0.91,0.04-1.82,0.11-2.72     c0.21-2.71,0.74-5.38,1.58-7.96c0,0,0,0,0,0c4.63-14.28,17.85-23.87,32.88-23.87c15.03,0,28.24,9.6,32.87,23.88     c1.12,3.42,1.68,7.01,1.68,10.67c0,1.49-0.11,3-0.32,4.51c-1.23,8.75-5.86,16.73-9.78,22.72c-0.24,0.37-0.48,0.74-0.73,1.1     c-6.26,9.4-11.47,17.23-16.77,25.42c0,0,0,0,0,0.01c0,0,0,0,0,0c-1.96,3.05-4.3,5.81-6.96,8.24     C120.81,135.33,118.75,132.99,116.97,130.42z M83.01,151.52c4.02,1.11,8.17,1.68,12.37,1.68c2.52,0,5.03-0.21,7.5-0.61     c0.31,2.02,0.47,4.08,0.47,6.15v37.3C91.11,184.34,83.85,168.5,83.01,151.52z M77.87,121.04c0.01,0.36,0.02,0.73,0.02,1.09v22.13     c-13.39-6.3-22.46-19.45-23.55-34.24L77.87,121.04z M101.81,147.66c-2.11,0.33-4.26,0.51-6.42,0.51c-4.26,0-8.44-0.65-12.46-1.92     v-22.68c0.4,0.23,0.81,0.47,1.26,0.75C92.76,129.63,99.07,138.05,101.81,147.66z M123.11,209.12c-5.27-2.25-10.2-5.19-14.71-8.72     v-41.65c0-2.43-0.19-4.85-0.58-7.23c5.45-1.51,10.53-4,15.12-7.41c0.06-0.04,0.12-0.09,0.18-0.14c0.06,0.05,0.13,0.1,0.19,0.15     c4.57,3.4,9.63,5.88,15.08,7.39c-0.38,2.38-0.58,4.81-0.58,7.24c0,0,0,0.01,0,0.01v41.64     C133.29,203.93,128.36,206.87,123.11,209.12z"></path>
		</g>
	</g>
	<g>
		<g>
			<path class="st1" d="M329.52,143.25c3.4,0,5.68,3.59,4.15,6.63c-4.59,9.15-13.43,15.4-27.27,15.4     c-22.36,0-33.64-16.88-33.64-37.91c0-20.21,11.29-38.49,34.01-38.49c14.47,0,23.51,6.74,27.51,16.03     c1.3,3.03-0.96,6.41-4.25,6.41h-0.61c-1.86,0-3.49-1.13-4.24-2.83c-2.98-6.65-8.4-11.39-18.8-11.39     c-16.49,0-23.23,14.92-23.23,29.97c0,14.6,6.4,29.98,23.66,29.98c10.09,0,15.22-5.03,18.22-11.13c0.79-1.61,2.38-2.67,4.18-2.67     H329.52z"></path>
			<path class="st1" d="M422.19,155.88h-35.92v-26.33h32.96c1.18,0,2.23-0.47,3-1.24c0.77-0.75,1.24-1.81,1.24-2.98     c0-2.33-1.91-4.22-4.24-4.22h-32.96V98.4h34.74c1.18,0,2.23-0.49,2.98-1.24c0.77-0.77,1.24-1.85,1.24-3     c0-2.33-1.89-4.22-4.22-4.22h-44.46v74.4h45.64c2.09,0,3.87-1.52,4.18-3.59C426.78,158.19,424.79,155.88,422.19,155.88z"></path>
			<path class="st1" d="M495.62,89.94h-29.23v69.53c0,2.68,2.19,4.87,4.87,4.87h0.1c2.68,0,4.87-2.19,4.87-4.87v-27.91h15.29     c13.41,0,16.41,4.6,16.41,15.21v1.58c0,2.25-0.02,4.36,0.02,6.31c0,0.49,0.02,0.97,0.04,1.44c0.02,1.28,0.08,2.45,0.2,3.53     c0,0.12,0,0.22,0.02,0.32c0,0.04,0.02,0.08,0.02,0.12c0.16,1.2,0.71,2.23,1.56,3c0.87,0.79,2.03,1.26,3.29,1.26     c2.72,0,4.87-2.23,4.87-4.91c0-0.1-0.02-0.22-0.02-0.32c-0.02-0.37-0.04-0.73-0.06-1.12c-0.1-2.72-0.04-5.74-0.04-8.38v-3.18     c0-0.65-0.02-1.28-0.04-1.89c-0.02-0.32-0.04-0.65-0.06-0.95c0-0.26-0.02-0.49-0.06-0.73c-0.02-0.3-0.04-0.61-0.08-0.89     c-0.08-0.75-0.18-1.46-0.32-2.13c-0.06-0.39-0.14-0.75-0.24-1.12c-0.08-0.34-0.18-0.71-0.26-1.03c-0.69-2.41-1.7-4.3-2.9-5.76     c-0.16-0.2-0.34-0.39-0.51-0.57c-0.18-0.2-0.37-0.39-0.55-0.57c-0.04-0.04-0.06-0.06-0.1-0.1c-1.83-1.72-4.02-2.74-6.29-3.35     c2.7-0.75,5.15-2.03,7.18-3.85c0.34-0.3,0.67-0.63,0.99-0.95c0.3-0.34,0.61-0.69,0.89-1.05c0.26-0.34,0.53-0.69,0.77-1.05     c0.02-0.02,0.04-0.04,0.04-0.08c0.24-0.37,0.47-0.75,0.69-1.16c0.02-0.04,0.04-0.08,0.06-0.12c0.22-0.41,0.43-0.83,0.61-1.28     c0.2-0.47,0.39-0.93,0.53-1.42c0.02-0.06,0.04-0.12,0.06-0.18c0.14-0.41,0.24-0.81,0.34-1.26c0.02-0.06,0.04-0.12,0.04-0.18     c0.12-0.47,0.22-0.95,0.28-1.46c0.02-0.04,0.02-0.06,0.02-0.1c0.08-0.49,0.14-0.99,0.18-1.5v-0.18c0.04-0.55,0.06-1.1,0.06-1.66     C519.17,98.24,510.97,89.94,495.62,89.94z M492.5,123.27h-16.27V98.24h17.38c10.14,0,15.33,4.48,15.33,12.39     C508.94,118.99,503.91,123.27,492.5,123.27z"></path>
			<path class="st1" d="M579.74,161.21l-23.73-64.86c-1.14-3.11,1.17-6.41,4.48-6.41h0.46c2.02,0,3.82,1.27,4.49,3.17l12.04,33.92     c3.85,10.92,7.7,21.92,9.35,28.72h0.22c1.57-6.09,5.82-17.58,9.74-28.36l12.56-34.31c0.69-1.88,2.48-3.13,4.48-3.13l0,0     c3.34,0,5.64,3.34,4.46,6.46l-24.53,64.86c-0.7,1.85-2.48,3.08-4.46,3.08h-5.08C582.21,164.34,580.42,163.09,579.74,161.21z"></path>
			<path class="st1" d="M722.03,126.72c0,20.46-11.53,38.69-35.09,38.69c-22.01,0-34.29-16.93-34.29-38.27     c0-21.29,12.54-38.27,35.15-38.27C708.86,88.88,722.03,104.6,722.03,126.72z M663.04,126.82c0,16.08,8.27,30.17,24.34,30.17     c17.36,0,24.27-14.24,24.27-30.13c0-16.03-7.83-29.58-24.24-29.58C670.46,97.29,663.04,110.95,663.04,126.82z"></path>
		</g>
		<path class="st1" d="M495.62,89.94h-24.36c-2.68,0-4.87,2.19-4.87,4.87v64.66c0,2.68,2.19,4.87,4.87,4.87h0.1    c2.68,0,4.87-2.19,4.87-4.87v-27.91h15.29c13.41,0,16.41,4.6,16.41,15.21v1.58c0,2.25-0.02,4.36,0.02,6.31    c0,0.49,0.02,0.97,0.04,1.44c0.02,1.28,0.08,2.45,0.2,3.53c0,0.12,0,0.22,0.02,0.32c0,0.04,0.02,0.08,0.02,0.12    c0.16,1.2,0.71,2.23,1.56,3c0.87,0.79,2.03,1.26,3.29,1.26c2.72,0,4.87-2.23,4.87-4.91c0-0.1-0.02-0.22-0.02-0.32    c-0.02-0.37-0.04-0.73-0.06-1.12c-0.1-2.72-0.04-5.74-0.04-8.38v-3.18c0-0.65-0.02-1.28-0.04-1.89c-0.02-0.32-0.04-0.65-0.06-0.95    c0-0.26-0.02-0.49-0.06-0.73c-0.02-0.3-0.04-0.61-0.08-0.89c-0.08-0.75-0.18-1.46-0.32-2.13c-0.06-0.39-0.14-0.75-0.24-1.12    c-0.08-0.34-0.18-0.71-0.26-1.03c-0.69-2.41-1.7-4.3-2.9-5.76c-0.16-0.2-0.34-0.39-0.51-0.57c-0.18-0.2-0.37-0.39-0.55-0.57    c-0.04-0.04-0.06-0.06-0.1-0.1c-1.83-1.72-4.02-2.74-6.29-3.35c2.7-0.75,5.15-2.03,7.18-3.85c0.34-0.3,0.67-0.63,0.99-0.95    c0.3-0.34,0.61-0.69,0.89-1.05c0.26-0.34,0.53-0.69,0.77-1.05c0.02-0.02,0.04-0.04,0.04-0.08c0.24-0.37,0.47-0.75,0.69-1.16    c0.02-0.04,0.04-0.08,0.06-0.12c0.22-0.41,0.43-0.83,0.61-1.28c0.2-0.47,0.39-0.93,0.53-1.42c0.02-0.06,0.04-0.12,0.06-0.18    c0.14-0.41,0.24-0.81,0.34-1.26c0.02-0.06,0.04-0.12,0.04-0.18c0.12-0.47,0.22-0.95,0.28-1.46c0.02-0.04,0.02-0.06,0.02-0.1    c0.08-0.49,0.14-0.99,0.18-1.5v-0.18c0.04-0.55,0.06-1.1,0.06-1.66C519.17,98.24,510.97,89.94,495.62,89.94z M492.5,123.27h-16.27    V98.24h17.38c10.14,0,15.33,4.48,15.33,12.39C508.94,118.99,503.91,123.27,492.5,123.27z"></path>
		<path class="st1" d="M422.19,155.88h-35.92v-26.33h32.96c1.18,0,2.23-0.47,3-1.24c0.77-0.75,1.24-1.81,1.24-2.98    c0-2.33-1.91-4.22-4.24-4.22h-32.96V98.4h34.74c1.18,0,2.23-0.49,2.98-1.24c0.77-0.77,1.24-1.85,1.24-3    c0-2.33-1.89-4.22-4.22-4.22h-40.24c-2.33,0-4.22,1.89-4.22,4.22v65.96c0,2.33,1.89,4.22,4.22,4.22h41.42    c2.09,0,3.87-1.52,4.18-3.59C426.78,158.19,424.79,155.88,422.19,155.88z"></path>
	</g>
</g>
</svg>
