<svg width="188" height="28" viewBox="0 0 188 28" fill="none" xmlns="http://www.w3.org/2000/svg">
<path d="M27.8861 8.72409C27.8861 8.72409 27.8858 8.67514 27.8843 8.60312C27.7829 3.96267 23.8524 0.241143 19.0718 0.0110261C18.9476 0.00504534 18.7654 0 18.5949 0C15.2024 0 12.238 1.77342 10.6227 4.40815C9.80536 5.69243 9.32629 7.16623 9.32629 8.70587V8.98951C9.32629 13.5782 12.8775 17.3611 17.4632 17.9087C17.8445 17.962 18.2289 17.9893 18.6138 17.9904H20.2501V27.3338H27.9145C33.0535 27.3338 37.2194 23.1679 37.2194 18.029C37.2194 12.89 33.0251 8.72409 27.8861 8.72409Z" fill="#00AEFC"/>
<path d="M6.07075 9.30249C2.52638 10.6167 0 14.0275 0 18.0291C0 23.168 4.16597 27.3339 9.30487 27.3339H16.9775V21.157C11.0169 20.3778 6.35742 15.4024 6.07075 9.30249Z" fill="#152ABE"/>
<path d="M62.485 16.4776L65.8662 17.1691C65.4565 19.3205 64.4832 21.0111 62.9207 22.2148C61.3582 23.4185 59.5396 24.0333 57.414 24.0333C54.8781 24.0333 52.7526 23.1625 51.0106 21.4464C49.2694 19.7305 48.3985 17.6046 48.3981 15.0689C48.3981 12.5589 49.2694 10.433 51.0106 8.71707C52.7526 6.9753 54.8781 6.10449 57.414 6.10449C59.5142 6.10449 61.3329 6.69359 62.8947 7.89747C64.4572 9.07566 65.4305 10.6892 65.8662 12.7127L62.485 13.6602C61.8706 10.8173 59.8985 9.38289 57.414 9.38289C55.8515 9.38289 54.5452 9.92079 53.4951 11.0221C52.445 12.0979 51.9073 13.4552 51.9073 15.0689C51.9073 16.6826 52.445 18.0399 53.4951 19.1414C54.5712 20.2425 55.8769 20.7806 57.414 20.7806C59.9498 20.7806 61.8706 19.3462 62.485 16.4776Z" fill="#1B263D"/>
<path d="M71.4242 23.6488H68.0431V5.20801H71.4242V23.6488Z" fill="#1B263D"/>
<path fill-rule="evenodd" clip-rule="evenodd" d="M76.7001 18.168H86.4326L86.4326 17.0155C86.3559 15.0946 85.6901 13.5323 84.4351 12.3284C83.1796 11.099 81.6945 10.4844 79.9525 10.4844C78.0832 10.4844 76.5207 11.1245 75.2397 12.4051C73.9848 13.6602 73.3444 15.2994 73.3444 17.2717C73.3444 19.2438 73.9848 20.883 75.2397 22.1379C76.4953 23.393 78.0571 24.0333 79.9012 24.0333C82.7699 24.0333 84.9982 22.6758 86.0997 20.0891L83.0775 19.4486C82.4117 20.5756 81.3616 21.1392 79.9012 21.1392C78.3393 21.1392 77.033 19.9865 76.7001 18.168ZM82.9747 15.7861H76.8022C77.1865 14.2748 78.5442 13.4297 79.9525 13.4297C81.3869 13.4297 82.5651 14.2238 82.9747 15.7861Z" fill="#1B263D"/>
<path fill-rule="evenodd" clip-rule="evenodd" d="M101.211 23.649V10.8685H97.8302V11.8931C96.7034 10.9454 95.2944 10.4844 93.6045 10.4844C91.9393 10.4844 90.4542 11.1245 89.1986 12.4308C87.9437 13.7114 87.3292 15.3249 87.3292 17.2717C87.3292 19.2181 87.9437 20.8316 89.1986 22.1122C90.4542 23.393 91.9139 24.0333 93.6045 24.0333C95.2695 24.0333 96.6781 23.5723 97.8302 22.6503V23.649H101.211ZM97.8302 17.2717C97.8302 18.3985 97.472 19.3205 96.7288 20.0377C95.9862 20.7292 95.1409 21.0878 94.1936 21.0878C92.1187 21.0878 90.6076 19.6024 90.6076 17.2717C90.6076 14.941 92.1187 13.4297 94.1936 13.4297C95.1412 13.4298 95.9862 13.7883 96.7288 14.5053C97.472 15.2225 97.8302 16.1445 97.8302 17.2717Z" fill="#1B263D"/>
<path d="M115.272 11.9955C116.22 12.9942 116.681 14.2748 116.681 15.863V23.649H113.3V16.5802C113.3 14.7615 112.275 13.5833 110.714 13.5833C108.587 13.5833 107.537 15.0434 107.537 17.9887V23.649H104.157V10.8685H107.537V12.021C108.562 10.9964 109.894 10.4844 111.558 10.4844C113.095 10.4844 114.325 10.9964 115.272 11.9955Z" fill="#1B263D"/>
<path d="M132.612 16.4776L135.993 17.1691C135.583 19.3205 134.61 21.0111 133.047 22.2148C131.486 23.4185 129.667 24.0333 127.541 24.0333C125.005 24.0333 122.879 23.1625 121.138 21.4464C119.396 19.7305 118.525 17.6046 118.525 15.0689C118.525 12.5589 119.396 10.433 121.138 8.71707C122.879 6.9753 125.005 6.10449 127.541 6.10449C129.641 6.10449 131.46 6.69359 133.022 7.89747C134.584 9.07566 135.558 10.6892 135.993 12.7127L132.612 13.6602C131.997 10.8173 130.025 9.38289 127.541 9.38289C125.979 9.38289 124.673 9.92079 123.622 11.0221C122.572 12.0979 122.034 13.4552 122.034 15.0689C122.034 16.6826 122.572 18.0399 123.622 19.1414C124.698 20.2425 126.004 20.7806 127.541 20.7806C130.077 20.7806 131.997 19.3462 132.612 16.4776Z" fill="#1B263D"/>
<path d="M141.551 23.6488H138.17V5.20801H141.551V23.6488Z" fill="#1B263D"/>
<path fill-rule="evenodd" clip-rule="evenodd" d="M157.328 17.2716C157.328 15.2993 156.662 13.7113 155.304 12.4564C153.973 11.2013 152.36 10.561 150.438 10.561C148.492 10.561 146.853 11.2013 145.495 12.4564C144.138 13.7113 143.472 15.2993 143.472 17.2716C143.472 19.2437 144.138 20.8572 145.495 22.1122C146.853 23.3674 148.492 23.982 150.438 23.982C152.36 23.982 153.973 23.3674 155.304 22.1122C156.662 20.8572 157.328 19.2437 157.328 17.2716ZM154.049 17.2716C154.049 18.3984 153.691 19.3204 152.949 20.0376C152.205 20.7291 151.386 21.0877 150.438 21.0877C149.465 21.0877 148.594 20.7291 147.852 20.0376C147.108 19.3461 146.75 18.4241 146.75 17.2716C146.75 16.1189 147.108 15.1969 147.852 14.5053C148.594 13.8138 149.465 13.4552 150.438 13.4552C151.386 13.4552 152.205 13.8138 152.949 14.5309C153.691 15.2224 154.049 16.1445 154.049 17.2716Z" fill="#1B263D"/>
<path d="M171.441 10.8684V23.6489H168.06V22.4964C167.036 23.5208 165.704 24.0332 164.039 24.0332C162.502 24.0332 161.273 23.5465 160.325 22.5478C159.377 21.5487 158.916 20.2424 158.916 18.6546V10.8684H162.297V17.9374C162.297 19.7559 163.321 20.9341 164.884 20.9341C167.01 20.9341 168.06 19.4742 168.06 16.5287V10.8684H171.441Z" fill="#1B263D"/>
<path fill-rule="evenodd" clip-rule="evenodd" d="M187.244 23.6488V5.20801H183.863V11.8929C182.736 10.9452 181.327 10.4842 179.637 10.4842C177.972 10.4842 176.487 11.1243 175.232 12.4306C173.977 13.7112 173.362 15.3248 173.362 17.2715C173.362 19.2179 173.977 20.8314 175.232 22.1121C176.487 23.3928 177.946 24.0331 179.637 24.0331C181.302 24.0331 182.71 23.5721 183.863 22.6501V23.6488H187.244ZM183.863 17.2715C183.863 18.3983 183.504 19.3203 182.762 20.0375C182.019 20.729 181.174 21.0876 180.226 21.0876C178.152 21.0876 176.64 19.6022 176.64 17.2715C176.64 14.9408 178.152 13.4295 180.226 13.4295C181.174 13.4296 182.019 13.7881 182.762 14.5052C183.504 15.2223 183.863 16.1444 183.863 17.2715Z" fill="#1B263D"/>
</svg>
