<?xml version="1.0" encoding="iso-8859-1"?>
<!-- Generator: Adobe Illustrator 23.0.2, SVG Export Plug-In . SVG Version: 6.00 Build 0)  -->
<svg version="1.1" id="Layer_1" xmlns="http://www.w3.org/2000/svg" xmlns:xlink="http://www.w3.org/1999/xlink" x="0px" y="0px"
	 viewBox="0 0 1771 556" style="enable-background:new 0 0 1771 556;" xml:space="preserve">
<g>
	<g>
		<path d="M649.563,209.766c-34.76,0-63.084,23.816-63.084,68.236c0,39.91,27.68,68.236,68.234,68.236
			c11.588,0,23.819-2.897,35.085-8.691c3.217-1.608,6.436-2.253,9.333-2.253c5.15,0,9.977,2.253,13.197,7.722l7.725,12.233
			c1.286,2.253,2.253,5.15,2.253,8.047c0,4.825-2.253,9.975-7.08,13.516c-19.635,13.522-39.59,17.702-65.339,17.702
			c-69.845,0-118.124-46.348-118.124-116.513c0-64.695,40.232-116.518,117.802-116.518c22.852,0,37.979,4.186,54.718,12.558
			c4.828,2.253,7.725,7.403,7.725,12.552c0,2.572-0.644,4.825-1.608,7.078l-7.083,14.805c-2.575,5.794-8.044,8.691-13.839,8.691
			c-2.575,0-5.15-0.644-7.725-1.608C672.737,212.019,662.76,209.766,649.563,209.766z"/>
		<path d="M828.529,311.799H809.54v64.051c0,8.047-6.761,14.805-14.805,14.805h-21.888c-8.047,0-14.805-6.758-14.805-14.805V180.156
			c0-8.047,6.758-14.805,14.805-14.805c21.888-0.325,56.97-0.644,61.798-0.644c61.476,0,83.364,30.574,83.364,72.098
			c0,41.843-25.749,58.901-37.982,65.015l49.568,66.948c1.931,2.578,2.897,5.475,2.897,8.047c0,7.083-5.794,13.841-14.161,13.841
			h-23.819c-6.761,0-13.841-3.541-17.702-9.336L828.529,311.799z M828.206,263.517c19.635,0,35.085-7.078,35.085-26.069
			c0-12.552-6.439-24.466-31.221-24.466c-7.725,0-11.908,0.325-22.53,0.644v49.89H828.206z"/>
		<path d="M1014.25,343.342l-14.486,36.693c-2.572,6.433-8.689,10.619-15.449,10.619h-19.633c-8.047,0-13.839-6.758-13.839-13.841
			c0-1.928,0.32-3.861,0.964-5.469l81.111-195.374c2.895-6.439,9.011-10.619,15.772-10.619h23.494
			c6.761,0,12.875,4.181,15.772,10.619l81.108,195.374c0.644,1.608,0.969,3.542,0.969,5.469c0,7.083-5.794,13.841-13.841,13.841
			h-22.852c-6.761,0-12.875-4.186-15.449-10.619l-14.485-36.693H1014.25z M1033.56,295.06h50.534l-25.105-63.731L1033.56,295.06z"/>
	</g>
	<g>
		<path d="M1265.297,314.051l50.209-138.081c2.253-6.114,8.372-10.619,15.13-10.619h19.63c8.047,0,14.166,6.758,14.166,14.161
			c0,1.933-0.325,3.541-0.969,5.469l-75.959,195.054c-2.572,6.433-8.691,10.619-15.449,10.619h-17.058
			c-6.758,0-12.872-4.186-15.449-10.619l-78.211-195.054c-0.644-1.608-0.969-3.536-0.969-5.15c0-7.722,6.119-14.48,14.166-14.48
			h22.852c6.758,0,12.872,4.181,15.449,10.619L1265.297,314.051z"/>
		<path d="M1533.413,375.849c0,8.047-6.758,14.805-14.805,14.805h-107.182c-8.042,0-14.805-6.758-14.805-14.805V180.156
			c0-8.047,6.763-14.805,14.805-14.805h103.966c8.047,0,14.805,6.758,14.805,14.805v18.666c0,8.047-6.758,14.805-14.805,14.805
			h-67.272v39.59h57.617c8.047,0,14.805,6.758,14.805,14.805v18.671c0,8.047-6.758,14.805-14.805,14.805h-57.617v40.874h70.489
			c8.047,0,14.805,6.763,14.805,14.805V375.849z"/>
	</g>
	<g>
		<path d="M1652.204,311.799h-18.991v64.051c0,8.047-6.758,14.805-14.805,14.805h-21.883c-8.047,0-14.81-6.758-14.81-14.805V180.156
			c0-8.047,6.763-14.805,14.81-14.805c21.883-0.325,56.968-0.644,61.798-0.644c61.473,0,83.361,30.574,83.361,72.098
			c0,41.843-25.749,58.901-37.982,65.015l49.57,66.948c1.928,2.578,2.892,5.475,2.892,8.047c0,7.083-5.789,13.841-14.161,13.841
			h-23.816c-6.758,0-13.841-3.541-17.702-9.336L1652.204,311.799z M1651.885,263.517c19.63,0,35.08-7.078,35.08-26.069
			c0-12.552-6.433-24.466-31.219-24.466c-7.722,0-11.908,0.325-22.532,0.644v49.89H1651.885z"/>
	</g>
</g>
<path style="fill:#FDB614;" d="M398.178,372.992c-36.783,66.753-100.613,108.482-179.867,108.482
	c-112.417,0-203.475-91.058-203.475-203.475c0-111.293,91.058-203.475,203.475-203.475c77.006,0,145.84,45.471,176.495,103.986
	c20.287,40.141-55.535,76.933-75.319,38.222c-17.315-32.152-57.895-57.895-101.175-57.895c-65.764,0-119.162,53.96-119.162,119.162
	c0,65.764,53.398,119.162,119.162,119.162c44.967,0,84.313-24.17,104.548-62.392C343.032,297.629,417.465,337.846,398.178,372.992
	L398.178,372.992z"/>
<path style="fill-rule:evenodd;clip-rule:evenodd;fill:#F16122;" d="M314.641,457.89c-19.719,9.646-44.913,22.904-96.331,23.604
	c-112.417,0-203.475-91.058-203.475-203.475c0-111.293,91.078-205.716,203.475-203.475c35.586,0.71,63.554,7.903,97.584,25.036
	c50.65,31.37,1.156,99.556-45.034,71.909c-23.967-9.976-18.76-8.526-52.55-12.632c-65.332-7.94-119.162,53.96-119.162,119.162
	c0,65.764,53.398,119.162,119.162,119.162c26.149-1.887,30.949-2.298,52.55-11.788C324.332,363.475,363.535,436.864,314.641,457.89
	L314.641,457.89z"/>
<path style="fill-rule:evenodd;clip-rule:evenodd;fill:#EF3924;" d="M218.31,481.475c-112.417,0-203.475-91.058-203.475-203.475
	c0-111.293,91.058-203.475,203.475-203.475c63.423,1.572,49.272,88.289,0,84.313c-65.764,0-119.162,53.96-119.162,119.162
	c0,65.764,53.398,119.162,119.162,119.162C266.156,396.258,283.193,471.691,218.31,481.475L218.31,481.475z"/>
</svg>
