<svg xmlns="http://www.w3.org/2000/svg" width="180" height="40" viewBox="0 0 180 40">
    <defs>
        <linearGradient id="a" x1="0%" x2="100.038%" y1="50.016%" y2="50.016%">
            <stop offset="0%" stop-color="#8F74FF"/>
            <stop offset="100%" stop-color="#5439C4"/>
        </linearGradient>
        <linearGradient id="b" x1="100%" x2="0%" y1="50.016%" y2="50.016%">
            <stop offset="0%" stop-color="#6D51E1"/>
            <stop offset="100%" stop-color="#4EA3FF"/>
        </linearGradient>
        <linearGradient id="c" x1="0%" x2="100.038%" y1="50.016%" y2="50.016%">
            <stop offset="0%" stop-color="#6D51E1"/>
            <stop offset="100%" stop-color="#4EA3FF"/>
        </linearGradient>
        <linearGradient id="d" x1="50.038%" x2="50.038%" y1="100%" y2="0%">
            <stop offset="0%" stop-color="#6D51E1"/>
            <stop offset="100%" stop-color="#4EA3FF"/>
        </linearGradient>
        <linearGradient id="e" x1="99.81%" x2="0%" y1="50.016%" y2="50.016%">
            <stop offset="0%" stop-color="#8F74FF"/>
            <stop offset="100%" stop-color="#5439C4"/>
        </linearGradient>
        <linearGradient id="f" x1="58.832%" x2="-6.065%" y1="14.173%" y2="94.567%">
            <stop offset="0%" stop-color="#6D51E1"/>
            <stop offset="100%" stop-color="#4EA3FF"/>
        </linearGradient>
    </defs>
    <g fill="none" fill-rule="evenodd">
        <path fill="url(#a)" d="M23.971.988A7.454 7.454 0 0 0 20.551 0v9.569a7.438 7.438 0 0 0 3.71 6.447l13.46 7.788a7.392 7.392 0 0 0 3.413.988v-9.568a7.462 7.462 0 0 0-3.71-6.448L23.971.988z"/>
        <path fill="url(#b)" d="M17.217.988A7.392 7.392 0 0 1 20.59 0v9.569a7.446 7.446 0 0 1-3.71 6.447L3.42 23.804c-1.044.6-2.217.94-3.42.988v-9.568a7.454 7.454 0 0 1 3.717-6.448l13.5-7.788z"/>
        <path fill="url(#c)" d="M23.971 38.635a7.36 7.36 0 0 1-3.42.989v-9.57a7.454 7.454 0 0 1 3.71-6.446l13.46-7.788a7.392 7.392 0 0 1 3.413-.989V24.4a7.446 7.446 0 0 1-3.71 6.447l-13.453 7.788z"/>
        <path fill="url(#d)" d="M37.683 15.82l-6.903 3.992 6.903 3.992a7.368 7.368 0 0 0 3.404.988v-9.568-.393a7.462 7.462 0 0 0-3.404.989z"/>
        <path fill="url(#e)" d="M17.217 38.635a7.306 7.306 0 0 0 3.413.989v-9.57a7.462 7.462 0 0 0-3.71-6.446L3.42 15.82A7.454 7.454 0 0 0 0 14.83V24.4a7.438 7.438 0 0 0 3.717 6.447l13.5 7.788z"/>
        <path fill="url(#f)" d="M3.428 15.82l6.895 3.992-6.895 3.992A7.391 7.391 0 0 1 0 24.792v-9.568-.393a7.493 7.493 0 0 1 3.428.989z"/>
        <path fill="#414042" fill-rule="nonzero" d="M56.176 15.82a4.887 4.887 0 0 1 3.999 1.945v-6.926h3.553v17.592H60.26v-1.466a5.005 5.005 0 0 1-4.046 1.945c-3.358 0-5.745-2.706-5.745-6.55 0-3.842 2.348-6.54 5.706-6.54zM54 22.36a3.186 3.186 0 0 0 1.517 2.944c1.015.62 2.29.62 3.305 0a3.186 3.186 0 0 0 1.517-2.943 3.186 3.186 0 0 0-1.517-2.943 3.171 3.171 0 0 0-3.305 0A3.186 3.186 0 0 0 54 22.36zM64.831 12.667a2.063 2.063 0 0 1 1.238-1.94 2.055 2.055 0 0 1 2.259.417c.598.586.783 1.477.467 2.254a2.058 2.058 0 0 1-1.905 1.284 1.938 1.938 0 0 1-1.476-.55 1.947 1.947 0 0 1-.583-1.465zm3.827 3.623v12.141h-3.545v-12.14h3.545z"/>
        <path fill="#414042" d="M70.051 28.431v-12.14h3.405v1.45a4.075 4.075 0 0 1 3.553-1.921 4.279 4.279 0 0 1 3.913 2.156 4.693 4.693 0 0 1 4.07-2.156c2.738 0 4.695 2.062 4.695 4.98v7.631h-3.6v-6.925a2.356 2.356 0 0 0-.58-1.763 2.346 2.346 0 0 0-1.674-.794 2.346 2.346 0 0 0-1.7.78 2.356 2.356 0 0 0-.593 1.777v6.925h-3.537v-6.925c0-1.569-.853-2.557-2.176-2.557-1.323 0-2.262 1.02-2.262 2.557v6.925h-3.514z"/>
        <path fill="#414042" fill-rule="nonzero" d="M97.294 15.82a6.183 6.183 0 0 1 4.705 1.791 6.211 6.211 0 0 1 1.822 4.703c.009.356-.007.712-.047 1.066h-9.485a3.133 3.133 0 0 0 3.075 2.824 2.935 2.935 0 0 0 2.818-1.828l3.193.455c-.595 2.353-3.13 4.102-6.105 4.102a6.347 6.347 0 0 1-4.789-1.85 6.376 6.376 0 0 1-1.863-4.793c0-3.82 2.77-6.47 6.676-6.47zm2.935 5.404a3 3 0 0 0-2.982-2.698 3 3 0 0 0-2.982 2.698h5.964z"/>
        <path fill="#414042" d="M108.493 16.29v1.64a4.591 4.591 0 0 1 3.858-2.11c2.724 0 4.563 2.11 4.563 5.027v7.584h-3.545V21.46c0-1.467-.853-2.51-2.246-2.51a2.54 2.54 0 0 0-1.83.785 2.552 2.552 0 0 0-.706 1.866v6.831h-3.545v-12.14h3.451zM123.652 28.957c-3.263 0-5.627-1.922-5.603-4.58h3.005c0 1.207 1.111 2.062 2.645 2.062 1.307 0 2.254-.612 2.254-1.42 0-1.019-1.377-1.301-2.84-1.45-2.7-.33-4.947-.785-4.947-3.718 0-2.353 2.246-4.078 5.204-4.078 3.24 0 5.588 1.749 5.588 4.196h-3.13c0-.996-1.065-1.687-2.481-1.687-1.088 0-1.964.573-1.988 1.38-.023.809 1.064 1.044 2.434 1.256 2.465.33 5.564.831 5.564 3.67-.007 2.541-2.324 4.369-5.705 4.369z"/>
        <path fill="#414042" fill-rule="nonzero" d="M130.54 12.667a2.063 2.063 0 0 1 1.237-1.94 2.055 2.055 0 0 1 2.258.417c.599.586.784 1.477.468 2.254a2.058 2.058 0 0 1-1.906 1.284 1.938 1.938 0 0 1-1.475-.55 1.947 1.947 0 0 1-.583-1.465zm3.834 3.623v12.141h-3.545v-12.14h3.545zM149.314 22.36c0 3.867-2.747 6.55-6.746 6.55-4 0-6.715-2.683-6.715-6.55 0-3.866 2.74-6.54 6.715-6.54 3.975 0 6.746 2.65 6.746 6.54zm-3.569 0a3.178 3.178 0 0 0-1.513-2.935 3.164 3.164 0 0 0-3.297 0 3.178 3.178 0 0 0-1.513 2.936 3.178 3.178 0 0 0 1.513 2.936 3.164 3.164 0 0 0 3.297 0 3.178 3.178 0 0 0 1.513-2.936z"/>
        <path fill="#414042" d="M153.963 16.29v1.64a4.591 4.591 0 0 1 3.858-2.11c2.716 0 4.562 2.11 4.562 5.027v7.584h-3.513V21.46c0-1.467-.853-2.51-2.254-2.51a2.54 2.54 0 0 0-1.826.788c-.476.5-.73 1.172-.702 1.863v6.831h-3.553v-12.14h3.428zM169.114 28.957c-3.264 0-5.635-1.922-5.611-4.58h3.005c0 1.207 1.119 2.062 2.653 2.062 1.299 0 2.246-.612 2.246-1.42 0-1.019-1.37-1.301-2.84-1.45-2.693-.33-4.94-.785-4.94-3.718 0-2.353 2.247-4.078 5.205-4.078 3.24 0 5.58 1.749 5.58 4.196h-3.13c0-.996-1.065-1.687-2.481-1.687-1.088 0-1.964.573-1.988 1.38-.023.809 1.064 1.044 2.434 1.256 2.465.33 5.564.831 5.564 3.67.008 2.541-2.316 4.369-5.697 4.369zM175.46 26.8a2.07 2.07 0 0 1 1.238-1.952 2.063 2.063 0 0 1 2.27.413c.602.588.789 1.483.472 2.263a2.066 2.066 0 0 1-1.913 1.292 1.954 1.954 0 0 1-1.475-.553 1.963 1.963 0 0 1-.591-1.463z"/>
    </g>
</svg>
