<svg width="126" height="48" viewBox="0 0 126 48" fill="none" xmlns="http://www.w3.org/2000/svg">
<path d="M28.5859 33.2157V26.7042C28.5859 24.7079 29.0689 23.2072 30.0356 22.2006C31.0022 21.1947 32.2832 20.6914 33.8806 20.6914H34.1326V23.0617H33.8806C31.9978 23.0617 31.0567 24.2761 31.0567 26.7042V33.2157H28.5859Z" fill="#231F20"/>
<path d="M47.6167 27.3027C47.6167 29.3321 47.1127 30.8582 46.104 31.881C45.0954 32.9038 43.7507 33.4155 42.0701 33.4155C40.3894 33.4155 39.0448 32.9038 38.0361 31.881C37.0274 30.8582 36.5234 29.3321 36.5234 27.3027V20.7412H38.9942V27.3027C38.9942 29.7977 40.0193 31.0452 42.0701 31.0452C44.1208 31.0452 45.1459 29.7977 45.1459 27.3027V20.7412H47.6167V27.3027Z" fill="#231F20"/>
<path d="M50.0156 26.9774V15.75H52.512V22.3368C53.5371 21.1393 54.8653 20.5406 56.4954 20.5406C58.2936 20.5406 59.8272 21.1686 61.0964 22.4245C62.3656 23.6804 63.0002 25.1981 63.0002 26.9774C63.0002 28.7568 62.3656 30.2751 61.0964 31.531C59.8272 32.7869 58.2936 33.4149 56.4954 33.4149C54.6973 33.4149 53.1676 32.7876 51.9069 31.531C50.6463 30.2751 50.0156 28.7574 50.0156 26.9774ZM56.4954 22.9109C55.3693 22.9109 54.4151 23.3064 53.6335 24.0961C52.8519 24.8864 52.4615 25.8468 52.4615 26.9774C52.4615 28.108 52.848 29.0899 53.6211 29.8718C54.3941 30.6537 55.3522 31.0446 56.4954 31.0446C57.6386 31.0446 58.6171 30.6537 59.3823 29.8718C60.1468 29.0899 60.5294 28.1256 60.5294 26.9774C60.5294 25.8293 60.1429 24.8656 59.3698 24.0831C58.5967 23.3012 57.6386 22.9103 56.4954 22.9103V22.9109Z" fill="#231F20"/>
<path d="M70.4187 23.1103H67.6959V27.3021C67.6959 29.5646 68.6035 30.7699 70.4187 30.9199V33.2902C68.8213 33.2233 67.5567 32.696 66.6242 31.7057C65.6917 30.716 65.2251 29.2568 65.2251 27.3268V23.1103H63.3594V20.74H65.2251V15.75H67.6959V20.74H70.4187V23.1103Z" fill="#231F20"/>
<path d="M74.3469 31.5438C73.0948 30.2963 72.4688 28.7832 72.4688 27.0032C72.4688 25.2232 73.0863 23.7016 74.322 22.4373C75.5577 21.1735 77.0743 20.541 78.8731 20.541C80.6719 20.541 82.0835 21.1112 83.3605 22.2502C84.6376 23.3899 85.3102 24.8913 85.3778 26.7538C85.3778 27.1694 85.3529 27.5441 85.3024 27.8766H75.1167C75.2178 28.8085 75.6168 29.5696 76.3144 30.1592C77.0113 30.7495 77.8651 31.045 78.8737 31.045C80.1173 31.045 81.126 30.6294 81.8991 29.7975L84.8489 29.8222C84.2944 30.9035 83.4872 31.7723 82.4287 32.4295C81.3695 33.0867 80.2099 33.4153 78.9492 33.4153C77.134 33.4153 75.5997 32.7919 74.3476 31.5444L74.3469 31.5438ZM75.1161 25.8804H82.7305C82.4949 25.016 82.0283 24.3049 81.3314 23.7471C80.6338 23.1899 79.8397 22.9113 78.9486 22.9113C77.9904 22.9113 77.1714 23.186 76.4903 23.7348C75.8097 24.2835 75.351 24.9991 75.1161 25.8804Z" fill="#231F20"/>
<path d="M93.7391 33.4143C91.9403 33.4143 90.4067 32.787 89.1382 31.5304C87.869 30.2745 87.2344 28.7569 87.2344 26.9769C87.2344 25.1969 87.869 23.6799 89.1382 22.4239C90.4073 21.168 91.9403 20.54 93.7391 20.54C95.1008 20.54 96.3274 20.9225 97.42 21.6875C98.512 22.4525 99.2858 23.4422 99.7399 24.6566H97.0926C96.3024 23.4922 95.1927 22.9103 93.7647 22.9103C92.6051 22.9103 91.6385 23.3013 90.8654 24.0832C90.0917 24.865 89.7058 25.8294 89.7058 26.9775C89.7058 28.1257 90.0963 29.0692 90.8785 29.8589C91.6601 30.6492 92.6222 31.044 93.7654 31.044C95.177 31.044 96.2696 30.4791 97.0433 29.3472H99.7412C99.2871 30.5615 98.514 31.5428 97.4213 32.2915C96.3287 33.0403 95.1015 33.4143 93.7404 33.4143H93.7391Z" fill="#231F20"/>
<path d="M107.328 20.5406C109.009 20.5406 110.353 21.0523 111.362 22.0751C112.371 23.0979 112.875 24.624 112.875 26.6534V33.2149H110.404V26.6534C110.404 24.1584 109.378 22.9109 107.328 22.9109C105.278 22.9109 104.252 24.1422 104.252 26.6034V33.2149H101.781V15.75H104.252V21.8628C104.958 20.9815 105.983 20.5406 107.328 20.5406Z" fill="#231F20"/>
<path d="M26.7422 21.8675C26.7422 21.2252 26.2165 20.7051 25.5675 20.7051H19.6665C16.0663 20.7051 13.1375 23.6033 13.1375 27.1659C13.1375 30.7285 16.0663 33.6281 19.6665 33.6281C21.9785 33.6281 23.8586 35.4893 23.8586 37.7764C23.8586 40.0636 21.9778 41.9248 19.6665 41.9248C17.3552 41.9248 15.4744 40.0636 15.4744 37.7764C15.4744 37.1342 14.9487 36.614 14.2997 36.614C13.6507 36.614 13.125 37.1342 13.125 37.7764C13.125 41.3462 16.0597 44.2496 19.6665 44.2496C23.2732 44.2496 26.208 41.3455 26.208 37.7764C26.208 35.5789 25.095 33.6346 23.3979 32.4631C25.0871 31.2935 26.1949 29.3557 26.1949 27.1653C26.1949 25.5931 25.6239 24.1508 24.677 23.0293H25.5668C26.2159 23.0293 26.7415 22.5091 26.7415 21.8669L26.7422 21.8675ZM19.6665 31.3019C17.3617 31.3019 15.4868 29.4466 15.4868 27.1659C15.4868 24.8852 17.3617 23.0299 19.6665 23.0299C21.9712 23.0299 23.8462 24.8852 23.8462 27.1659C23.8462 29.4466 21.9712 31.3019 19.6665 31.3019Z" fill="#231F20"/>
</svg>
