<?xml version="1.0" encoding="UTF-8"?>
<!DOCTYPE svg PUBLIC "-//W3C//DTD SVG 1.1//EN" "http://www.w3.org/Graphics/SVG/1.1/DTD/svg11.dtd">
<svg xmlns="http://www.w3.org/2000/svg" version="1.1" width="1491px" height="500px" style="shape-rendering:geometricPrecision; text-rendering:geometricPrecision; image-rendering:optimizeQuality; fill-rule:evenodd; clip-rule:evenodd" xmlns:xlink="http://www.w3.org/1999/xlink">
<g><path style="opacity:1" fill="#c10124" d="M 262.5,47.5 C 263.496,47.4142 264.329,47.7476 265,48.5C 304.667,117.167 344.333,185.833 384,254.5C 407.683,306.527 402.683,355.527 369,401.5C 344.864,430.994 313.864,447.327 276,450.5C 275.333,449.5 275.333,448.5 276,447.5C 321.303,422.238 341.97,383.571 338,331.5C 336.466,317.564 332.133,304.564 325,292.5C 293.825,236.153 263.158,179.486 233,122.5C 230.634,112.956 231.301,103.622 235,94.5C 244.178,78.8058 253.345,63.1391 262.5,47.5 Z"/></g>
<g><path style="opacity:0.944" fill="#000000" d="M 470.5,123.5 C 488.469,122.303 496.969,130.636 496,148.5C 491.647,160.431 483.147,165.264 470.5,163C 456.829,156.663 452.995,146.496 459,132.5C 462.045,128.406 465.878,125.406 470.5,123.5 Z"/></g>
<g><path style="opacity:0.944" fill="#000000" d="M 998.5,123.5 C 1016.47,122.303 1024.97,130.636 1024,148.5C 1019.65,160.431 1011.15,165.264 998.5,163C 984.829,156.663 980.995,146.496 987,132.5C 990.045,128.406 993.878,125.406 998.5,123.5 Z"/></g>
<g><path style="opacity:0.965" fill="#000000" d="M 1098.5,137.5 C 1106.97,135.657 1113.47,138.323 1118,145.5C 1119.45,163.444 1119.95,181.444 1119.5,199.5C 1131.17,199.333 1142.84,199.5 1154.5,200C 1162.98,204.129 1165.48,210.629 1162,219.5C 1160.06,222.106 1157.56,223.939 1154.5,225C 1142.84,225.5 1131.17,225.667 1119.5,225.5C 1119.33,255.169 1119.5,284.835 1120,314.5C 1121.88,325.102 1127.71,332.602 1137.5,337C 1144.76,338.225 1152.09,338.892 1159.5,339C 1165.86,340.702 1169.36,344.868 1170,351.5C 1171.11,359.455 1167.94,364.955 1160.5,368C 1129.66,372.999 1107.5,361.499 1094,333.5C 1092.2,328.625 1090.86,323.625 1090,318.5C 1089.5,287.502 1089.33,256.502 1089.5,225.5C 1081.08,225.906 1072.75,225.406 1064.5,224C 1056.57,216.365 1056.57,208.699 1064.5,201C 1072.75,199.594 1081.08,199.094 1089.5,199.5C 1089.33,181.83 1089.5,164.164 1090,146.5C 1091.69,142.315 1094.52,139.315 1098.5,137.5 Z"/></g>
<g><path style="opacity:1" fill="#c10125" d="M 196.5,167.5 C 197.496,167.414 198.329,167.748 199,168.5C 225.08,216.327 251.413,263.994 278,311.5C 294.139,347.133 288.306,378.633 260.5,406C 239.76,422.572 216.426,427.572 190.5,421C 170.622,415.113 155.455,403.279 145,385.5C 125.119,351.459 121.452,315.792 134,278.5C 134.925,275.029 136.592,272.029 139,269.5C 139.772,269.645 140.439,269.978 141,270.5C 157.627,302.265 175.127,333.431 193.5,364C 205.167,372.667 216.833,372.667 228.5,364C 236.758,355.47 238.925,345.637 235,334.5C 215.667,299.167 196.333,263.833 177,228.5C 173.91,221.323 173.244,213.99 175,206.5C 181.961,193.376 189.128,180.376 196.5,167.5 Z"/></g>
<g><path style="opacity:0.959" fill="#000000" d="M 623.5,191.5 C 662.451,188.886 691.618,204.219 711,237.5C 715.62,247.361 718.62,257.694 720,268.5C 720.667,299.833 720.667,331.167 720,362.5C 713.739,401.757 691.572,426.923 653.5,438C 620.225,444.75 590.558,437.417 564.5,416C 558.109,410.621 553.775,403.954 551.5,396C 554.415,385.038 561.415,381.038 572.5,384C 579.488,390.649 586.821,396.982 594.5,403C 617.377,415.202 640.377,415.535 663.5,404C 678.294,393.265 687.127,378.765 690,360.5C 690.905,351.841 691.238,343.174 691,334.5C 671.779,363.255 644.945,374.755 610.5,369C 577.945,362.446 556.778,343.28 547,311.5C 537.909,279.325 542.909,249.658 562,222.5C 578.467,204.017 598.967,193.683 623.5,191.5 Z M 629.5,218.5 C 658.668,219.184 678.168,233.184 688,260.5C 695.692,288.073 689.192,311.573 668.5,331C 648.218,344.42 626.884,346.42 604.5,337C 583.27,324.557 572.603,305.89 572.5,281C 574.053,243.958 593.053,223.124 629.5,218.5 Z"/></g>
<g><path style="opacity:0.956" fill="#000000" d="M 842.5,191.5 C 871.127,188.205 895.293,196.872 915,217.5C 925.411,231.397 931.078,247.064 932,264.5C 932.667,295.5 932.667,326.5 932,357.5C 928.224,367.804 921.057,371.304 910.5,368C 905.948,366.412 903.115,363.245 902,358.5C 901.667,327.167 901.333,295.833 901,264.5C 896.395,234.9 879.062,219.9 849,219.5C 829.29,219.353 813.956,227.353 803,243.5C 801.073,246.948 799.739,250.615 799,254.5C 798.667,288.833 798.333,323.167 798,357.5C 796.264,365.569 791.264,369.569 783,369.5C 776.462,369.24 771.795,366.24 769,360.5C 767.846,334.06 767.346,307.56 767.5,281C 767.346,254.44 767.846,227.94 769,201.5C 773.754,193.668 780.587,191.168 789.5,194C 794.336,195.819 797.169,199.319 798,204.5C 798.333,207.167 798.667,209.833 799,212.5C 811.414,201.042 825.914,194.042 842.5,191.5 Z"/></g>
<g><path style="opacity:0.955" fill="#000000" d="M 1277.5,191.5 C 1327.17,190.008 1356.33,213.675 1365,262.5C 1365.67,269.5 1365.67,276.5 1365,283.5C 1363.51,287.498 1360.68,289.998 1356.5,291C 1313.83,291.5 1271.17,291.667 1228.5,291.5C 1233.79,319.622 1250.45,336.789 1278.5,343C 1298.46,345.675 1316.46,341.008 1332.5,329C 1342.05,325.404 1348.89,328.238 1353,337.5C 1354.58,343.062 1353.08,347.562 1348.5,351C 1310.56,376.219 1272.23,376.886 1233.5,353C 1210.68,334.6 1199.35,310.6 1199.5,281C 1201.31,229.708 1227.31,199.875 1277.5,191.5 Z M 1284.5,217.5 C 1315.26,219.591 1332.93,235.924 1337.5,266.5C 1301.17,266.667 1264.83,266.5 1228.5,266C 1235.66,236.325 1254.33,220.158 1284.5,217.5 Z"/></g>
<g><path style="opacity:0.957" fill="#000000" d="M 474.5,192.5 C 482.701,192.337 488.201,196.003 491,203.5C 491.667,254.833 491.667,306.167 491,357.5C 488.717,364.818 483.717,368.818 476,369.5C 468.325,368.831 463.325,364.831 461,357.5C 460.333,306.5 460.333,255.5 461,204.5C 462.577,197.139 467.077,193.139 474.5,192.5 Z"/></g>
<g><path style="opacity:0.957" fill="#000000" d="M 1002.5,192.5 C 1010.7,192.337 1016.2,196.003 1019,203.5C 1019.67,254.833 1019.67,306.167 1019,357.5C 1016.72,364.818 1011.72,368.818 1004,369.5C 996.325,368.831 991.325,364.831 989,357.5C 988.333,306.5 988.333,255.5 989,204.5C 990.577,197.139 995.077,193.139 1002.5,192.5 Z"/></g>
</svg>
