<svg width="200" height="78" viewBox="0 0 200 78" fill="none" xmlns="http://www.w3.org/2000/svg">
<path d="M144.94 3.8161C142.69 3.8161 140.865 5.64008 140.865 7.88998C140.865 10.1406 142.69 11.966 144.94 11.966C147.191 11.966 149.015 10.1406 149.015 7.88998C149.015 5.64008 147.191 3.8161 144.94 3.8161" fill="#427DA9"/>
<path d="M133.531 4.63037C131.731 4.63037 130.271 6.08943 130.271 7.89148C130.271 9.69025 131.731 11.1499 133.531 11.1499C135.332 11.1499 136.791 9.69025 136.791 7.89148C136.791 6.08943 135.332 4.63037 133.531 4.63037" fill="#427DA9"/>
<path d="M125.382 6.26038C124.481 6.26038 123.753 6.99062 123.753 7.89C123.753 8.79188 124.481 9.52067 125.382 9.52067C126.281 9.52067 127.012 8.79188 127.012 7.89C127.012 6.99062 126.281 6.26038 125.382 6.26038Z" fill="#427DA9"/>
<path d="M157.98 3C155.279 3 153.09 5.19074 153.09 7.88998C153.09 10.5914 155.279 12.7799 157.98 12.7799C160.68 12.7799 162.869 10.5914 162.869 7.88998C162.869 5.19074 160.68 3 157.98 3" fill="#427DA9"/>
<path d="M171.019 11.966C173.269 11.966 175.093 10.1406 175.093 7.89148C175.093 5.63938 173.269 3.8161 171.019 3.8161C168.768 3.8161 166.944 5.63938 166.944 7.89148C166.944 10.1406 168.768 11.966 171.019 11.966Z" fill="#427DA9"/>
<path d="M182.428 11.1499C184.229 11.1499 185.688 9.69092 185.688 7.88996C185.688 6.09083 184.229 4.63104 182.428 4.63104C180.627 4.63104 179.168 6.09083 179.168 7.88996C179.168 9.69092 180.627 11.1499 182.428 11.1499Z" fill="#427DA9"/>
<path d="M190.578 9.51999C191.478 9.51999 192.207 8.79188 192.207 7.8915C192.207 6.98992 191.478 6.26038 190.578 6.26038C189.678 6.26038 188.948 6.98992 188.948 7.8915C188.948 8.79188 189.678 9.51999 190.578 9.51999Z" fill="#427DA9"/>
<path d="M2 12.3787H7.59778V52.3715H2V12.3787Z" fill="#427DA9"/>
<path d="M17.1777 23.2281C18.4087 22.9206 20.0434 22.5933 22.0831 22.2471C24.1218 21.9008 26.469 21.7277 29.1236 21.7277C31.5087 21.7277 33.4897 22.0649 35.0678 22.7376C36.6449 23.4112 37.9045 24.3534 38.8478 25.5654C39.79 26.7773 40.4537 28.2299 40.8387 29.9224C41.2229 31.6158 41.4158 33.4815 41.4158 35.5202V52.3714H36.0488V36.6744C36.0488 34.8278 35.9235 33.2507 35.6736 31.9423C35.423 30.6348 35.01 29.5762 34.433 28.7683C33.8558 27.9603 33.0858 27.3743 32.1246 27.0081C31.1624 26.6429 29.9695 26.4598 28.5466 26.4598C27.9695 26.4598 27.3725 26.4797 26.7576 26.5175C26.1417 26.5563 25.5547 26.6041 24.9975 26.6619C24.4393 26.7196 23.9388 26.7871 23.497 26.8638C23.0542 26.9414 22.7369 26.9991 22.5447 27.037V52.3714H17.1777V23.2281Z" fill="#427DA9"/>
<path d="M62.0168 7.58887C63.5939 7.58887 64.9501 7.70433 66.0854 7.93513C67.2197 8.16599 68.0187 8.37794 68.4803 8.57001L67.4992 13.1867C67.0376 12.9558 66.3829 12.735 65.5371 12.523C64.6904 12.3121 63.6517 12.2057 62.4208 12.2057C59.9195 12.2057 58.1692 12.8891 57.1693 14.2544C56.1683 15.6204 55.6687 17.4573 55.6687 19.7656V22.3625H67.2106V26.8638H55.6687V52.3715H50.3018V19.6502C50.3018 15.8035 51.2441 12.8314 53.1295 10.734C55.0141 8.63759 57.9772 7.58887 62.0168 7.58887V7.58887Z" fill="#427DA9"/>
<path d="M83.6574 21.7277C84.1191 21.7277 84.6475 21.7565 85.2444 21.8143C85.8404 21.8719 86.4274 21.9495 87.0045 22.0451C87.5815 22.1416 88.1101 22.2381 88.5915 22.3336C89.0721 22.43 89.4284 22.5167 89.6592 22.5933L88.7358 27.2679C88.312 27.1144 87.6105 26.9314 86.6294 26.7196C85.6483 26.5085 84.3877 26.4022 82.8494 26.4022C81.8485 26.4022 80.8585 26.5085 79.8775 26.7196C78.8963 26.9314 78.2517 27.0757 77.9441 27.1523V52.3714H72.5771V23.632C73.8468 23.1703 75.4239 22.7376 77.3093 22.3336C79.1938 21.9297 81.3103 21.7277 83.6574 21.7277V21.7277Z" fill="#427DA9"/>
<path d="M105.009 48.505C106.279 48.505 107.404 48.476 108.385 48.4184C109.366 48.3606 110.183 48.2551 110.838 48.1009V39.156C110.453 38.964 109.828 38.8008 108.962 38.6655C108.097 38.5309 107.048 38.4634 105.817 38.4634C105.009 38.4634 104.152 38.5213 103.249 38.6365C102.344 38.752 101.517 38.9927 100.767 39.3578C100.017 39.7242 99.3912 40.2235 98.8918 40.8583C98.3913 41.493 98.1415 42.3299 98.1415 43.3687C98.1415 45.2929 98.7565 46.6294 99.9881 47.3796C101.219 48.1298 102.892 48.505 105.009 48.505V48.505ZM104.548 21.6123C106.701 21.6123 108.519 21.8918 110.001 22.449C111.481 23.0073 112.674 23.7962 113.579 24.8151C114.482 25.835 115.127 27.0469 115.511 28.4508C115.896 29.8557 116.089 31.4039 116.089 33.0965V51.8521C115.627 51.9296 114.983 52.0352 114.155 52.1694C113.328 52.3048 112.396 52.429 111.357 52.5445C110.318 52.6599 109.193 52.7656 107.981 52.862C106.769 52.9576 105.566 53.0062 104.374 53.0062C102.681 53.0062 101.123 52.8331 99.6997 52.4869C98.2758 52.1405 97.045 51.5923 96.0063 50.8423C94.9676 50.092 94.1595 49.1018 93.5825 47.8702C93.0054 46.6392 92.7168 45.1577 92.7168 43.4265C92.7168 41.7725 93.0532 40.349 93.7268 39.156C94.3994 37.964 95.3137 37.0018 96.4679 36.2705C97.6223 35.54 98.9683 35.0009 100.508 34.6545C102.046 34.3084 103.662 34.1353 105.355 34.1353C105.893 34.1353 106.452 34.1641 107.028 34.2218C107.606 34.2796 108.154 34.357 108.674 34.4526C109.193 34.5491 109.644 34.6356 110.03 34.7123C110.414 34.7899 110.684 34.8476 110.838 34.8855V33.385C110.838 32.5004 110.741 31.6249 110.549 30.7593C110.356 29.8936 110.01 29.1245 109.511 28.4508C109.01 27.7782 108.327 27.239 107.462 26.8349C106.596 26.431 105.471 26.229 104.085 26.229C102.315 26.229 100.767 26.3544 99.44 26.6041C98.1127 26.8548 97.1217 27.1144 96.4679 27.3832L95.8332 22.9395C96.5257 22.6321 97.6798 22.3336 99.2957 22.0451C100.912 21.7565 102.662 21.6123 104.548 21.6123V21.6123Z" fill="#427DA9"/>
<path d="M131.959 48.505C134.152 48.505 135.777 48.2164 136.835 47.6393C137.894 47.0621 138.422 46.1388 138.422 44.8692C138.422 43.5616 137.904 42.5229 136.864 41.753C135.825 40.9837 134.113 40.118 131.728 39.156C130.574 38.6943 129.467 38.2237 128.41 37.7421C127.351 37.2615 126.437 36.6943 125.669 36.0397C124.898 35.3859 124.284 34.597 123.822 33.6736C123.361 32.7502 123.13 31.6158 123.13 30.2687C123.13 27.614 124.111 25.5077 126.073 23.9495C128.034 22.3913 130.708 21.6123 134.094 21.6123C134.94 21.6123 135.787 21.661 136.633 21.7565C137.479 21.853 138.268 21.9684 139 22.1028C139.73 22.2381 140.375 22.3824 140.933 22.5356C141.49 22.6898 141.923 22.8242 142.232 22.9395L141.25 27.5564C140.673 27.2489 139.768 26.9315 138.538 26.6041C137.306 26.2777 135.825 26.1136 134.094 26.1136C132.594 26.1136 131.285 26.412 130.17 27.0081C129.054 27.605 128.496 28.5375 128.496 29.807C128.496 30.4617 128.621 31.0388 128.872 31.5383C129.122 32.0387 129.506 32.4905 130.026 32.8944C130.545 33.2984 131.189 33.6736 131.959 34.0197C132.728 34.3661 133.651 34.7322 134.729 35.1163C136.152 35.6555 137.422 36.1839 138.538 36.7033C139.653 37.2227 140.606 37.8287 141.394 38.5213C142.183 39.2137 142.788 40.0504 143.212 41.0314C143.636 42.0126 143.847 43.2155 143.847 44.6382C143.847 47.4085 142.817 49.5058 140.76 50.9288C138.701 52.3525 135.768 53.0641 131.959 53.0641C129.304 53.0641 127.227 52.8421 125.726 52.4003C124.226 51.9585 123.206 51.6211 122.668 51.3904L123.648 46.7736C124.264 47.0045 125.245 47.3507 126.592 47.8124C127.938 48.274 129.727 48.505 131.959 48.505V48.505Z" fill="#427DA9"/>
<path d="M147.194 57.9693C147.617 58.1612 148.166 58.3445 148.839 58.5175C149.512 58.6906 150.175 58.7772 150.83 58.7772C152.945 58.7772 154.6 58.3056 155.792 57.3632C156.985 56.4201 158.063 54.8908 159.024 52.7755C156.601 48.1585 154.34 43.2632 152.244 38.0882C150.146 32.9143 148.406 27.6718 147.021 22.3625H152.792C153.215 24.0937 153.725 25.9603 154.321 27.9603C154.917 29.9612 155.582 32.0197 156.312 34.1353C157.043 36.2515 157.832 38.3677 158.678 40.4832C159.524 42.5997 160.41 44.6382 161.334 46.6004C162.795 42.5608 164.065 38.5598 165.142 34.5969C166.218 30.6348 167.239 26.5563 168.2 22.3625H173.74C172.356 28.018 170.816 33.4525 169.123 38.6655C167.43 43.8791 165.604 48.7555 163.641 53.2948C162.872 55.026 162.073 56.5165 161.247 57.7673C160.418 59.017 159.505 60.0467 158.506 60.8546C157.504 61.6627 156.379 62.2586 155.13 62.6436C153.879 63.0279 152.465 63.2208 150.888 63.2208C150.464 63.2208 150.022 63.1918 149.561 63.1343C149.099 63.0764 148.646 62.9989 148.205 62.9033C147.762 62.8068 147.357 62.7013 146.992 62.5861C146.626 62.4705 146.367 62.3741 146.213 62.2975L147.194 57.9693V57.9693Z" fill="#427DA9"/>
<path d="M186.379 48.505C188.572 48.505 190.197 48.2164 191.255 47.6393C192.313 47.0621 192.842 46.1388 192.842 44.8692C192.842 43.5616 192.323 42.5229 191.284 41.753C190.245 40.9837 188.533 40.118 186.148 39.156C184.994 38.6943 183.887 38.2237 182.83 37.7421C181.771 37.2615 180.857 36.6943 180.089 36.0397C179.318 35.3859 178.704 34.597 178.242 33.6736C177.78 32.7502 177.55 31.6158 177.55 30.2687C177.55 27.614 178.53 25.5077 180.493 23.9495C182.454 22.3913 185.128 21.6123 188.514 21.6123C189.36 21.6123 190.206 21.661 191.053 21.7565C191.899 21.853 192.688 21.9684 193.42 22.1028C194.149 22.2381 194.795 22.3824 195.352 22.5356C195.91 22.6898 196.343 22.8242 196.651 22.9395L195.67 27.5564C195.093 27.2489 194.188 26.9315 192.958 26.6041C191.726 26.2777 190.245 26.1136 188.514 26.1136C187.013 26.1136 185.705 26.412 184.59 27.0081C183.474 27.605 182.916 28.5375 182.916 29.807C182.916 30.4617 183.041 31.0388 183.292 31.5383C183.541 32.0387 183.926 32.4905 184.446 32.8944C184.965 33.2984 185.608 33.6736 186.379 34.0197C187.148 34.3661 188.071 34.7322 189.149 35.1163C190.572 35.6555 191.841 36.1839 192.958 36.7033C194.073 37.2227 195.025 37.8287 195.814 38.5213C196.603 39.2137 197.208 40.0504 197.632 41.0314C198.055 42.0126 198.266 43.2155 198.266 44.6382C198.266 47.4085 197.237 49.5058 195.18 50.9288C193.121 52.3525 190.188 53.0641 186.379 53.0641C183.724 53.0641 181.647 52.8421 180.146 52.4003C178.646 51.9585 177.626 51.6211 177.088 51.3904L178.068 46.7736C178.684 47.0045 179.664 47.3507 181.012 47.8124C182.358 48.274 184.147 48.505 186.379 48.505V48.505Z" fill="#427DA9"/>
<path d="M7.30901 72.9382H4.0423L3.38213 74.9268H2L5.13012 66.0356H6.22119L9.35131 74.9268H7.97568L7.30901 72.9382ZM6.93664 71.7447L5.6911 67.8552H5.66671L4.42117 71.7447H6.93664V71.7447Z" fill="#A1A3A1"/>
<path d="M13.5125 72.7723C14.1987 73.3561 15.0134 73.6504 15.9597 73.6585C17.0784 73.6422 17.6459 73.2292 17.6622 72.4195C17.6703 71.7577 17.2963 71.3577 16.5402 71.2243C16.1922 71.1756 15.8134 71.1203 15.3987 71.0585C14.6589 70.9333 14.0963 70.6503 13.7093 70.2113C13.3125 69.7593 13.1125 69.2097 13.1125 68.5625C13.1125 67.7869 13.3629 67.1592 13.8621 66.6828C14.3467 66.2113 15.0329 65.9722 15.9223 65.9641C16.9922 65.9869 17.9223 66.2942 18.7126 66.8812L17.9857 67.9885C17.3402 67.5479 16.6296 67.3202 15.8524 67.304C15.4508 67.304 15.1158 67.408 14.8475 67.6162C14.5678 67.8308 14.4247 68.1528 14.4166 68.5804C14.4166 68.8357 14.5125 69.0682 14.706 69.2747C14.8995 69.4877 15.2085 69.6341 15.6345 69.7154C15.8703 69.756 16.1922 69.8016 16.602 69.8552C17.4101 69.969 18.0069 70.2682 18.3923 70.7528C18.7744 71.2292 18.9662 71.7821 18.9662 72.413C18.9223 74.1138 17.9158 74.9756 15.9434 75C14.6686 75 13.5727 74.5951 12.6572 73.787L13.5125 72.7723V72.7723Z" fill="#A1A3A1"/>
<path d="M25.8151 71.0422H22.3988V74.9268H21.0947V66.0356H22.3988V69.8487H25.8151V66.0356H27.1192V74.9268H25.8151V71.0422Z" fill="#A1A3A1"/>
<path d="M29.7109 66.0356H31.015V74.9268H29.7109V66.0356Z" fill="#A1A3A1"/>
<path d="M33.6106 73.0601C33.7326 73.2276 33.8903 73.3642 34.0822 73.4699C34.2757 73.5967 34.5017 73.6585 34.7618 73.6585C35.1082 73.6666 35.4383 73.543 35.7521 73.2861C35.9066 73.1609 36.0253 72.9935 36.1114 72.7869C36.2025 72.5869 36.248 72.3365 36.248 72.0357V66.0356H37.5521V72.1642C37.5359 73.0585 37.2529 73.7496 36.7017 74.2374C36.1553 74.7382 35.5212 74.9918 34.7976 75C33.7911 74.9756 33.0334 74.5918 32.5244 73.8471L33.6106 73.0601V73.0601Z" fill="#A1A3A1"/>
<path d="M39.9854 66.0356H41.2894V74.9268H39.9854V66.0356Z" fill="#A1A3A1"/>
<path d="M46.6738 66.0356H49.7958C50.134 66.0356 50.4609 66.0698 50.7763 66.1332C51.0918 66.2194 51.4105 66.395 51.734 66.6584C52.0056 66.8568 52.2251 67.1413 52.3942 67.5121C52.5715 67.8698 52.6609 68.2926 52.6609 68.7804C52.6609 69.4389 52.4349 70.0373 51.9861 70.5788C51.5243 71.1479 50.8511 71.4406 49.9633 71.4568H47.9779V74.9268H46.6738V66.0356V66.0356ZM47.9779 70.1902H49.9129C50.3974 70.182 50.7633 70.0259 51.0072 69.7235C51.2397 69.4292 51.3568 69.104 51.3568 68.7446C51.3568 68.4454 51.3097 68.195 51.2137 67.9901C51.1162 67.8064 50.9779 67.6617 50.8007 67.556C50.5324 67.3804 50.2202 67.2958 49.8657 67.3039H47.9779V70.1902V70.1902Z" fill="#A1A3A1"/>
<path d="M54.3262 66.0356H57.6904C58.4075 66.0356 58.9929 66.2308 59.4466 66.621C59.9929 67.0649 60.2775 67.6975 60.3002 68.5186C60.284 69.7251 59.7311 70.5463 58.6384 70.982L60.6303 74.9268H59.0823L57.3002 71.1268H55.6303V74.9268H54.3262V66.0356V66.0356ZM55.6303 69.9333H57.6075C58.097 69.9251 58.4644 69.7788 58.7083 69.4926C58.949 69.2276 59.0693 68.9023 59.0693 68.5153C59.0612 68.0503 58.9181 67.7137 58.6384 67.5056C58.4173 67.3235 58.097 67.2308 57.6791 67.2308H55.6303V69.9333V69.9333Z" fill="#A1A3A1"/>
<path d="M61.8984 70.4812C61.8984 69.4471 61.9277 68.7544 61.9879 68.4048C62.0513 68.0536 62.1472 67.7706 62.2773 67.5544C62.4854 67.1462 62.8204 66.782 63.2806 66.4617C63.7326 66.1381 64.2985 65.9722 64.9749 65.9641C65.6595 65.9722 66.2302 66.1381 66.6871 66.4633C67.1392 66.7853 67.466 67.1511 67.666 67.5609C67.8123 67.7771 67.9131 68.0584 67.9668 68.408C68.0188 68.7576 68.0449 69.4487 68.0449 70.4812C68.0449 71.4975 68.0188 72.1853 67.9668 72.543C67.9131 72.9008 67.8123 73.187 67.666 73.4016C67.466 73.813 67.1392 74.1756 66.6871 74.4878C66.2302 74.813 65.6595 74.9837 64.9749 75C64.2985 74.9837 63.7326 74.813 63.2806 74.4878C62.8204 74.1756 62.4854 73.813 62.2773 73.4016C62.2139 73.2683 62.157 73.1398 62.1049 73.0178C62.0578 72.8926 62.0188 72.7333 61.9879 72.543C61.9277 72.1853 61.8984 71.4975 61.8984 70.4812V70.4812ZM63.2025 70.4812C63.2025 71.3577 63.235 71.9495 63.2968 72.2601C63.3521 72.5691 63.4643 72.8195 63.635 73.0113C63.7733 73.1951 63.9538 73.3431 64.1781 73.4569C64.3993 73.5918 64.6643 73.6585 64.9716 73.6585C65.2838 73.6585 65.5538 73.5918 65.7814 73.4569C65.9993 73.3431 66.1733 73.1951 66.3034 73.0113C66.4725 72.8195 66.5879 72.5691 66.6513 72.2601C66.7115 71.9495 66.7408 71.3577 66.7408 70.4812C66.7408 69.6064 66.7115 69.0097 66.6513 68.691C66.5879 68.3902 66.4725 68.143 66.3034 67.9511C66.1733 67.769 65.9993 67.6162 65.7814 67.4942C65.5538 67.3755 65.2838 67.3121 64.9716 67.304C64.6643 67.3121 64.3993 67.3755 64.1781 67.4942C63.9538 67.6162 63.7733 67.769 63.635 67.9511C63.4643 68.143 63.3521 68.3902 63.2968 68.691C63.235 69.0097 63.2025 69.6064 63.2025 70.4812Z" fill="#A1A3A1"/>
<path d="M70.0576 66.0356H73.0707C74.2365 66.0454 75.1113 66.5446 75.6935 67.5365C75.9016 67.8698 76.0333 68.2194 76.0886 68.5853C76.1325 68.9511 76.1536 69.5837 76.1536 70.4812C76.1536 71.4373 76.1211 72.104 76.0528 72.4812C76.0219 72.6731 75.9748 72.8439 75.9113 72.9935C75.8447 73.1398 75.7634 73.2926 75.6691 73.4504C75.417 73.8699 75.0674 74.2162 74.6186 74.4878C74.1731 74.7805 73.6268 74.9268 72.9812 74.9268H70.0576V66.0356V66.0356ZM71.3617 73.6585H72.9227C73.656 73.6585 74.1877 73.4 74.5195 72.8829C74.6642 72.691 74.7569 72.4487 74.7975 72.156C74.8317 71.8666 74.8495 71.3251 74.8495 70.53C74.8495 69.756 74.8317 69.2032 74.7975 68.8682C74.7504 68.5349 74.6365 68.2633 74.4593 68.0552C74.0967 67.5381 73.5845 67.2877 72.9227 67.3039H71.3617V73.6585V73.6585Z" fill="#A1A3A1"/>
<path d="M78.0137 66.0356H79.3178V71.7739C79.3259 72.3788 79.495 72.8406 79.8267 73.1593C80.1503 73.4926 80.5665 73.6585 81.0755 73.6585C81.5828 73.6585 82.004 73.4926 82.334 73.1593C82.6576 72.8406 82.8235 72.3788 82.8316 71.7739V66.0356H84.1357V71.9154C84.1194 72.8504 83.8251 73.5918 83.2544 74.1398C82.6804 74.7057 81.9536 74.9918 81.0755 75C80.2121 74.9918 79.4917 74.7057 78.9129 74.1414C78.321 73.5935 78.0218 72.852 78.0137 71.9186V66.0356V66.0356Z" fill="#A1A3A1"/>
<path d="M92.097 72.4439C91.9084 73.2666 91.5474 73.9008 91.0157 74.3431C90.4677 74.7805 89.8205 75 89.0709 75C88.3945 74.9837 87.8303 74.813 87.3766 74.4878C86.9164 74.1756 86.5815 73.813 86.3733 73.4016C86.3099 73.2683 86.253 73.1398 86.2026 73.0178C86.1554 72.8926 86.1164 72.7333 86.0839 72.543C86.0254 72.1853 85.9961 71.4975 85.9961 70.4812C85.9961 69.4487 86.0254 68.7576 86.0839 68.408C86.1473 68.0584 86.2433 67.7771 86.3733 67.5609C86.5831 67.1511 86.9164 66.7853 87.3782 66.4633C87.8303 66.1381 88.3961 65.9722 89.0726 65.9641C89.9035 65.9722 90.5815 66.2259 91.1051 66.7251C91.6287 67.2275 91.9588 67.8503 92.097 68.5934H90.7132C90.6059 68.2357 90.4124 67.93 90.1327 67.6763C89.8417 67.4373 89.4856 67.3121 89.0677 67.304C88.7604 67.3121 88.4969 67.3755 88.2758 67.4942C88.0514 67.6162 87.8693 67.769 87.7311 67.9511C87.562 68.143 87.4498 68.3902 87.3945 68.691C87.3311 69.0097 87.3002 69.6064 87.3002 70.4812C87.3002 71.3577 87.3311 71.9495 87.3945 72.2601C87.4498 72.5691 87.562 72.8195 87.7311 73.0113C87.8693 73.1951 88.0514 73.3431 88.2758 73.4569C88.4969 73.5918 88.762 73.6585 89.0693 73.6585C89.8026 73.6585 90.3506 73.2536 90.7148 72.4439H92.097V72.4439Z" fill="#A1A3A1"/>
<path d="M94.9469 67.2308H92.5859V66.0356H98.612V67.2308H96.251V74.9268H94.9469V67.2308V67.2308Z" fill="#A1A3A1"/>
</svg>
