<?xml version="1.0" encoding="utf-8"?>
<!-- Generator: Adobe Illustrator 27.0.0, SVG Export Plug-In . SVG Version: 6.00 Build 0)  -->
<svg version="1.1" id="LOGO_No.1" xmlns="http://www.w3.org/2000/svg" xmlns:xlink="http://www.w3.org/1999/xlink" x="0px" y="0px"
	 viewBox="0 0 841.89 595.28" style="enable-background:new 0 0 841.89 595.28;" xml:space="preserve">
<style type="text/css">
	.st0{fill:#00907E;}
	.st1{fill:#004F40;}
</style>
<g>
	<path class="st0" d="M630.74,214.43c-5.53-7.06-10.72-14.68-19.25-21.36c21.74-7.1,36.09-28.12,36.09-52.09v-79.1H546.99
		c-54.75,0-99.42,43.97-100.56,98.46h23.88c0.51-18.44,7.56-35.27,18.89-48.26v108.94l24.63-24.63h42.05
		c31.8,0,43.66,15.14,57.39,32.66c12.48,15.93,27.26,32.41,56.77,33.88v-23.89C650.97,237.87,641.95,228.74,630.74,214.43z
		 M558.93,85.76h20.45v44.32l23.87-23.88V85.76h21.22v44.32h-45.09l-20.45,20.45V85.76z M594.72,174.4h-59.67l-21.21,21.98V93.3
		c6.61-3.18,13.73-5.44,21.21-6.61v87.71l23.83-23.83h64.97C620.18,163.94,609.03,174.4,594.72,174.4z M603.88,236.42
		c-3.74-4.77-7.12-9.08-10.62-12.82c-12.87,9.77-28.9,15.58-46.27,15.58l-76.71-0.01v-28.72h-23.87v52.6h100.58
		c23.12,0,44.43-7.84,61.43-21C606.86,240.17,605.34,238.29,603.88,236.42z M470.28,174.4h-13.95c-5.48,0-9.92,4.44-9.92,9.92v12.06
		h23.87V174.4z"/>
	<g>
		<rect x="173.71" y="340.59" class="st1" width="23.01" height="69.67"/>
		<path class="st1" d="M368.16,303.5l-45.43,106.75h23.78l9.69-23.78h44.82l9.69,23.78h24.38L389.67,303.5L368.16,303.5z
			 M364.53,365.89l14.08-34.37l14.08,34.37H364.53z"/>
		<polygon class="st1" points="496.35,348.32 468.49,303.5 443.36,303.5 443.36,410.26 466.22,410.26 466.22,340.75 495.75,385.57 
			496.35,385.57 526.18,340.3 526.18,410.26 549.35,410.26 549.35,303.5 524.22,303.5 		"/>
		<path class="st1" d="M624.55,303.5h-21.5l-45.43,106.75h23.78l9.69-23.78h44.82l9.69,23.78l24.38,0L624.55,303.5z M599.41,365.89
			l14.08-34.37l14.08,34.37H599.41z"/>
		<path class="st1" d="M196.72,303.51h-12.91c-5.55,0-10.1,4.54-10.1,10.1v12.91h23.01V303.51z"/>
		<path class="st1" d="M289.04,376c-0.91-1.21-1.84-2.45-2.84-3.68c13.37-5.03,22.52-16.49,22.52-33.53v-0.3
			c0-21.81-14.99-34.98-39.98-34.98h-48.46l0,106.74l23.32,0v-33.93c0,0,1.09,0,4.61,0c14.79,0.03,18.43,3.88,24.42,11.91
			c6.94,9.29,16.44,22.02,43.73,22.02v-20.46C299.34,389.79,295.24,384.31,289.04,376z M285.1,340.44c0,8.68-6.51,14.56-17.87,14.56
			h-23.62v-29.57h23.17c11.36,0,18.32,5,18.32,14.71V340.44z"/>
	</g>
	<g>
		<g>
		</g>
	</g>
</g>
</svg>
