<svg width="186" height="125" viewBox="0 0 186 125" fill="none" xmlns="http://www.w3.org/2000/svg">
<path d="M177.463 70.9993V70.6162V58.7265H186V52.4892H177.463V43.7786H170.108V52.4892H166.028V58.7265H170.108V70.6162V70.9993V75.3243C170.108 75.3246 170.019 77.4239 170.673 79.5083C170.985 80.508 171.541 81.4821 172.222 82.2605C174.241 84.5671 178.349 84.746 178.644 84.7297C178.97 84.7114 179.304 84.6973 179.557 84.6973C180.69 84.6973 182.191 84.5693 183.416 84.1863C184.812 83.7493 185.864 83.0498 185.864 83.0498L185.852 77.129C185.852 77.129 185.469 77.4104 185.265 77.5005C181.967 78.9605 178.661 78.5046 177.77 76.4837C177.62 76.1456 177.477 75.7069 177.473 75.234C177.465 74.1634 177.464 73.1597 177.463 72.5261V70.9993Z" fill="#1C1C1C"/>
<path d="M158.967 40.1477H151.906V84.1258H158.967V40.1477Z" fill="#1C1C1C"/>
<path d="M127.296 51.8479C117.937 51.8479 110.35 59.2992 110.35 68.4907C110.35 77.6825 117.937 85.134 127.296 85.134C136.654 85.134 144.241 77.6825 144.241 68.4907C144.241 59.2994 136.654 51.8479 127.296 51.8479ZM127.296 78.7864C121.961 78.7864 117.637 74.177 117.637 68.4907C117.637 62.8046 121.961 58.1952 127.296 58.1952C132.63 58.1952 136.953 62.8045 136.953 68.4907C136.953 74.1771 132.63 78.7864 127.296 78.7864Z" fill="#1C1C1C"/>
<path d="M102.884 56.2865V42.165H95.2652V70.5842C95.2652 70.5842 95.2563 70.9732 95.2404 71.3727C95.2284 71.6701 95.0216 72.8154 94.9668 73.0092C94.8963 73.2596 94.8156 73.5356 94.735 73.8016C94.5589 74.3852 93.9209 75.5237 93.5826 75.8864C93.218 76.277 92.8352 76.6658 92.7273 76.7527C92.6075 76.849 92.4897 76.9419 92.3816 77.0257C92.1234 77.2262 91.4233 77.5714 91.197 77.6443C90.8912 77.7427 90.5794 77.8243 90.2624 77.8878C89.7282 77.9945 89.179 78.0501 88.6188 78.0501C86.8235 78.0501 85.1419 77.4789 83.6975 76.4824C82.368 75.5655 80.1682 73.0154 80.1682 73.0154L75.2471 78.1606C78.385 82.4113 83.2084 85.1344 88.6188 85.1344C92.4286 85.1344 95.9475 83.7841 98.7916 81.5012C98.8845 81.4268 99.1238 81.2032 99.3452 80.9749C99.49 80.8256 99.9319 80.2594 100.054 80.0839C100.705 79.1499 101.536 77.8132 101.862 76.9576C102.026 76.5299 102.179 76.1078 102.315 75.7229C102.349 75.6262 102.47 75.2528 102.517 75.0725C102.568 74.8754 102.623 74.6431 102.647 74.4855C102.746 73.8448 102.818 73.0207 102.855 72.5376C102.874 72.2914 102.884 71.6637 102.884 71.6637V70.2339V56.2865Z" fill="#1C1C1C"/>
<path d="M17.9551 124.876L59.5123 62.6213L39.871 33.2891L17.9551 124.876Z" fill="#00B74F"/>
<path d="M0 62.4409L19.6003 91.7918L41.5573 0.20459L0 62.4409Z" fill="#0077C8"/>
</svg>
