<?xml version="1.0" encoding="UTF-8" standalone="no"?>
<svg
   id="Layer_1"
   data-name="Layer 1"
   viewBox="0 0 295.63101 111.71119"
   version="1.1"
   width="295.63101"
   height="111.71119"
   xmlns="http://www.w3.org/2000/svg"
   xmlns:svg="http://www.w3.org/2000/svg">
  <defs
     id="defs119">
    <style
       id="style112">
      .cls-1 {
        fill: url(#linear-gradient);
      }

      .cls-2 {
        fill: #00526e;
      }

      .cls-3 {
        fill: #fff;
      }
    </style>
    <linearGradient
       id="linear-gradient"
       x1="313.22"
       y1="1223.99"
       x2="310.79999"
       y2="1220.71"
       gradientTransform="matrix(73.95,0,0,-73.95,-22688.69,90617.62)"
       gradientUnits="userSpaceOnUse">
      <stop
         offset="0"
         stop-color="#00b3c7"
         id="stop114" />
      <stop
         offset="1"
         stop-color="#0073b9"
         id="stop116" />
    </linearGradient>
  </defs>
  <g
     id="Group_155598"
     data-name="Group 155598"
     transform="matrix(0.75614758,0,0,0.69628014,-40.854654,-117.88023)">
    <g
       id="Group_152037"
       data-name="Group 152037">
      <g
         id="Group_2"
         data-name="Group 2">
        <g
           id="Group_1"
           data-name="Group 1">
          <path
             id="Path_1"
             data-name="Path 1"
             class="cls-2"
             d="M 87.79,264.39 74.33,283.75 61.22,264.39 h -7.19 v 41.69 h 6.69 v -31.71 l 13.32,19.14 13.94,-19.26 v 31.83 h 6.88 V 264.39 H 87.8 Z" />
          <path
             id="Path_2"
             data-name="Path 2"
             class="cls-2"
             d="m 132.8,306.08 h 7.25 l -15.82,-41.69 h -7.31 l -16.25,41.69 h 6.88 l 4.08,-11.31 h 17.05 l 4.13,11.31 z m -19.14,-16.94 6.46,-17.88 6.51,17.88 z" />
          <path
             id="Path_3"
             data-name="Path 3"
             class="cls-2"
             d="m 145.86,306.08 v -41.69 h 14.63 c 6.75,0 11.77,1.75 15.06,5.25 3.29,3.5 4.94,8.69 4.94,15.57 0,6.87 -1.65,12.07 -4.94,15.59 -3.29,3.52 -8.31,5.28 -15.06,5.28 z m 6.88,-5.81 h 7.06 c 3.79,0.32 7.54,-0.98 10.31,-3.59 4.42,-7 4.42,-15.91 0,-22.91 -2.76,-2.63 -6.52,-3.95 -10.31,-3.62 h -7.06 v 30.13 z" />
          <path
             id="Path_4"
             data-name="Path 4"
             class="cls-2"
             d="m 188.55,306.08 v -41.69 h 26.75 v 5.81 h -19.88 v 12.44 h 17.38 v 5.87 h -17.38 v 17.57 z" />
          <path
             id="Path_5"
             data-name="Path 5"
             class="cls-2"
             d="m 240.37,306.08 c -4.74,0.33 -9.41,-1.23 -13,-4.34 -3.22,-3.49 -4.86,-8.17 -4.5,-12.91 v -24.79 h 7.06 v 24.73 c -0.25,3.12 0.66,6.23 2.55,8.72 2.03,2.02 4.83,3.06 7.69,2.84 2.84,0.19 5.63,-0.85 7.66,-2.84 1.96,-2.46 2.91,-5.58 2.66,-8.72 v -24.73 h 6.64 v 24.79 c 0.1,3.31 -0.6,6.59 -2.04,9.56 -1.26,2.49 -3.29,4.52 -5.78,5.78 -2.78,1.33 -5.84,1.98 -8.93,1.9 z" />
        </g>
      </g>
      <g
         id="Group_5"
         data-name="Group 5">
        <g
           id="Group_4"
           data-name="Group 4">
          <path
             id="Path_6"
             data-name="Path 6"
             class="cls-2"
             d="m 75.18,247.99 c -1.71,0.52 -3.53,0.6 -5.28,0.24 -1.49,-0.33 -2.88,-0.99 -4.08,-1.92 -1.46,-1.01 -2.64,-2.37 -3.45,-3.96 -0.68,-1.38 -1.04,-2.89 -1.05,-4.42 0,-1.19 0.26,-2.37 0.75,-3.46 0.52,-1.14 1.27,-2.15 2.22,-2.97 1.1,-0.93 2.36,-1.66 3.72,-2.14 1.69,-0.6 3.47,-0.93 5.27,-0.97 h 19.64 v -7.27 H 77.33 c -1.3,0.03 -2.59,-0.25 -3.76,-0.83 -1.02,-0.53 -1.91,-1.27 -2.61,-2.18 -0.7,-0.93 -1.22,-1.97 -1.53,-3.09 -0.67,-2.3 -0.67,-4.74 0,-7.03 0.32,-1.12 0.84,-2.18 1.53,-3.11 1.49,-2 3.87,-3.15 6.36,-3.06 h 15.59 v -7.27 H 77.32 c -2.33,-0.05 -4.64,0.44 -6.75,1.43 -1.88,0.91 -3.55,2.22 -4.89,3.83 -1.33,1.61 -2.34,3.45 -2.99,5.43 -0.68,2.03 -1.02,4.15 -1.02,6.28 0,1.9 0.29,3.8 0.85,5.62 0.6,1.96 1.5,3.81 2.67,5.5 -1.73,0.75 -3.36,1.73 -4.83,2.91 -1.33,1.07 -2.5,2.32 -3.47,3.72 -0.91,1.3 -1.62,2.73 -2.1,4.24 -0.47,1.46 -0.71,2.99 -0.71,4.53 0,1.31 0.17,2.62 0.48,3.9 0.33,1.32 0.82,2.6 1.45,3.8 0.67,1.26 1.48,2.45 2.4,3.54 1,1.17 2.13,2.21 3.37,3.11 l 0.02,-0.02 c 0.9,0.67 1.86,1.25 2.88,1.72 1.24,0.57 2.54,0.98 3.88,1.23 1.4,0.26 2.83,0.37 4.26,0.32 1.53,-0.05 3.06,-0.29 4.54,-0.7 -0.39,-1.24 -0.75,-2.37 -1.09,-3.4 -0.34,-1.03 -0.7,-2.2 -1.11,-3.53 z" />
          <g
             id="Group_3"
             data-name="Group 3">
            <path
               id="Path_7"
               data-name="Path 7"
               class="cls-2"
               d="m 123.52,228.35 c -0.56,1.74 -1.23,3.45 -2.02,5.1 -0.71,1.51 -1.66,2.91 -2.81,4.12 -1.14,1.19 -2.51,2.14 -4.02,2.81 -1.79,0.75 -3.71,1.15 -5.66,1.17 v 7.27 c 3.01,0 5.98,-0.62 8.75,-1.79 2.37,-1.04 4.51,-2.54 6.3,-4.41 1.77,-1.88 3.2,-4.05 4.22,-6.42 1.1,-2.52 1.94,-5.15 2.51,-7.84 h 41.98 c 0.96,0.02 1.88,-0.36 2.55,-1.05 0.69,-0.68 1.07,-1.62 1.05,-2.59 l -0.04,-25.25 c 0,-0.65 -0.12,-1.3 -0.36,-1.9 -0.24,-0.58 -0.59,-1.12 -1.02,-1.57 -0.43,-0.46 -0.95,-0.83 -1.53,-1.09 -0.6,-0.27 -1.24,-0.41 -1.9,-0.4 h -10.95 c -2.33,-0.05 -4.64,0.44 -6.75,1.43 -1.88,0.91 -3.54,2.22 -4.87,3.83 -1.32,1.61 -2.32,3.45 -2.97,5.43 -1.18,3.53 -1.33,7.32 -0.42,10.93 0.43,1.72 1.04,3.39 1.84,4.97 h -15.64 l 0.04,-1.02 c 0.08,-1.7 0.12,-3.39 0.12,-5.05 0,-1.56 -0.03,-3.08 -0.08,-4.55 -0.05,-1.47 -0.11,-2.9 -0.16,-4.3 -0.05,-1.21 -0.1,-2.39 -0.12,-3.54 -0.03,-1.14 -0.04,-2.23 -0.04,-3.25 0,-0.66 -0.13,-1.31 -0.38,-1.92 -0.24,-0.58 -0.58,-1.11 -1.02,-1.55 -0.44,-0.43 -0.96,-0.78 -1.53,-1.02 -0.6,-0.26 -1.25,-0.39 -1.9,-0.38 h -11.03 c -2.13,-0.02 -4.24,0.41 -6.2,1.25 -1.88,0.81 -3.6,1.97 -5.05,3.42 -2.97,2.99 -4.64,7.04 -4.63,11.25 v 13.21 c -0.04,0.75 0.21,1.48 0.69,2.06 0.5,0.54 1.11,0.97 1.79,1.25 1.03,0.49 2.09,0.88 3.19,1.18 m 1.62,-7.44 -0.04,-10.26 c 0,-1.14 0.22,-2.28 0.67,-3.33 0.43,-1.04 1.06,-1.98 1.86,-2.77 0.8,-0.79 1.74,-1.42 2.77,-1.88 1.05,-0.47 2.2,-0.71 3.35,-0.71 l 8.68,0.04 v 0.44 c 0,0.19 0,0.39 0.02,0.59 0.02,0.2 0.02,0.4 0.02,0.58 v 0.4 c 0.05,1.62 0.11,3.36 0.16,5.23 0.05,1.87 0.08,3.7 0.08,5.47 0,0.92 -0.02,1.96 -0.04,3.11 -0.02,1.15 -0.07,2.18 -0.12,3.06 m 44.65,0.4 h -8.52 c -0.93,0.01 -1.85,-0.13 -2.73,-0.42 -1.55,-0.51 -2.9,-1.52 -3.83,-2.87 -0.46,-0.66 -0.82,-1.37 -1.09,-2.12 -0.27,-0.67 -0.46,-1.37 -0.57,-2.08 -0.11,-0.7 -0.16,-1.41 -0.16,-2.12 0,-1.19 0.16,-2.37 0.48,-3.51 0.31,-1.12 0.82,-2.18 1.52,-3.11 1.49,-2 3.87,-3.15 6.36,-3.06 h 8.52 v 19.3 z" />
            <path
               id="Path_8"
               data-name="Path 8"
               class="cls-2"
               d="m 162.87,188.14 c 1.06,0.03 2.09,-0.38 2.85,-1.13 0.76,-0.74 1.18,-1.77 1.15,-2.83 0.04,-2.17 -1.69,-3.96 -3.87,-4 -0.04,0 -0.09,0 -0.13,0 -1.06,-0.03 -2.09,0.39 -2.83,1.15 -0.75,0.76 -1.16,1.78 -1.13,2.85 -0.05,2.13 1.64,3.91 3.77,3.96 0.06,0 0.13,0 0.19,0 z" />
          </g>
          <path
             id="Path_9"
             data-name="Path 9"
             class="cls-2"
             d="m 257.16,196.91 c -0.18,-0.42 -0.44,-0.8 -0.77,-1.13 -0.33,-0.33 -0.72,-0.59 -1.15,-0.77 -0.44,-0.19 -0.91,-0.28 -1.39,-0.28 -2.1,-0.05 -4.21,-0.09 -6.32,-0.12 l -6.32,-0.08 c -2.13,-0.09 -4.24,0.35 -6.16,1.28 -1.88,0.9 -3.58,2.14 -5.01,3.66 -1.4,1.49 -2.54,3.21 -3.35,5.09 -0.79,1.75 -1.21,3.65 -1.23,5.58 v 10.99 h -11.39 c -0.13,-3.82 -0.67,-7.61 -1.62,-11.31 -0.74,-2.91 -2.12,-5.61 -4.04,-7.91 -1.11,-1.25 -2.39,-2.33 -3.8,-3.23 -1.52,-0.96 -3.17,-1.71 -4.89,-2.24 -2,-0.62 -4.06,-1.05 -6.14,-1.29 -2.49,-0.29 -5,-0.42 -7.51,-0.38 0,1.29 0.01,2.48 0.04,3.56 0.03,1.08 0.04,2.3 0.04,3.68 3.55,-0.14 7.1,0.23 10.55,1.11 2.37,0.6 4.52,1.86 6.22,3.62 1.33,1.67 2.27,3.62 2.75,5.7 0.68,2.85 1.08,5.75 1.17,8.68 h -23.56 v 7.27 l 35.19,0.04 h 35.4 c 1.02,0.05 2,-0.38 2.64,-1.17 0.64,-0.81 0.98,-1.83 0.95,-2.87 v -26.07 c 0,-0.47 -0.09,-0.94 -0.28,-1.37 z m -6.99,24.2 H 232.7 v -11.03 c 0,-1.06 0.25,-2.11 0.71,-3.06 0.46,-0.99 1.1,-1.88 1.88,-2.65 0.78,-0.77 1.68,-1.4 2.67,-1.88 0.95,-0.47 2,-0.72 3.06,-0.73 h 0.28 c 0.13,0 0.55,0.01 1.25,0.04 h 1.37 c 0.59,0 1.23,0 1.9,0.02 l 2.12,0.04 c 0.74,0.01 1.47,0.02 2.2,0.02 l 0.02,19.22 z" />
        </g>
      </g>
    </g>
    <g
       id="Group_152042"
       data-name="Group 152042">
      <path
         id="Path_164488"
         data-name="Path 164488"
         class="cls-1"
         d="m 339.11,169.3 h 51.34 c 30.13,0 54.55,24.42 54.55,54.55 v 0 51.34 c 0,30.13 -24.42,54.55 -54.55,54.55 h -51.34 c -30.13,0 -54.55,-24.42 -54.55,-54.55 v 0 -51.34 c 0,-30.13 24.42,-54.55 54.55,-54.55 z"
         style="fill:url(#linear-gradient)" />
      <g
         id="Group_152041"
         data-name="Group 152041">
        <g
           id="Group_11"
           data-name="Group 11">
          <g
             id="Group_151869"
             data-name="Group 151869">
            <g
               id="Group_10"
               data-name="Group 10">
              <path
                 id="Path_12"
                 data-name="Path 12"
                 class="cls-3"
                 d="m 348.9,269.88 h -6.4 v 3.31 l -13.37,-10.5 v 28.95 h 19.77 z" />
              <path
                 id="Path_13"
                 data-name="Path 13"
                 class="cls-3"
                 d="m 369.92,207.67 h -40.79 v 55.02 l 13.37,-9.34 v 3.25 h 6.4 v -12.17 c 0.18,-12.84 10.74,-23.1 23.58,-22.92 v 0 c 12.84,-0.18 23.4,10.08 23.58,22.92 v 13.6 c -0.1,6.78 -5.67,12.2 -12.45,12.1 h -21.69 v 21.51 h 7.99 c 23.85,0 43.19,-18.8 43.19,-41.99 v 0 c 0,-23.2 -19.33,-41.99 -43.18,-41.99 z" />
            </g>
            <path
               id="Path_14"
               data-name="Path 14"
               class="cls-3"
               d="m 381.76,240.6 c -1.8,-3.47 -5.37,-5.65 -9.28,-5.67 v 0 c -2.82,0 -5.51,1.15 -7.47,3.17 -0.24,0.25 -0.47,0.5 -0.68,0.77 -0.43,0.54 -0.81,1.12 -1.14,1.74 -0.84,1.59 -1.28,3.36 -1.27,5.16 v 10.83 h 21.11 v -10.83 c 0,-1.8 -0.43,-3.58 -1.27,-5.17 z" />
          </g>
        </g>
      </g>
    </g>
  </g>
</svg>
