<?xml version="1.0" standalone="no"?>
<!DOCTYPE svg PUBLIC "-//W3C//DTD SVG 1.1//EN" "http://www.w3.org/Graphics/SVG/1.1/DTD/svg11.dtd">
<svg id="Layer_1" xmlns="http://www.w3.org/2000/svg" viewBox="0 0 700 200" width="700" height="200"><defs><style>.cls-1{fill:#004445;}.cls-2{fill:#989191;}.cls-3{fill:#bababa;}.cls-4,.cls-5{fill:#dd7e3a;}.cls-6{fill:#dd7e3b;}.cls-7{fill:#157039;}.cls-8{fill:#368e43;}.cls-9{fill:#63ad45;}.cls-10{fill:#378e43;}.cls-5{opacity:.3;}</style></defs><g><path class="cls-9" d="M86.96,99.34c.06-.29,.12-.57,.17-.86,.16-.96,.56-1.82,1.06-2.65,1.92-3.16,3.83-6.32,5.75-9.47,3.07-5.05,6.14-10.11,9.2-15.16,1.8-2.97,3.59-5.94,5.39-8.91,1.52-2.5,3.06-4.99,4.57-7.49,1.2-2,2.92-3.26,5.22-3.7,.44-.08,.89-.12,1.33-.12,13.87,0,27.75-.02,41.62,0,2.74,0,4.94,1.2,6.38,3.56,3.28,5.35,6.52,10.73,9.78,16.1,1.67,2.75,3.34,5.5,5,8.25,1.84,3.04,3.68,6.09,5.52,9.14,1.59,2.62,3.18,5.23,4.78,7.83,.51,.84,.89,1.73,1.05,2.7,.21,1.26,.12,2.52-.28,3.75-.45,1.38-1.28,2.5-2.35,3.45-1.21,1.08-2.41,2.18-3.61,3.26-2.25,2.03-4.51,4.06-6.76,6.1-1.94,1.75-3.86,3.52-5.8,5.28-2.22,2.01-4.44,4-6.66,6.01-1.95,1.76-3.88,3.54-5.82,5.3-2.2,2-4.42,3.98-6.63,5.98-1.94,1.75-3.86,3.52-5.79,5.27-1.52,1.39-3.05,2.77-4.58,4.15-1.11,1-2.41,1.62-3.88,1.85-2.33,.36-4.4-.25-6.15-1.8-2.07-1.84-4.11-3.71-6.17-5.57-2.21-1.99-4.42-3.98-6.63-5.98-3.23-2.93-6.45-5.86-9.67-8.79-2.22-2.02-4.46-4.02-6.69-6.03-1.83-1.66-3.64-3.33-5.47-4.98-2.32-2.1-4.66-4.2-6.98-6.3-1.43-1.29-2.84-2.61-4.27-3.89-1.38-1.24-2.19-2.77-2.55-4.57-.04-.19-.05-.39-.08-.59,0-.37,0-.73,0-1.1Zm78.56,19.28c.32-.26,.64-.51,.95-.79,1.97-1.78,3.92-3.57,5.89-5.35,.87-.79,1.76-1.57,2.64-2.36,.86-.78,1.7-1.56,2.55-2.35,.65-.59,1.3-1.18,1.95-1.77,1.46-1.32,2.93-2.64,4.39-3.96,.67-.6,1.34-1.21,2.02-1.8,.18-.15,.23-.28,.09-.49-.34-.54-.65-1.08-.98-1.63-1.41-2.32-2.82-4.64-4.23-6.96-1.23-2.02-2.44-4.04-3.67-6.06-1.41-2.32-2.82-4.64-4.23-6.96-1.23-2.03-2.46-4.06-3.69-6.09-1.4-2.31-2.81-4.62-4.21-6.93-1.23-2.03-2.46-4.06-3.69-6.09-.07-.11-.2-.19-.3-.29-.16-.05-.31-.14-.47-.14-13.37,0-26.74,0-40.12,0-.11,0-.22-.01-.33,0-.05,.01-.09,.09-.14,.13-.08,.08-.19,.14-.25,.23-.45,.74-.9,1.48-1.35,2.22-1.4,2.31-2.81,4.62-4.21,6.93-1.26,2.08-2.52,4.17-3.79,6.25-1.41,2.33-2.83,4.66-4.25,6.99-1.61,2.65-3.23,5.31-4.84,7.96-1.52,2.5-3.03,5-4.54,7.5-.59,.97-1.17,1.94-1.76,2.9-.1,.16-.18,.3,.02,.47,.53,.46,1.05,.95,1.57,1.42,1.41,1.27,2.83,2.54,4.24,3.81,.87,.78,1.73,1.57,2.6,2.35,.17,.16,.34,.31,.51,.47,2.09,1.9,4.19,3.79,6.28,5.69,1.46,1.33,2.91,2.66,4.37,3.98,.28,.25,.58,.47,.87,.71,.26,.25,.52,.51,.79,.75,1.58,1.43,3.16,2.86,4.73,4.29,1.04,.94,2.07,1.88,3.11,2.82,1.55,1.41,3.1,2.81,4.66,4.22,1.04,.94,2.07,1.88,3.11,2.82,1.55,1.41,3.11,2.81,4.66,4.22,.95,.86,1.88,1.73,2.83,2.6,.38,.34,.76,.67,1.18,1.03,.73-.66,1.43-1.29,2.13-1.92,.65-.59,1.29-1.19,1.94-1.78,1.22-1.1,2.44-2.2,3.66-3.3,.83-.75,1.65-1.51,2.49-2.26,1.18-1.07,2.37-2.13,3.56-3.2,.89-.81,1.78-1.63,2.67-2.44,1.51-1.37,3.03-2.75,4.55-4.11,.61-.55,1.24-1.09,1.85-1.65,.74-.68,1.47-1.38,2.21-2.07Z"/><path class="cls-8" d="M103.36,107.77c-.87-.78-1.73-1.57-2.6-2.35-1.41-1.27-2.82-2.54-4.24-3.81-.52-.47-1.04-.95-1.57-1.42-.2-.17-.12-.31-.02-.47,.59-.97,1.17-1.94,1.76-2.9,1.51-2.5,3.03-5,4.54-7.5,1.61-2.65,3.22-5.31,4.84-7.96,1.42-2.33,2.83-4.66,4.25-6.99,1.26-2.08,2.52-4.17,3.79-6.25,1.4-2.31,2.81-4.62,4.21-6.93,.45-.74,.89-1.48,1.35-2.22,.06-.09,.17-.16,.25-.23,.15,.11,.31,.2,.43,.32,.88,.85,1.75,1.7,2.62,2.55,.94,.91,1.87,1.82,2.8,2.73,.87,.85,1.75,1.7,2.62,2.55,.95,.93,1.9,1.86,2.86,2.78,.88,.86,1.77,1.71,2.65,2.58,1.46,1.43,2.92,2.87,4.39,4.31,.66,.65,1.33,1.29,2,1.93,.04,.04,.09,.07,.15,.12,.52-.48,1.03-.95,1.53-1.43,.91-.88,1.82-1.77,2.73-2.65,.9-.88,1.8-1.75,2.7-2.63,.91-.88,1.82-1.77,2.73-2.65,.93-.9,1.85-1.8,2.78-2.7,.9-.88,1.8-1.75,2.7-2.63,1.47-1.44,2.94-2.89,4.41-4.33,.19-.19,.37-.39,.57-.57,.12-.1,.25-.18,.38-.27,.1,.1,.23,.17,.3,.29,1.23,2.03,2.46,4.06,3.69,6.09,1.4,2.31,2.81,4.62,4.21,6.93,1.23,2.03,2.46,4.06,3.69,6.09,1.41,2.32,2.82,4.64,4.23,6.96,1.23,2.02,2.44,4.04,3.67,6.06,1.41,2.32,2.82,4.64,4.23,6.96,.33,.54,.65,1.09,.98,1.63,.13,.21,.08,.34-.09,.49-.68,.59-1.35,1.2-2.02,1.8-1.47,1.32-2.93,2.64-4.39,3.96-.65,.59-1.3,1.18-1.95,1.77-.04-.09-.06-.19-.11-.27-1.56-2.48-3.13-4.96-4.7-7.44-1.23-1.95-2.46-3.89-3.69-5.84-1.95-3.09-3.9-6.18-5.84-9.27-1.14-1.8-2.27-3.61-3.41-5.41-.18-.29-.38-.58-.57-.88-.9,.86-1.76,1.68-2.62,2.52-1.58,1.54-3.15,3.1-4.72,4.65-2.84,2.81-5.67,5.62-8.51,8.43-.91,.9-1.83,1.79-2.75,2.68-.05,.05-.11,.08-.17,.13-.82-.79-1.64-1.56-2.44-2.34-1.59-1.55-3.17-3.11-4.75-4.67-2.68-2.65-5.36-5.31-8.04-7.96-1.11-1.1-2.23-2.19-3.35-3.28-.05-.05-.11-.09-.18-.14-.08,.11-.15,.19-.2,.28-1.84,2.91-3.67,5.83-5.51,8.75-1.89,3-3.78,5.99-5.67,8.99-2.04,3.22-4.07,6.44-6.11,9.67-.29,.46-.55,.94-.83,1.41Z"/><path class="cls-7" d="M103.36,107.77c.27-.47,.53-.95,.83-1.41,2.03-3.22,4.07-6.44,6.11-9.67,1.89-3,3.78-5.99,5.67-8.99,1.84-2.91,3.67-5.83,5.51-8.75,.06-.09,.13-.17,.2-.28,.07,.05,.13,.09,.18,.14,1.12,1.09,2.24,2.18,3.35,3.28,2.68,2.65,5.36,5.31,8.04,7.96,1.58,1.56,3.16,3.12,4.75,4.67,.8,.78,1.62,1.55,2.44,2.34,.06-.04,.12-.08,.17-.13,.92-.89,1.84-1.78,2.75-2.68,2.84-2.81,5.67-5.62,8.51-8.43,1.57-1.55,3.14-3.1,4.72-4.65,.85-.84,1.72-1.66,2.62-2.52,.19,.3,.39,.58,.57,.88,1.14,1.8,2.27,3.61,3.41,5.41,1.95,3.09,3.89,6.18,5.84,9.27,1.23,1.95,2.46,3.89,3.69,5.84,1.57,2.48,3.14,4.96,4.7,7.44,.05,.08,.07,.18,.11,.27-.85,.78-1.7,1.57-2.55,2.35-.87,.79-1.76,1.57-2.64,2.36-1.96,1.78-3.92,3.57-5.89,5.35-.3,.28-.63,.52-.95,.78-1.47-2.18-2.93-4.36-4.4-6.54-1.81-2.7-3.63-5.39-5.44-8.09-.16-.24-.33-.47-.5-.72-.09,.06-.14,.08-.18,.12-1.2,1.12-2.4,2.25-3.6,3.38-.79,.74-1.58,1.48-2.37,2.23-1.27,1.19-2.54,2.39-3.8,3.58-1.14,1.08-2.27,2.17-3.41,3.26-.44,.42-.89,.82-1.35,1.24-.45-.41-.89-.81-1.32-1.21-1.3-1.23-2.61-2.46-3.91-3.69-.8-.75-1.6-1.5-2.4-2.25-1.28-1.2-2.55-2.4-3.83-3.61-1.02-.96-2.03-1.93-3.05-2.89-.06-.05-.14-.08-.22-.13-.09,.12-.16,.21-.23,.31-1.32,1.95-2.63,3.89-3.95,5.84-2.06,3.06-4.11,6.12-6.17,9.19-.29-.24-.59-.46-.87-.71-1.46-1.32-2.91-2.66-4.37-3.98-2.09-1.9-4.18-3.79-6.28-5.69-.17-.15-.34-.31-.51-.47Z"/><path class="cls-10" d="M115.39,118.62c2.06-3.06,4.11-6.13,6.17-9.19,1.31-1.95,2.63-3.89,3.95-5.84,.07-.1,.14-.19,.23-.31,.08,.05,.16,.08,.22,.13,1.02,.96,2.03,1.93,3.05,2.89,1.27,1.21,2.55,2.41,3.83,3.61,.8,.75,1.6,1.5,2.4,2.25,1.3,1.23,2.6,2.46,3.91,3.69,.43,.41,.87,.8,1.32,1.21,.46-.42,.91-.82,1.35-1.24,1.14-1.08,2.27-2.17,3.41-3.26,1.26-1.2,2.53-2.39,3.8-3.58,.79-.74,1.58-1.48,2.37-2.23,1.2-1.13,2.4-2.25,3.6-3.38,.04-.04,.1-.07,.18-.12,.17,.25,.34,.48,.5,.72,1.82,2.7,3.63,5.39,5.44,8.09,1.47,2.18,2.93,4.36,4.4,6.54-.74,.69-1.47,1.39-2.21,2.07-.61,.56-1.24,1.1-1.85,1.65-1.52,1.37-3.04,2.74-4.55,4.11-.89,.81-1.78,1.63-2.67,2.44-1.18,1.07-2.37,2.13-3.56,3.2-.83,.75-1.66,1.51-2.49,2.26-1.22,1.1-2.44,2.2-3.66,3.3-.65,.59-1.29,1.19-1.94,1.78-.7,.64-1.41,1.27-2.13,1.92-.41-.36-.8-.69-1.18-1.03-.94-.86-1.88-1.73-2.83-2.6-1.55-1.41-3.1-2.81-4.66-4.22-1.04-.94-2.07-1.88-3.11-2.82-1.55-1.41-3.1-2.81-4.66-4.22-1.04-.94-2.08-1.88-3.11-2.82-1.58-1.43-3.16-2.86-4.73-4.29-.27-.24-.53-.5-.79-.75Z"/><path class="cls-7" d="M160.98,58.74c-.13,.09-.27,.17-.38,.27-.2,.18-.38,.38-.57,.57-1.47,1.44-2.94,2.89-4.41,4.33-.9,.88-1.8,1.75-2.7,2.63-.93,.9-1.85,1.8-2.78,2.7-.91,.88-1.82,1.77-2.73,2.65-.9,.88-1.8,1.75-2.7,2.63-.91,.88-1.81,1.77-2.73,2.65-.5,.48-1.01,.94-1.53,1.43-.06-.04-.11-.08-.15-.12-.67-.64-1.34-1.28-2-1.93-1.46-1.43-2.92-2.87-4.39-4.31-.88-.86-1.77-1.72-2.65-2.58-.95-.93-1.9-1.86-2.86-2.78-.87-.85-1.75-1.7-2.62-2.55-.94-.91-1.87-1.82-2.8-2.73-.87-.85-1.75-1.7-2.62-2.55-.13-.12-.29-.22-.43-.32,.05-.05,.09-.12,.14-.13,.11-.02,.22,0,.33,0,13.37,0,26.74,0,40.12,0,.16,0,.31,.09,.47,.14Z"/></g><g><path class="cls-1" d="M269.63,53.87v46.73h-11.38v-28.03l-10.45,28.03h-9.19l-10.52-28.09v28.09h-11.38V53.87h13.45l13.11,32.35,12.98-32.35h13.38Z"/><path class="cls-1" d="M279.04,71.91c1.44-2.88,3.41-5.1,5.89-6.66,2.48-1.55,5.26-2.33,8.32-2.33,2.62,0,4.91,.53,6.89,1.6,1.97,1.07,3.49,2.46,4.56,4.19v-5.26h11.38v37.15h-11.38v-5.26c-1.11,1.73-2.65,3.13-4.63,4.19-1.97,1.07-4.27,1.6-6.89,1.6-3.02,0-5.77-.79-8.25-2.36-2.49-1.57-4.45-3.82-5.89-6.72-1.44-2.91-2.16-6.27-2.16-10.08s.72-7.17,2.16-10.05Zm23.3,3.39c-1.58-1.64-3.5-2.46-5.76-2.46s-4.18,.81-5.76,2.43c-1.58,1.62-2.36,3.85-2.36,6.69s.79,5.09,2.36,6.76c1.57,1.66,3.5,2.5,5.76,2.5s4.18-.82,5.76-2.46c1.57-1.64,2.36-3.88,2.36-6.72s-.79-5.08-2.36-6.72Z"/><path class="cls-1" d="M342.18,64.83c2-1.18,4.22-1.76,6.66-1.76v12.05h-3.13c-2.84,0-4.97,.61-6.39,1.83-1.42,1.22-2.13,3.36-2.13,6.42v17.24h-11.38V63.46h11.38v6.19c1.33-2.04,3-3.65,4.99-4.83Z"/><path class="cls-1" d="M377.05,100.61l-11.32-15.58v15.58h-11.38V51.34h11.38v27.23l11.25-15.11h14.05l-15.44,18.64,15.58,18.51h-14.11Z"/><path class="cls-1" d="M431.92,84.76h-25.76c.18,2.31,.92,4.07,2.23,5.29,1.31,1.22,2.92,1.83,4.83,1.83,2.84,0,4.81-1.2,5.92-3.59h12.12c-.62,2.44-1.74,4.64-3.36,6.59-1.62,1.95-3.65,3.48-6.09,4.59-2.44,1.11-5.17,1.66-8.19,1.66-3.64,0-6.88-.78-9.72-2.33-2.84-1.55-5.06-3.77-6.66-6.66-1.6-2.88-2.4-6.26-2.4-10.12s.79-7.23,2.36-10.12c1.58-2.88,3.78-5.1,6.62-6.66,2.84-1.55,6.1-2.33,9.79-2.33s6.79,.75,9.59,2.26c2.8,1.51,4.98,3.66,6.56,6.46,1.58,2.8,2.36,6.06,2.36,9.79,0,1.07-.07,2.17-.2,3.33Zm-11.45-6.32c0-1.95-.67-3.51-2-4.66-1.33-1.15-3-1.73-4.99-1.73s-3.52,.56-4.83,1.66c-1.31,1.11-2.12,2.69-2.43,4.73h14.25Z"/><path class="cls-1" d="M459.15,90.95v9.65h-5.79c-4.13,0-7.35-1.01-9.65-3.03-2.31-2.02-3.46-5.31-3.46-9.89v-14.78h-4.53v-9.45h4.53v-9.05h11.38v9.05h7.46v9.45h-7.46v14.91c0,1.11,.27,1.91,.8,2.4,.53,.49,1.42,.73,2.66,.73h4.06Z"/><path class="cls-1" d="M519.44,53.87v46.73h-11.38v-28.03l-10.45,28.03h-9.19l-10.52-28.09v28.09h-11.38V53.87h13.45l13.11,32.35,12.98-32.35h13.38Z"/><path class="cls-1" d="M528.85,71.91c1.44-2.88,3.41-5.1,5.89-6.66,2.49-1.55,5.26-2.33,8.32-2.33,2.62,0,4.91,.53,6.89,1.6,1.97,1.07,3.5,2.46,4.56,4.19v-5.26h11.38v37.15h-11.38v-5.26c-1.11,1.73-2.65,3.13-4.63,4.19-1.98,1.07-4.27,1.6-6.89,1.6-3.02,0-5.77-.79-8.26-2.36-2.49-1.57-4.45-3.82-5.89-6.72-1.44-2.91-2.16-6.27-2.16-10.08s.72-7.17,2.16-10.05Zm23.3,3.39c-1.58-1.64-3.5-2.46-5.76-2.46s-4.18,.81-5.76,2.43c-1.58,1.62-2.36,3.85-2.36,6.69s.79,5.09,2.36,6.76c1.57,1.66,3.5,2.5,5.76,2.5s4.18-.82,5.76-2.46c1.57-1.64,2.36-3.88,2.36-6.72s-.79-5.08-2.36-6.72Z"/><path class="cls-1" d="M608.53,67.29c2.6,2.82,3.9,6.69,3.9,11.62v21.7h-11.32v-20.17c0-2.48-.64-4.42-1.93-5.79-1.29-1.38-3.02-2.06-5.19-2.06s-3.9,.69-5.19,2.06c-1.29,1.38-1.93,3.31-1.93,5.79v20.17h-11.38V63.46h11.38v4.93c1.15-1.64,2.71-2.94,4.66-3.89,1.95-.95,4.15-1.43,6.59-1.43,4.35,0,7.82,1.41,10.42,4.23Z"/></g><g><path class="cls-2" d="M315.61,129.5c-.33,.61-.85,1.1-1.55,1.47-.7,.37-1.59,.56-2.66,.56h-2.18v5h-2.61v-13.01h4.79c1.01,0,1.86,.17,2.57,.52,.71,.35,1.24,.83,1.59,1.44s.53,1.3,.53,2.07c0,.7-.16,1.35-.49,1.96Zm-2.71-.57c.35-.33,.52-.79,.52-1.39,0-1.27-.71-1.9-2.13-1.9h-2.07v3.79h2.07c.72,0,1.26-.16,1.6-.49Z"/><path class="cls-2" d="M320.41,136.03c-.8-.44-1.42-1.07-1.87-1.87s-.68-1.74-.68-2.8,.23-1.99,.7-2.8c.47-.81,1.1-1.43,1.91-1.87,.81-.44,1.71-.66,2.7-.66s1.9,.22,2.7,.66c.81,.44,1.44,1.07,1.91,1.87,.47,.81,.7,1.74,.7,2.8s-.24,1.99-.72,2.8-1.12,1.43-1.94,1.87-1.72,.66-2.73,.66-1.89-.22-2.68-.66Zm4.02-1.96c.42-.23,.75-.58,1-1.04,.25-.46,.37-1.02,.37-1.68,0-.98-.26-1.74-.77-2.26-.52-.53-1.15-.79-1.89-.79s-1.37,.26-1.87,.79c-.5,.53-.75,1.28-.75,2.26s.25,1.74,.74,2.27c.49,.53,1.11,.79,1.86,.79,.47,0,.92-.11,1.33-.34Z"/><path class="cls-2" d="M345.28,126.2l-3.02,10.33h-2.82l-1.88-7.22-1.88,7.22h-2.83l-3.04-10.33h2.65l1.83,7.87,1.98-7.87h2.76l1.94,7.85,1.83-7.85h2.5Z"/><path class="cls-2" d="M356.78,132.14h-7.55c.06,.75,.32,1.33,.78,1.75s1.03,.63,1.7,.63c.97,0,1.66-.42,2.07-1.25h2.82c-.3,.99-.87,1.81-1.72,2.45s-1.88,.96-3.11,.96c-.99,0-1.89-.22-2.68-.66-.79-.44-1.4-1.07-1.85-1.87s-.66-1.74-.66-2.8,.22-2.01,.65-2.81c.44-.81,1.04-1.43,1.83-1.87,.78-.43,1.68-.65,2.7-.65s1.86,.21,2.64,.63c.78,.42,1.38,1.02,1.81,1.8,.43,.78,.64,1.67,.64,2.68,0,.37-.02,.71-.07,1.01Zm-2.63-1.75c-.01-.67-.25-1.21-.73-1.61-.47-.4-1.05-.61-1.73-.61-.65,0-1.19,.2-1.63,.59-.44,.39-.71,.93-.81,1.63h4.9Z"/><path class="cls-2" d="M363.24,126.51c.54-.31,1.16-.47,1.86-.47v2.74h-.69c-.82,0-1.44,.19-1.86,.58-.42,.39-.62,1.06-.62,2.01v5.15h-2.61v-10.33h2.61v1.6c.34-.55,.77-.98,1.31-1.29Z"/><path class="cls-2" d="M376.94,132.14h-7.55c.06,.75,.32,1.33,.78,1.75s1.03,.63,1.7,.63c.97,0,1.66-.42,2.07-1.25h2.81c-.3,.99-.87,1.81-1.71,2.45-.85,.64-1.88,.96-3.11,.96-.99,0-1.89-.22-2.68-.66-.79-.44-1.4-1.07-1.85-1.87s-.66-1.74-.66-2.8,.22-2.01,.65-2.81c.44-.81,1.04-1.43,1.83-1.87,.78-.43,1.68-.65,2.7-.65s1.86,.21,2.64,.63c.78,.42,1.38,1.02,1.81,1.8,.43,.78,.64,1.67,.64,2.68,0,.37-.02,.71-.07,1.01Zm-2.63-1.75c-.01-.67-.26-1.21-.73-1.61-.47-.4-1.05-.61-1.73-.61-.65,0-1.19,.2-1.63,.59-.44,.39-.71,.93-.81,1.63h4.9Z"/><path class="cls-2" d="M379.43,128.55c.42-.81,.98-1.43,1.71-1.87,.72-.43,1.52-.65,2.41-.65,.67,0,1.31,.15,1.92,.44,.61,.29,1.09,.68,1.45,1.17v-4.9h2.65v13.8h-2.65v-1.53c-.32,.51-.78,.92-1.36,1.23s-1.26,.47-2.03,.47c-.87,0-1.67-.22-2.39-.67-.72-.45-1.29-1.08-1.71-1.89-.42-.81-.63-1.75-.63-2.81s.21-1.97,.63-2.78Zm7.13,1.18c-.25-.45-.58-.8-1.01-1.04-.42-.24-.88-.36-1.36-.36s-.93,.12-1.34,.35c-.41,.24-.74,.58-1,1.04-.26,.45-.38,.99-.38,1.61s.13,1.17,.38,1.63c.25,.47,.59,.82,1.01,1.07,.42,.25,.86,.37,1.33,.37s.94-.12,1.36-.36,.76-.59,1.01-1.04,.37-1,.37-1.63-.12-1.18-.37-1.63Z"/><path class="cls-2" d="M401.67,126.49c.59-.31,1.26-.47,2.02-.47,.88,0,1.68,.22,2.4,.65,.71,.44,1.28,1.05,1.7,1.86,.42,.8,.62,1.73,.62,2.79s-.21,1.99-.62,2.81c-.42,.81-.98,1.44-1.7,1.89-.71,.45-1.51,.67-2.4,.67-.77,0-1.44-.15-2.02-.46s-1.04-.7-1.39-1.18v1.47h-2.61v-13.8h2.61v4.98c.34-.5,.8-.9,1.39-1.21Zm3.69,3.22c-.25-.45-.59-.8-1.01-1.04-.42-.24-.87-.35-1.35-.35s-.92,.12-1.33,.36c-.42,.24-.75,.59-1.01,1.05-.26,.46-.38,1-.38,1.62s.13,1.16,.38,1.62c.25,.46,.59,.81,1.01,1.05s.86,.36,1.33,.36,.94-.12,1.35-.37c.42-.25,.75-.6,1.01-1.06,.25-.46,.38-1.01,.38-1.64s-.13-1.16-.38-1.61Z"/><path class="cls-2" d="M420.75,126.2l-6.39,15.21h-2.78l2.24-5.15-4.14-10.07h2.93l2.67,7.21,2.7-7.21h2.78Z"/></g><g><path class="cls-3" d="M536.6,112.7c0,1.45-1.15,2.6-2.6,2.6-1.47,0-2.6-1.15-2.6-2.64,0-1.46,1.14-2.6,2.6-2.6,1.47,0,2.6,1.16,2.6,2.64Z"/><path class="cls-3" d="M564.94,127.29c.59-.56,1.18-1.11,1.77-1.67,2.1-1.98,4.19-3.96,6.3-5.93,.78-.73,1.97-.69,2.69,.06,.73,.77,.73,1.97-.07,2.7-1.46,1.35-2.94,2.67-4.41,4-.28,.26-.56,.52-.86,.77-.2,.17-.11,.3,.02,.45,1.22,1.5,2.44,3.01,3.66,4.52,.78,.96,1.55,1.91,2.32,2.88,.65,.82,.57,1.82-.18,2.55-.74,.72-1.9,.83-2.64,.15-.52-.47-.94-1.05-1.38-1.6-1.56-1.95-3.12-3.91-4.66-5.88-.19-.24-.31-.26-.54-.05-.59,.56-1.19,1.11-1.81,1.64-.24,.2-.31,.42-.31,.71,.01,1.21,.02,2.42,0,3.62-.01,.93-.63,1.69-1.54,1.93-.88,.23-1.84-.12-2.28-.89-.16-.28-.26-.63-.27-.95-.04-.81-.02-1.63-.02-2.44,0-7.21,0-14.43,0-21.64,0-1.06,.51-1.77,1.43-2.03,1.42-.4,2.68,.55,2.68,2.04,0,4.84,0,9.69,0,14.53v.46l.09,.04Z"/><path class="cls-3" d="M465.74,129.8c-1.86,0-3.71,0-5.57,0-.47,0-.52,.06-.44,.53,.58,3.27,3.21,4.87,6.3,4.6,1.36-.12,2.62-.54,3.81-1.18,.13-.07,.26-.13,.39-.19,.83-.35,1.61-.12,2.03,.59,.43,.73,.28,1.69-.37,2.21-.78,.63-1.69,1-2.64,1.26-2.61,.73-5.25,.9-7.86,.01-3.45-1.17-5.31-3.7-5.93-7.19-.33-1.87-.24-3.72,.43-5.51,1.25-3.33,3.68-5.23,7.2-5.68,1.88-.24,3.73-.08,5.49,.71,2.61,1.18,4.12,3.21,4.55,6.02,.11,.7,.15,1.44,.06,2.13-.14,1.09-.93,1.68-2.03,1.68-1.81,0-3.62,0-5.43,0Zm-1.29-2.8c1.45,0,2.9,0,4.35,0,.25,0,.43-.04,.4-.35-.11-1.27-.54-2.39-1.56-3.19-1.52-1.2-4.04-1.32-5.75-.34-1.32,.75-1.89,1.97-2.16,3.39-.08,.43-.03,.49,.4,.49,1.44,0,2.88,0,4.31,0Z"/><path class="cls-3" d="M588.67,129.8c-1.86,0-3.72,0-5.57,0-.49,0-.51,.03-.42,.52,.46,2.51,2.05,4.13,4.5,4.54,1.62,.27,3.17-.01,4.67-.66,.41-.18,.79-.4,1.19-.58,.88-.41,1.67-.24,2.1,.44,.52,.81,.36,1.78-.39,2.38-.67,.53-1.45,.84-2.25,1.1-2.28,.73-4.61,.92-6.95,.44-3.36-.69-5.67-2.66-6.74-5.93-.92-2.82-.83-5.62,.55-8.29,1.42-2.73,3.75-4.17,6.79-4.51,1.79-.2,3.55-.06,5.22,.66,2.85,1.23,4.42,3.42,4.76,6.48,.07,.6,.08,1.22-.01,1.82-.15,1-.94,1.6-1.95,1.61-1.83,0-3.67,0-5.5,0Zm-1.29-2.8c.32,0,.65,0,.97,0,1.15,0,2.3,0,3.45,0,.16,0,.37,.04,.35-.23-.08-1.1-.39-2.12-1.17-2.94-1.56-1.64-4.69-1.83-6.59-.43-1.05,.78-1.5,1.89-1.72,3.12-.08,.45-.06,.47,.4,.47,1.44,0,2.88,0,4.31,0Z"/><path class="cls-3" d="M491.71,130.84c0,1.73,0,3.47,0,5.2,0,1.02-.5,1.77-1.36,2.06-.91,.31-1.86,.02-2.45-.78-.18-.25-.32-.11-.49-.03-2.26,1.02-4.61,1.24-6.98,.61-2.06-.55-3.52-1.84-3.98-4.01-.34-1.59-.09-3.07,1.04-4.33,.7-.78,1.6-1.25,2.55-1.63,1.56-.61,3.21-.89,4.86-1.08,.8-.09,1.6-.16,2.39-.23,.2-.02,.33-.11,.3-.31-.09-.71-.1-1.44-.31-2.11-.36-1.11-1.25-1.64-2.38-1.8-1.66-.23-3.17,.25-4.66,.91-.38,.17-.78,.31-1.19,.4-.71,.16-1.35-.17-1.65-.78-.3-.63-.14-1.4,.39-1.86,.73-.63,1.63-.96,2.53-1.24,2.03-.64,4.1-.84,6.21-.5,2.96,.47,4.92,2.51,5.09,5.5,.11,2,.02,4.01,.02,6.02h.07Zm-4.11,1.04c0-.66-.01-1.32,0-1.97,0-.32-.12-.42-.43-.4-1.39,.07-2.77,.21-4.11,.61-.61,.18-1.23,.43-1.77,.77-1.17,.75-1.36,2.15-.48,3.2,.46,.54,1.1,.8,1.77,.96,1.68,.38,3.26,.05,4.75-.77,.13-.07,.24-.29,.25-.45,.03-.64,.01-1.29,.01-1.94Z"/><path class="cls-3" d="M601.18,127.65c0-1.46,0-2.92,0-4.38,0-.49,0-.49-.51-.49-.38,0-.77,0-1.15-.01-.81-.04-1.44-.76-1.43-1.6,.01-.88,.65-1.6,1.45-1.63,.42-.02,.84-.02,1.26,0,.28,0,.39-.1,.38-.38-.01-.8-.02-1.6,0-2.4,.02-.83,.36-1.49,1.12-1.87,.78-.38,1.54-.3,2.24,.2,.51,.37,.79,.89,.8,1.53,0,.83,.01,1.65,0,2.48,0,.32,.1,.44,.43,.44,1.37-.01,2.73,0,4.1,0,.79,0,1.38,.46,1.58,1.21,.2,.72-.08,1.45-.74,1.81-.25,.14-.56,.21-.85,.21-1.33,.02-2.66,0-3.99,.01-.51,0-.52,.02-.52,.53,0,2.81,0,5.62,0,8.43,0,.46,.08,.93,.2,1.38,.28,1.03,1,1.56,2.07,1.64,.79,.05,1.49-.17,2.15-.58,.29-.18,.58-.38,.89-.53,.68-.35,1.53-.23,1.97,.25,.49,.54,.55,1.46,.13,2.11-.35,.54-.86,.91-1.41,1.19-2.12,1.1-4.34,1.36-6.62,.66-1.81-.56-2.84-1.9-3.26-3.69-.18-.74-.25-1.51-.28-2.27-.04-1.41-.01-2.82-.01-4.23Z"/><path class="cls-3" d="M517.59,128c0-1.58,0-3.16,0-4.74,0-.46-.03-.49-.49-.49-.4,0-.79,0-1.19,0-.82-.03-1.47-.73-1.47-1.56,0-.89,.64-1.62,1.46-1.67,.36-.02,.72,0,1.08,0q.6,0,.61-.59c0-.79,0-1.58,0-2.37,0-1.07,.9-1.91,2.01-1.92,1.12,0,2.08,.84,2.1,1.89,.02,.82,0,1.65,0,2.48,0,.5,0,.51,.5,.51,1.37,0,2.73,0,4.1,0,.78,0,1.36,.5,1.55,1.3,.16,.69-.19,1.48-.84,1.78-.24,.11-.53,.16-.8,.16-1.32,.02-2.64,0-3.95,0-.54,0-.55,.01-.55,.53,0,2.76,0,5.52,0,8.29,0,.37,.05,.74,.11,1.1,.27,1.73,1.57,2.25,2.99,1.99,.53-.1,1.04-.41,1.53-.66,.46-.23,.86-.57,1.41-.58,1.29-.03,2.08,1.21,1.46,2.36-.2,.37-.51,.7-.84,.96-1.19,.91-2.58,1.31-4.05,1.42-.76,.06-1.54,.03-2.29-.09-2.44-.4-4.07-2.13-4.34-4.63-.12-1.09-.08-2.2-.1-3.29-.01-.72,0-1.43,0-2.15Z"/><path class="cls-3" d="M550.43,138.26c-2-.03-3.89-.42-5.63-1.42-2.3-1.33-3.63-3.35-4.12-5.93-.36-1.89-.32-3.77,.36-5.59,.91-2.44,2.59-4.18,4.98-5.19,2.88-1.22,5.82-1.28,8.75-.14,.53,.21,1.06,.53,1.48,.92,.85,.8,.62,2.18-.4,2.75-.5,.28-1.04,.26-1.57,.07-.55-.2-1.08-.48-1.63-.65-2-.61-3.93-.43-5.65,.82-1.46,1.06-2.14,2.58-2.26,4.34-.09,1.36,.14,2.68,.86,3.86,1.05,1.74,2.67,2.52,4.64,2.64,1.39,.09,2.71-.2,3.97-.81,.95-.46,1.9-.22,2.37,.58,.46,.77,.29,1.71-.42,2.25-.98,.74-2.13,1.08-3.32,1.27-.79,.12-1.59,.15-2.39,.22Z"/><path class="cls-3" d="M496.95,124.13c0-4.01,0-8.01,0-12.02,0-1.02,.78-1.87,1.78-1.97,1.15-.11,2.09,.54,2.29,1.6,.03,.14,.03,.29,.03,.43,0,8,0,16,0,24,0,.98-.7,1.85-1.62,2.01-1.06,.19-2.02-.33-2.37-1.3-.09-.25-.11-.54-.11-.81,0-3.98,0-7.97,0-11.95Z"/><path class="cls-3" d="M536.02,128.71c0,2.46,0,4.93,0,7.39,0,1.21-.77,2.06-1.89,2.1-1.28,.04-2.12-.71-2.21-1.98,0-.11,0-.22,0-.32,0-4.82,0-9.64,0-14.46,0-1.14,.52-1.93,1.48-2.2,1.43-.4,2.66,.68,2.64,1.93-.04,2.51-.01,5.02-.01,7.53Z"/><path class="cls-4" d="M446.48,114.91c1.06,0,2.12-.07,3.17,.03,1.27,.12,2.19,1.3,2.19,2.61,0,6.34,0,12.68,0,19.01,0,1.49-1.15,2.66-2.62,2.67-1.55,0-2.75-1.14-2.75-2.66,0-4.29,0-8.59,.01-12.88,0-.16-.01-.32-.02-.48,.01-.06,.03-.12,.03-.18,0-2.71,0-5.42,0-8.12Z"/><path class="cls-4" d="M431.75,133.84c0,.89-.02,1.77-.02,2.66,0,1.56-1.19,2.78-2.71,2.77-1.51-.01-2.69-1.21-2.69-2.75,0-3.48,0-6.97,0-10.45,0-.11,0-.22,0-.32,1.09,0,2.17-.07,3.22,.03,.47,.05,.91,.44,1.36,.67,.6,.63,.83,1.38,.82,2.24-.02,1.72,0,3.43,.01,5.15Z"/><path class="cls-6" d="M436.36,120.38c.07-.04,.14-.11,.2-.11,.89,0,1.79,0,2.68,.02,.74,.01,1.32,.39,1.86,.85,.45,.62,.72,1.3,.67,2.08-.02,.4,0,.81,0,1.21,0,1.33,.01,2.67,.02,4,0,.38-.02,.76-.02,1.14-.02,1.5-1.22,2.69-2.72,2.68-1.49,0-2.67-1.2-2.68-2.72,0-.32,0-.64-.01-.96,0-2.15,0-4.3,.01-6.45,0-.59-.01-1.18-.02-1.77Z"/><path class="cls-5" d="M441.8,128.45c0-1.33-.02-2.67-.02-4,0-.4-.02-.81,0-1.21,.04-.78-.23-1.46-.67-2.08,.37-.46,.74-.94,1.12-1.39,1.22-1.42,2.44-2.83,3.66-4.25,.18-.21,.39-.4,.58-.6,0,2.71,0,5.42,0,8.12,0,.06-.02,.12-.03,.18-.64,.72-1.28,1.43-1.92,2.15-.73,.84-1.45,1.68-2.18,2.52-.17,.2-.37,.37-.56,.56Z"/><path class="cls-5" d="M436.36,120.38c0,.59,.02,1.18,.02,1.77,0,2.15,0,4.3-.01,6.45-.53,.59-1.06,1.19-1.58,1.79-.73,.84-1.45,1.69-2.18,2.53-.28,.32-.58,.62-.86,.93,0-1.72-.03-3.43-.01-5.15,.01-.87-.22-1.61-.82-2.24,.32-.31,.66-.6,.96-.93,.7-.79,1.37-1.6,2.05-2.4,.75-.87,1.51-1.74,2.26-2.61,.05-.05,.12-.08,.18-.12Z"/></g></svg>