<svg width="97" height="30" viewBox="0 0 97 30" fill="none" xmlns="http://www.w3.org/2000/svg">
<path d="M6.55422 0.639246H2.48709L0 20.6593H5.0327L6.29088 9.87925L10.3873 18.3347H14.074L18.1411 9.87925L19.3701 20.6593H24.4028L21.9449 0.639246H17.8193L12.2306 12.814L6.55422 0.639246Z" fill="#040F2D"/>
<path d="M32.9268 13.6857L30.2641 7.11887H25.1729L30.5274 18.8577L27.104 27.3423H31.9904L40.4173 7.11887H35.4724L32.9268 13.6857Z" fill="#040F2D"/>
<path d="M51.0903 3.51585L48.808 12.0294L45.3261 0.639246H40.0301L46.8184 20.6593H50.6221L53.08 10.9253L55.6256 20.6593H59.4001L66.2469 0.639246H60.9216L57.4104 12.0294L55.1574 3.51585H51.0903Z" fill="#040F2D"/>
<path d="M67.7922 7.11887V20.6593H72.4445V7.11887H67.7922ZM67.2948 2.61509C67.2948 4.03887 68.5822 5.25925 70.1037 5.25925C71.6545 5.25925 72.8834 4.09698 72.8834 2.61509C72.8834 1.13321 71.6545 0 70.1037 0C68.5822 0 67.2948 1.13321 67.2948 2.61509Z" fill="#040F2D"/>
<path d="M81.4068 12.9011H87.7562V8.71699H81.4068V4.88151H89.424V0.639246H76.4618V20.6593H81.4068V12.9011Z" fill="#040F2D"/>
<path d="M91.9088 7.11887V20.6593H96.5611V7.11887H91.9088ZM91.4114 2.61509C91.4114 4.03887 92.6988 5.25925 94.2203 5.25925C95.7711 5.25925 97 4.09698 97 2.61509C97 1.13321 95.7711 0 94.2203 0C92.6988 0 91.4114 1.13321 91.4114 2.61509Z" fill="#040F2D"/>
<path d="M46.5711 25.9827L44.491 22.2249H42.9663V29.2037H44.6526V25.3953L46.7831 29.2037H48.2573V22.2249H46.5711V25.9827Z" fill="#040F2D"/>
<path d="M54.616 27.7249H51.6978V26.4892H54.1818V25.0408H51.6978V23.7038H54.5251V22.2249H50.0116V29.2037H54.616V27.7249Z" fill="#040F2D"/>
<path d="M57.3731 29.2037H59.0594V23.7038H60.8567V22.2249H55.5758V23.7038H57.3731V29.2037Z" fill="#040F2D"/>
<path d="M65.089 23.2277L64.3014 26.1954L63.0998 22.2249H61.2722L63.6148 29.2037H64.9274L65.7756 25.8105L66.6541 29.2037H67.9566L70.3194 22.2249H68.4817L67.27 26.1954L66.4925 23.2277H65.089Z" fill="#040F2D"/>
<path d="M70.7339 25.7194C70.7339 26.7019 71.0772 27.5527 71.7739 28.2516C72.4706 28.9505 73.2986 29.2949 74.2781 29.2949C75.2676 29.2949 76.1057 28.9505 76.7923 28.2516C77.489 27.5527 77.8323 26.7019 77.8323 25.7194C77.8323 24.7268 77.489 23.8861 76.7923 23.1872C76.1057 22.4883 75.2676 22.1338 74.2781 22.1338C73.2986 22.1338 72.4605 22.4883 71.7638 23.1872C71.0772 23.8861 70.7339 24.7268 70.7339 25.7194ZM74.2781 27.5932C73.7631 27.5932 73.3289 27.4109 72.9755 27.0463C72.6221 26.6816 72.4403 26.236 72.4403 25.7194C72.4403 25.2028 72.6221 24.7572 72.9755 24.3925C73.3289 24.0177 73.7631 23.8354 74.2781 23.8354C74.793 23.8354 75.2272 24.0177 75.5907 24.3925C75.9542 24.7572 76.136 25.2028 76.136 25.7194C76.136 26.236 75.9542 26.6816 75.5907 27.0463C75.2373 27.4109 74.793 27.5932 74.2781 27.5932Z" fill="#040F2D"/>
<path d="M80.8847 26.8741H81.0362L82.5306 29.2037H84.4895L82.7931 26.793C83.3283 26.6614 83.7423 26.3879 84.025 25.9726C84.3178 25.5573 84.4592 25.0813 84.4592 24.5546C84.4592 23.9165 84.2572 23.3695 83.8432 22.9137C83.4293 22.4579 82.8436 22.2249 82.0762 22.2249H79.1985V29.2037H80.8847V26.8741ZM81.9954 23.7038C83.0052 23.643 83.0052 25.4662 81.9954 25.4155H80.8847V23.7038H81.9954Z" fill="#040F2D"/>
<path d="M91.0588 22.2249H88.9485L87.5651 24.2203V22.2249H85.8789V29.2037H87.5651V27.0767L89.3827 29.2037H91.695L88.4436 25.6687L91.0588 22.2249Z" fill="#040F2D"/>
<path d="M91.8603 27.1273C91.8603 27.7857 92.0926 28.3124 92.557 28.7074C93.0215 29.1024 93.6475 29.2949 94.425 29.2949C95.2732 29.2949 96.0305 29.0619 96.5859 28.4035C96.8585 28.0693 96.9999 27.654 96.9999 27.1678C96.9999 26.1448 96.3536 25.4358 95.0713 25.0408L94.2736 24.7875C93.8394 24.6559 93.6274 24.4735 93.6274 24.2203C93.6274 23.8861 93.9101 23.6632 94.3645 23.6632C94.8491 23.6632 95.0915 23.8759 95.0915 24.3115H96.7777C96.7777 23.6329 96.5556 23.1062 96.1113 22.7213C95.667 22.3262 95.0915 22.1338 94.3847 22.1338C93.6778 22.1338 93.0922 22.3364 92.6378 22.7314C92.1834 23.1264 91.9512 23.6329 91.9512 24.271C91.9613 24.9091 92.2036 25.9017 93.7687 26.3271L94.5866 26.6006C95.0006 26.7323 95.2328 26.945 95.2631 27.026C95.2732 27.0665 95.2833 27.1172 95.2833 27.1779C95.2833 27.5831 94.8996 27.8059 94.425 27.8059C93.8697 27.8059 93.5971 27.5324 93.5668 27.1273H91.8603Z" fill="#040F2D"/>
</svg>
