<?xml version="1.0" encoding="UTF-8"?>
<svg width="145" height="60" viewBox="0 0 145 60" fill="none" xmlns="http://www.w3.org/2000/svg">
    <g clip-path="url(#clip0_1107_1411)">
    <path fill-rule="evenodd" clip-rule="evenodd" d="M97.196 22.7956C94.8036 22.7956 92.6425 21.936 91.1105 20.3752C89.5771 18.8129 88.7324 16.6086 88.7324 14.1691C88.7324 11.7414 89.5765 9.55145 91.109 8.00342C92.6388 6.45751 94.8005 5.60645 97.196 5.60645C99.0379 5.60645 100.733 6.20158 102.098 7.32803L102.994 8.06633V6.12408L106.916 6.12468V22.2141H102.932L102.921 20.405L102.036 21.1208C100.684 22.2165 99.0097 22.7956 97.196 22.7956ZM97.6349 9.36786C94.9267 9.36786 92.8844 11.4378 92.8844 14.1822C92.8844 16.9351 94.9267 19.0114 97.6349 19.0114C100.343 19.0114 102.386 16.9351 102.386 14.1822C102.386 11.4378 100.343 9.36786 97.6349 9.36786Z" fill="#191919"/>
    <mask id="mask0_1107_1411" style="mask-type:alpha" maskUnits="userSpaceOnUse" x="139" y="25" width="6" height="6">
    <path d="M139.136 25.1045H144.617V30.5854H139.136V25.1045Z" fill="white"/>
    </mask>
    <g mask="url(#mask0_1107_1411)">
    <path fill-rule="evenodd" clip-rule="evenodd" d="M141.877 30.5854C140.365 30.5854 139.136 29.3562 139.136 27.8449C139.136 26.334 140.365 25.1045 141.877 25.1045C143.388 25.1045 144.617 26.334 144.617 27.8449C144.617 29.3562 143.388 30.5854 141.877 30.5854Z" fill="#191919"/>
    </g>
    <path fill-rule="evenodd" clip-rule="evenodd" d="M109.267 30.5854C107.756 30.5854 106.527 29.3562 106.527 27.8449C106.527 26.334 107.756 25.1045 109.267 25.1045C110.779 25.1045 112.008 26.334 112.008 27.8449C112.008 29.3562 110.779 30.5854 109.267 30.5854Z" fill="#191919"/>
    <path fill-rule="evenodd" clip-rule="evenodd" d="M111.559 37.9685V39.9624C111.559 42.2241 113.392 44.0579 115.654 44.0579H120.404V48.8059H115.489C110.655 48.8059 107.585 44.888 107.585 40.0545V37.9685L108.121 37.4326H111.023L111.559 37.9685Z" fill="#191919"/>
    <path fill-rule="evenodd" clip-rule="evenodd" d="M102.302 44.0212C104.678 44.0212 106.738 42.0954 106.738 39.7191V32.5832H111.56V37.9321C111.56 43.1273 109.102 48.8054 102.17 48.8054H102.153C96.9574 48.8054 92.4297 44.6425 92.4297 39.3987V24.9287H97.5969V39.4507C97.5969 41.975 99.7774 44.0212 102.302 44.0212Z" fill="#191919"/>
    <path fill-rule="evenodd" clip-rule="evenodd" d="M70.987 50.4845C70.7004 53.6183 72.4125 56.7456 75.7931 58.2158C78.9031 59.5684 84.5156 60.2915 90.5181 57.362L89.5822 52.5721C84.2205 55.5708 74.9949 55.2681 75.6648 50.3568C75.987 47.9957 78.7056 47.386 81.5813 47.386C83.3217 47.386 85.9679 47.3596 85.9679 47.3596L86.3868 46.9358L86.3743 43.5428L85.9463 43.1191L82.3992 43.1452C73.8779 43.1452 71.3305 46.7289 70.987 50.4845Z" fill="#191919"/>
    <path fill-rule="evenodd" clip-rule="evenodd" d="M125.742 29.9873C130.826 29.9873 135.123 34.1086 135.123 39.1925H130.236C130.236 36.7794 128.256 34.8229 125.843 34.8229C123.265 34.8229 121.152 36.9126 121.152 39.4904C121.152 41.9724 123.164 43.9846 125.646 43.9846H134.804C137.367 43.9846 139.445 41.9065 139.445 39.3433V32.5837H144.261V39.384C144.261 44.588 140.042 48.8065 134.838 48.8065H125.67C120.518 48.8065 116.341 44.6296 116.341 39.477V39.2135C116.341 34.118 120.647 29.9873 125.742 29.9873Z" fill="#191919"/>
    <path fill-rule="evenodd" clip-rule="evenodd" d="M82.2302 28.5635C77.0396 28.5635 72.6748 32.7711 72.6748 37.9614V38.0918C72.6748 43.2104 76.8244 47.3596 81.9429 47.3596H90.5958L90.5746 42.4547H81.8134C79.4274 42.4547 77.4931 40.5204 77.4931 38.1343V37.9614C77.4931 35.4368 79.5414 33.3897 82.0663 33.3897C84.4062 33.3897 86.3372 35.1477 86.6074 37.4152L91.4536 37.4173C91.1715 32.4802 87.2381 28.5635 82.2302 28.5635Z" fill="#191919"/>
    <path fill-rule="evenodd" clip-rule="evenodd" d="M72.8298 25.6835H72.1462V27.8449H71.6352V25.6835H70.9517V25.2275H72.8298V25.6835Z" fill="#191919"/>
    <path fill-rule="evenodd" clip-rule="evenodd" d="M75.6164 27.8449H75.1055V26.3193L74.6058 27.3117H74.2599L73.7565 26.3193V27.8449H73.2456V25.2275H73.7471L74.428 26.6427L75.1055 25.2275H75.6164V27.8449Z" fill="#191919"/>
    <path fill-rule="evenodd" clip-rule="evenodd" d="M76.3874 12.769C76.3874 11.048 77.7826 9.65289 79.5035 9.65289C81.2245 9.65289 82.6197 11.048 82.6197 12.769L82.6248 22.2323H87.361V12.3012C87.361 8.25136 85.0692 5.73828 81.3853 5.73828C77.3999 5.73828 75.4291 8.79574 75.4291 8.79574V6.26017H71.5576V22.2323H76.3826L76.3874 12.769Z" fill="#191919"/>
    <path fill-rule="evenodd" clip-rule="evenodd" d="M114.097 12.769C114.097 11.048 115.493 9.65289 117.213 9.65289C118.934 9.65289 120.33 11.048 120.33 12.769L120.335 22.2323H125.071V12.3012C125.071 8.25136 122.779 5.73828 119.095 5.73828C115.11 5.73828 113.139 8.79574 113.139 8.79574V6.26017H109.268V22.2323H114.093L114.097 12.769Z" fill="#191919"/>
    <path fill-rule="evenodd" clip-rule="evenodd" d="M134.595 22.7985C132.203 22.7985 130.042 21.9392 128.51 20.3781C126.976 18.8158 126.132 16.6118 126.132 14.172C126.132 11.7444 126.976 9.55438 128.508 8.00634C130.038 6.46075 132.2 5.60938 134.595 5.60938C136.437 5.60938 138.132 6.20482 139.498 7.33096L140.393 8.06926V6.12701L144.316 6.12761V22.2173H140.331L140.32 20.4082L139.436 21.1237C138.083 22.2195 136.409 22.7985 134.595 22.7985ZM135.034 9.37079C132.326 9.37079 130.284 11.4407 130.284 14.1851C130.284 16.938 132.326 19.0143 135.034 19.0143C137.743 19.0143 139.785 16.938 139.785 14.1851C139.785 11.4407 137.743 9.37079 135.034 9.37079Z" fill="#191919"/>
    </g>
    <path d="M46.1481 0.000366211H12.8038C5.73248 0.000366211 0 5.73285 0 12.804V46.1485C0 50.6216 2.29539 54.5568 5.7709 56.8461C7.78967 58.1761 10.2055 58.9521 12.8038 58.9521H29.6769H46.1481C53.2194 58.9521 58.9518 53.2198 58.9518 46.1485V12.804C58.9518 5.73285 53.2194 0.000366211 46.1481 0.000366211Z" fill="black"/>
    <mask id="mask1_1107_1411" style="mask-type:alpha" maskUnits="userSpaceOnUse" x="0" y="0" width="59" height="59">
    <path d="M46.1481 0.000366211H12.8038C5.73248 0.000366211 0 5.73285 0 12.804V46.1485C0 50.6216 2.29539 54.5568 5.7709 56.8461C7.78967 58.1761 10.2055 58.9521 12.8038 58.9521H29.6769H46.1481C53.2194 58.9521 58.9518 53.2198 58.9518 46.1485V12.804C58.9518 5.73285 53.2194 0.000366211 46.1481 0.000366211Z" fill="black"/>
    </mask>
    <g mask="url(#mask1_1107_1411)">
    <path d="M21.6159 35.8042C20.1822 34.7404 19.3725 33.9997 19.3458 33.9749L18.6465 34.7275C18.6755 34.7544 19.6113 35.6112 21.2588 36.8145C21.3243 36.4587 21.4371 36.1159 21.6159 35.8042Z" fill="#AAFF00"/>
    <path d="M46.0504 44.5861C44.4737 44.7047 42.8671 44.6902 41.2537 44.5425C41.0766 44.8937 40.8411 45.218 40.5781 45.5099C40.5987 45.5125 40.6191 45.5155 40.6398 45.5178C41.7361 45.6367 42.8307 45.6963 43.9172 45.6963C44.7198 45.6963 45.5174 45.6612 46.3081 45.5963C46.2224 45.2596 46.136 44.9229 46.0504 44.5861Z" fill="#AAFF00"/>
    <path d="M34.7302 46.6645C33.1327 47.6593 31.1351 47.9967 29.1862 47.428C27.237 46.8592 25.734 45.5001 24.9223 43.8018C24.892 43.7935 24.8616 43.7865 24.8313 43.7778C23.3727 43.3522 22.2421 42.3453 21.6169 41.0832C21.4835 42.1691 18.3509 50.1322 11.6265 54.4683C7.5997 57.0648 3.71475 57.2741 -1.52831 57.2741L-1.54346 76.3037C3.19992 76.1041 7.80698 75.0729 12.1741 73.2259C16.8923 71.2303 21.1281 68.3748 24.764 64.7389C28.4 61.103 31.2554 56.8671 33.251 52.1489C33.9952 50.3892 34.6053 48.5902 35.084 46.7595C34.9858 46.7369 34.8878 46.7122 34.79 46.6835C34.7698 46.6776 34.7503 46.6706 34.7302 46.6645Z" fill="#AAFF00"/>
    <path d="M46.155 26.8685C45.8077 27.4512 45.1006 27.7508 44.4192 27.5519C43.6844 27.3377 43.2359 26.619 43.3364 25.8829L40.9843 25.0603C40.4264 27.1519 41.6372 29.3169 43.7262 29.9264C44.27 30.085 44.8201 30.1222 45.3482 30.055C46.2551 29.9397 47.0962 29.5148 47.7272 28.8599C48.0484 28.5264 48.3148 28.1334 48.5075 27.6911L46.155 26.8685Z" fill="#AAFF00"/>
    <path d="M27.0498 25.0597C29.1339 25.6678 31.3136 24.5007 31.9736 22.4465L29.5114 21.9463C29.177 22.5659 28.4457 22.8904 27.7426 22.6852C27.1254 22.5051 26.7099 21.969 26.6522 21.3656L24.1878 20.8651C24.1662 21.1044 24.1669 21.3421 24.1878 21.5763C24.2752 22.5566 24.7241 23.4704 25.4362 24.1389C25.88 24.5555 26.4253 24.8775 27.0498 25.0597Z" fill="#AAFF00"/>
    <path d="M40.4737 38.7813C41.6439 39.4867 42.1924 40.5492 42.296 40.7675C44.2143 38.6001 45.9015 35.5185 46.939 32.3791C44.9524 32.6888 42.7075 31.9137 41.349 30.4729C41.5813 27.9569 38.7253 26.4817 39.7365 24.0697L51.1457 27.2565C51.7292 25.1451 51.1731 23.0039 49.8874 21.4221C49.3613 20.7852 48.233 19.6631 46.5532 19.2623C46.5532 19.2623 47.8454 18.8745 49.3458 19.4317C52.0907 18.55 54.2137 14.475 54.8909 11.5041C54.8905 11.5035 49.776 10.3986 45.2999 14.9306C42.5954 10.9748 37.5111 9.65034 33.1744 11.7017C31.481 5.17371 27.0878 4.79644 27.0878 4.79644C25.9084 7.6874 26.1393 10.5772 26.9951 13.1718C28.985 13.2431 29.8841 14.4171 29.8841 14.4171C28.694 14.1192 27.7118 14.0947 26.5332 14.4661C24.9183 14.975 22.6683 16.7424 22.0395 18.9282L33.4383 22.2542C32.9726 24.8127 29.6901 24.4913 28.5543 26.7866C26.6319 27.2411 24.3389 26.6604 22.8508 25.3203C22.1473 28.4325 21.728 31.6763 22.3613 34.4069C22.3613 34.4069 23.3891 33.7395 24.7786 33.7968C24.7957 33.7976 24.8133 33.7993 24.8305 33.8001C23.1081 34.5224 21.8979 36.2239 21.8979 38.2087C21.8979 40.8481 24.0376 42.9878 26.677 42.9878C26.6968 42.9878 26.7158 42.9851 26.7355 42.9849C28.6582 42.9616 30.3053 41.8037 31.0421 40.1488C31.1387 39.9318 31.2177 39.7062 31.2816 39.4736C32.2064 36.7693 33.325 32.5447 33.3899 32.3044L33.3884 32.3039C33.855 30.8702 33.6383 29.6688 31.0643 28.4667L31.4989 27.536C33.2273 28.3432 34.2106 29.2732 34.51 30.4227C35.3866 29.666 36.6871 29.4788 38.5818 29.7782L38.4216 30.7929C35.5975 30.3466 34.8113 31.1115 34.3476 32.6781C34.251 33.0048 32.2221 39.1524 31.9958 40.2443H31.9957C31.8752 40.6635 31.8107 41.1063 31.8107 41.5643C31.8107 44.1986 33.9462 46.334 36.5803 46.334C39.2146 46.334 41.3501 44.1986 41.3501 41.5643C41.3501 40.5297 41.0207 39.572 40.4609 38.7904" fill="#AAFF00"/>
    <path d="M8.27007 22.0795C8.25492 22.0567 8.24153 22.0358 8.24153 22.0358L8.21875 22.0552C8.21875 22.0552 8.24091 22.103 8.26218 22.1488C9.80668 25.9548 8.17406 31.4691 11.587 34.3623C13.4843 35.9707 16.065 36.3235 17.9551 35.2948C15.1744 33.2804 11.6381 28.657 10.4985 26.012C10.4985 26.012 15.5652 32.2169 18.706 34.783C18.9522 34.5733 19.1815 34.337 19.3847 34.0656C23.9486 27.97 10.481 25.1179 8.27007 22.0795Z" fill="#AAFF00"/>
    </g>
    <defs>
    <clipPath id="clip0_1107_1411">
    <rect width="73.6653" height="54.9141" fill="white" transform="translate(70.9517 5.08496)"/>
    </clipPath>
    </defs>
    </svg>
    