<svg width="136" height="34" viewBox="0 0 136 34" fill="none" xmlns="http://www.w3.org/2000/svg">
<g clip-path="url(#clip0_2849_6884)">
<path d="M0.732422 24.5394C0.732422 19.4946 4.98356 15.3733 9.94482 15.3733C14.9061 15.3733 19.1572 19.4946 19.1572 24.5394C19.1572 29.5453 14.9061 33.6667 9.94482 33.6667C4.98356 33.6667 0.732422 29.5453 0.732422 24.5394ZM16.0768 24.5394C16.0768 20.9624 13.4954 18.1435 9.94482 18.1435C6.39421 18.1435 3.77443 20.9624 3.77443 24.5394C3.77443 28.0678 6.4038 30.8867 9.94482 30.8867C13.4858 30.8867 16.0768 28.0776 16.0768 24.5394Z" fill="#0F1214"/>
<path d="M30.9999 15.6649V18.8142C28.3321 18.8142 24.3689 20.0778 24.3689 23.0619V32.9862H21.3652V16.5883L24.3689 15.5774V19.3585C25.3285 17.7256 28.2457 15.6649 30.9999 15.6649Z" fill="#0F1214"/>
<path d="M47.0923 2.25113L50.0959 1.24023V32.9961H47.0923V29.7981C46.0463 31.8977 43.3017 33.6279 40.586 33.6279C35.1257 33.6279 31.959 29.7204 31.959 24.7145C31.959 19.6697 35.1737 15.3345 40.8355 15.3345C43.5417 15.3345 46.0847 17.1036 47.0923 19.2031V2.25113ZM47.0923 24.5006C47.0923 20.7584 44.5493 18.1047 41.0466 18.1047C37.5824 18.1047 35.0394 20.7584 35.0394 24.5006C35.0394 28.1554 37.5824 30.8479 41.0466 30.8479C44.5493 30.8479 47.0923 28.1554 47.0923 24.5006Z" fill="#0F1214"/>
<path d="M68.5588 28.9135V31.7323C66.889 32.7432 65.0561 33.6667 62.0141 33.6667C56.765 33.6667 52.3027 30.391 52.3027 24.9185C52.3027 18.9503 56.4675 15.3733 61.1025 15.3733C66.3132 15.3733 69.9406 18.9503 69.8159 25.8905H55.3831C55.8437 28.9621 58.1756 30.9353 62.0141 30.9353C65.3536 30.9353 66.8986 29.9244 68.5588 28.9135ZM55.4311 23.198H66.6011C66.6011 21.1374 64.8066 18.1921 61.1025 18.1921C58.3484 18.1921 55.9685 19.7863 55.4311 23.198Z" fill="#0F1214"/>
<path d="M81.4471 15.6649V18.8142C78.7794 18.8142 74.8161 20.0778 74.8161 23.0619V32.9862H71.8125V16.5883L74.8161 15.5774V19.3585C75.7757 17.7256 78.693 15.6649 81.4471 15.6649Z" fill="#0F1214"/>
<path d="M82.4446 31.2269V28.3692C83.9417 29.9244 86.4079 31.1491 88.5287 31.1491C90.3232 31.1491 92.6167 30.5173 92.6167 28.2428C92.6167 26.6001 90.659 26.0946 88.4519 25.5503C86.5806 25.0449 82.4062 24.2089 82.4062 20.4181C82.4062 16.2092 86.3695 15.3733 88.7398 15.3733C90.9085 15.3733 93.202 16.0926 94.0753 17.016V19.5821C93.1157 18.6587 90.4863 17.9394 88.7398 17.9394C87.07 17.9394 85.4483 18.8628 85.4483 20.4181C85.4483 21.7594 87.2811 22.3524 89.3251 22.9453C91.4939 23.5771 95.6203 24.588 95.6203 28.2428C95.6203 31.8587 92.7414 33.6667 88.5287 33.6667C86.4079 33.6667 83.9417 32.7821 82.4446 31.2269Z" fill="#0F1214"/>
<path d="M97.1175 31.2658C97.0983 30.0313 98.0675 29.0204 99.2766 28.9913C99.2958 28.9913 99.3054 28.9913 99.3246 28.9913C100.563 28.9816 101.57 29.9925 101.58 31.2464C101.58 31.2561 101.58 31.2561 101.58 31.2658C101.589 32.5294 100.582 33.5695 99.3246 33.5792C98.1155 33.5792 97.1175 32.5683 97.1175 31.2658Z" fill="#0F1214"/>
<path d="M116.041 29.2537V32.2378C114.602 33.1807 112.922 33.6764 111.205 33.6667C106.243 33.6667 101.992 29.5453 101.992 24.5394C101.992 19.4946 106.243 15.3733 111.205 15.3733C112.913 15.383 114.592 15.8787 116.041 16.8022V19.8737C116.041 19.8737 114.458 18.1533 111.205 18.1533C107.664 18.1533 104.948 20.9721 104.948 24.5491C104.948 28.0776 107.654 30.945 111.205 30.945C114.458 30.9353 116.041 29.2537 116.041 29.2537Z" fill="#0F1214"/>
<path d="M117 24.5394C117 19.4946 121.251 15.3733 126.212 15.3733C131.174 15.3733 135.425 19.4946 135.425 24.5394C135.425 29.5453 131.174 33.6667 126.212 33.6667C121.251 33.6667 117 29.5453 117 24.5394ZM132.344 24.5394C132.344 20.9624 129.763 18.1435 126.212 18.1435C122.662 18.1435 120.042 20.9624 120.042 24.5394C120.042 28.0678 122.671 30.8867 126.212 30.8867C129.753 30.8867 132.344 28.0776 132.344 24.5394Z" fill="#0F1214"/>
<path d="M119.217 0.666748L119.668 8.60813L135.732 13.6529L119.217 0.666748Z" fill="#FF8A00"/>
<path d="M118.612 0.676514L101.943 13.6238L118.075 8.62762L118.612 0.676514Z" fill="#FF8A00"/>
</g>
<defs>
<clipPath id="clip0_2849_6884">
<rect width="135" height="33" fill="white" transform="translate(0.732422 0.666748)"/>
</clipPath>
</defs>
</svg>
