<svg width="175" height="32" viewBox="0 0 175 32" fill="none" xmlns="http://www.w3.org/2000/svg">
<path d="M63.1423 21.8395C60.0214 14.9513 52.9582 13.4294 52.3012 13.2959C46.9901 11.9877 41.8159 12.9488 37.2988 16.0459C36.2037 16.7935 35.3003 17.5677 34.5338 18.2886C34.7528 17.274 35.0813 16.126 35.5741 14.9246C37.5452 10.1455 41.0494 6.94165 45.9772 5.36642C45.9772 5.36642 45.9772 5.36642 46.0046 5.36642C46.0593 5.33972 51.124 3.68441 56.6541 6.54117L53.0951 10.012C52.6571 10.4392 52.6571 11.1333 53.0951 11.5605C53.5331 11.9877 54.2449 11.9877 54.6829 11.5605L59.2822 7.07514C59.5286 6.83485 59.6381 6.51447 59.6107 6.19408C59.5834 5.8737 59.3917 5.58001 59.0906 5.39312C52.2464 1.09463 45.7034 3.15043 45.2654 3.31062C39.7353 5.07274 35.6562 8.83725 33.4934 14.177C33.3018 14.6309 33.1375 15.0847 33.0007 15.5119C32.8638 15.0847 32.6995 14.6309 32.5079 14.177C30.3178 8.81055 26.2386 5.07274 20.7086 3.28393C20.2979 3.15043 13.7275 1.06794 6.88338 5.39312C6.60961 5.58001 6.41797 5.8737 6.36322 6.19408C6.33584 6.51447 6.44535 6.86155 6.69174 7.07514L11.2636 11.5338C11.7017 11.961 12.4135 11.961 12.8515 11.5338C13.2895 11.1066 13.2895 10.4125 12.8515 9.98529L9.31989 6.54117C14.8226 3.7111 19.7504 5.28633 19.9694 5.36642C19.9694 5.36642 19.9694 5.36642 19.9968 5.36642C24.9246 6.94165 28.4288 10.1455 30.3725 14.8979C30.8653 16.0993 31.1938 17.274 31.4128 18.2619C30.6463 17.541 29.7428 16.7668 28.6478 16.0192C24.158 12.9222 18.9565 11.9877 13.6728 13.2959C13.0157 13.4294 5.95257 14.9513 2.83164 21.8395C2.66738 22.1866 2.72213 22.5604 2.91377 22.8808C3.13278 23.2011 3.4613 23.388 3.84457 23.388H28.0729C28.7025 23.388 29.1953 22.9075 29.1953 22.2934C29.1953 21.6793 28.7025 21.1987 28.0729 21.1987H5.70618C8.71761 16.5265 14.056 15.4585 14.1108 15.4318C14.1382 15.4318 14.1656 15.4318 14.1656 15.4051C18.8743 14.2304 23.282 15.0313 27.279 17.7546C30.3178 19.8371 31.9877 22.3201 32.0151 22.3468C32.0425 22.3735 32.0699 22.4002 32.0699 22.4269L32.0972 22.4536C32.0972 22.4803 32.1246 22.4803 32.1246 22.507C32.152 22.5337 32.1794 22.5337 32.1794 22.5604C32.2067 22.5871 32.2341 22.6138 32.2615 22.6405C32.2889 22.6405 32.3162 22.6672 32.3162 22.6672C32.3436 22.6939 32.371 22.6939 32.3984 22.7206C32.4258 22.7473 32.4531 22.7473 32.5079 22.7473C32.5079 22.7473 32.5079 22.7473 32.5353 22.7473C32.5626 22.7473 32.59 22.774 32.6174 22.774C32.6448 22.774 32.6995 22.774 32.7269 22.774C32.7543 22.774 32.7817 22.774 32.809 22.774C32.8364 22.774 32.8638 22.774 32.9185 22.774C32.9459 22.774 32.9733 22.774 33.028 22.774H33.0554C33.0828 22.774 33.1102 22.7473 33.1375 22.7473C33.1649 22.7473 33.1923 22.7206 33.2471 22.7206C33.2471 22.7206 33.2471 22.7206 33.2744 22.7206C33.3018 22.6939 33.3292 22.6939 33.3839 22.6672C33.4113 22.6672 33.4387 22.6405 33.4387 22.6405C33.4661 22.6138 33.4934 22.5871 33.5208 22.5871L33.5482 22.5604C33.5756 22.5337 33.5756 22.5337 33.603 22.507C33.6303 22.4803 33.6303 22.4536 33.6577 22.4536L33.6851 22.4269C33.7125 22.4002 33.7125 22.3735 33.7398 22.3735C33.7672 22.3468 35.3824 19.9172 38.4212 17.8347C42.4456 15.058 46.8806 14.2571 51.6168 15.4318C51.6441 15.4318 51.6715 15.4318 51.6715 15.4585C51.7263 15.4585 57.0647 16.4998 60.0761 21.2254H37.7094C37.0798 21.2254 36.587 21.706 36.587 22.3201C36.587 22.9342 37.0798 23.4147 37.7094 23.4147H62.1294C62.5127 23.4147 62.8686 23.2278 63.0602 22.9075C63.2792 22.5604 63.3066 22.1866 63.1423 21.8395Z" fill="#1A938A"/>
<path d="M72.3138 29.3332H68.0156V9.07776H72.259V10.8132C73.4088 9.39815 75.1335 8.51709 77.1594 8.51709C81.2112 8.51709 84.1131 11.6942 84.1131 16.2063C84.1131 20.7184 81.2385 23.8956 77.1594 23.8956C75.1609 23.8956 73.4636 23.0679 72.3138 21.5995V29.3332ZM75.9822 12.3083C73.7373 12.3083 72.1495 13.9903 72.1495 16.233C72.1495 18.4757 73.7647 20.1577 75.9822 20.1577C78.2271 20.1577 79.815 18.4757 79.815 16.233C79.815 13.9369 78.1997 12.3083 75.9822 12.3083Z" fill="#043344"/>
<path d="M97.801 9.07792H102.099V23.3617H97.801V21.386C96.6512 22.9879 94.8991 23.9224 92.8185 23.9224C88.6846 23.9224 85.8101 20.7452 85.8101 16.2332C85.8101 11.7211 88.712 8.54395 92.8185 8.54395C94.8991 8.54395 96.6512 9.5051 97.801 11.0803V9.07792ZM97.7463 16.2332C97.7463 13.9104 96.131 12.2017 93.9135 12.2017C91.696 12.2017 90.0808 13.9104 90.0808 16.2332C90.0808 18.556 91.696 20.2647 93.9135 20.2647C96.131 20.2647 97.7463 18.556 97.7463 16.2332Z" fill="#043344"/>
<path d="M109.354 23.3881H105.056V2.66992H109.354V23.3881Z" fill="#043344"/>
<path d="M112.311 9.07776H116.445V10.7865C117.348 9.34475 118.936 8.51709 120.743 8.51709C122.851 8.51709 124.63 9.50494 125.452 11.0535C126.382 9.47824 128.353 8.54379 130.379 8.54379C133.692 8.54379 136.019 10.9467 136.019 14.3641V23.3616H131.721V15.2185C131.721 13.5097 130.626 12.2549 129.011 12.2015C127.341 12.2015 126.245 13.4563 126.245 15.2185V23.3616H121.947V15.2185C121.947 13.403 120.907 12.2015 119.319 12.2015C117.677 12.2015 116.636 13.403 116.636 15.2185V23.3616H112.338V9.07776H112.311Z" fill="#043344"/>
<path d="M140.563 19.1167C142.014 19.1167 143.055 20.1046 143.055 21.4662C143.055 22.8545 142.014 23.8424 140.563 23.8424C139.14 23.8424 138.072 22.8545 138.072 21.4662C138.072 20.0779 139.14 19.1167 140.563 19.1167Z" fill="#1A938A"/>
<path d="M159.755 14.3373V23.3881H155.456V15.1649C155.456 13.4295 154.416 12.2014 152.719 12.2014C151.049 12.2014 149.68 13.5096 149.68 15.3251V23.3614H145.382V2.66992H149.68V10.7062C150.666 9.3179 152.39 8.51694 154.17 8.51694C157.537 8.51694 159.755 10.9198 159.755 14.3373Z" fill="#043344"/>
<path d="M172.266 8.91773V12.6288C171.444 12.2818 170.486 12.0949 169.857 12.0949C167.995 12.0949 166.763 13.6167 166.763 15.7793V23.3617H162.465V9.07792H166.599V10.8934C167.447 9.4784 168.898 8.54395 170.514 8.54395C171.088 8.57064 171.691 8.70414 172.266 8.91773Z" fill="#043344"/>
</svg>
