<svg xmlns="http://www.w3.org/2000/svg" xmlns:xlink="http://www.w3.org/1999/xlink" width="61.976" height="53.254" viewBox="0 0 61.976 53.254">
  <defs>
    <linearGradient id="linear-gradient" x1="-0.208" y1="1.529" x2="0.891" y2="-0.067" gradientUnits="objectBoundingBox">
      <stop offset="0" stop-color="#8022e1"/>
      <stop offset="1" stop-color="#35affd"/>
    </linearGradient>
    <linearGradient id="linear-gradient-2" x1="-7.598" y1="8.739" x2="17.863" y2="-17.165" xlink:href="#linear-gradient"/>
    <linearGradient id="linear-gradient-3" x1="-3.147" y1="5.052" x2="8.321" y2="-9.262" xlink:href="#linear-gradient"/>
    <linearGradient id="linear-gradient-4" x1="-2.281" y1="3.97" x2="2.91" y2="-2.507" xlink:href="#linear-gradient"/>
  </defs>
  <g id="Group_39" data-name="Group 39" transform="translate(-59.634 86.914)">
    <path id="Path_7" data-name="Path 7" d="M88.125-53.17c1.046-2.552-1.67-4.289-2.937-1.486a28.613,28.613,0,0,1-2.217,4.541A105.95,105.95,0,0,1,74.507-37.9a106.21,106.21,0,0,1-8.464-12.222c-1.8-3.152-3.129-6.2-3.129-8.289a11.556,11.556,0,0,1,3.4-8.195,11.6,11.6,0,0,1,5.3-3.035,11.607,11.607,0,0,1,4.952-.142c4.621.808,8.34,5.4,12.259,10.242l.009.01h0A56.785,56.785,0,0,0,96.7-51.054a15.5,15.5,0,0,0,9.9,3.884,14.824,14.824,0,0,0,10.654-4.484,14.827,14.827,0,0,0,4.361-10.512c0-2.738-1.546-6.367-3.606-9.989A111.819,111.819,0,0,0,108-86.331l-.012-.012a1.635,1.635,0,0,0-.566-.422,1.649,1.649,0,0,0-.681-.149,1.667,1.667,0,0,0-.688.152,1.6,1.6,0,0,0-.561.433h0A111.893,111.893,0,0,0,95.473-72.153a25.8,25.8,0,0,0-3.118,6.934c-.527,2.035,2.4,3.465,3.061,1.17a32.377,32.377,0,0,1,2.856-6.406,106.172,106.172,0,0,1,8.464-12.221A106.134,106.134,0,0,1,115.2-70.458c1.8,3.153,3.131,6.2,3.131,8.292a11.55,11.55,0,0,1-3.4,8.193,12.436,12.436,0,0,1-4.783,2.889,11.58,11.58,0,0,1-2.643.486c-.13.009-.263.015-.4.019h0l-.071,0c-.1,0-.2,0-.3,0a11.588,11.588,0,0,1-2.422-.254A13.448,13.448,0,0,1,98.926-53.6c-.13-.12-.258-.241-.384-.368a2.749,2.749,0,0,0-.505-.384,62.219,62.219,0,0,1-6.551-7.306l0,0h0a67.59,67.59,0,0,0-6.234-7.027l-.227-.229a14.974,14.974,0,0,0-3.735-2.725,13.158,13.158,0,0,0-3.6-1.384,16.8,16.8,0,0,0-5.254-.108A14.845,14.845,0,0,0,64-68.919a14.833,14.833,0,0,0-4.361,10.512c0,2.737,1.546,6.365,3.609,9.986A111.552,111.552,0,0,0,73.256-34.244h0a1.6,1.6,0,0,0,.561.433,1.644,1.644,0,0,0,.688.152,1.654,1.654,0,0,0,.682-.148,1.662,1.662,0,0,0,.564-.422l.012-.013A111.713,111.713,0,0,0,85.774-48.418,25.338,25.338,0,0,0,88.125-53.17Z" transform="translate(0)" fill="url(#linear-gradient)"/>
    <path id="Path_8" data-name="Path 8" d="M63.569-51.1a1.707,1.707,0,0,1-.018-.306v-.22a1.1,1.1,0,0,0-.095-.514.615.615,0,0,0-.322-.258.655.655,0,0,0,.39-.319.994.994,0,0,0,.118-.461.942.942,0,0,0-.061-.346,1.039,1.039,0,0,0-.165-.275.811.811,0,0,0-.307-.23,1.44,1.44,0,0,0-.518-.084h-1.57v3.281h.67v-1.286h.67a.553.553,0,0,1,.39.1.613.613,0,0,1,.108.418l.006.3a1.618,1.618,0,0,0,.028.284c.009.044.024.1.044.176H63.7v-.081A.279.279,0,0,1,63.569-51.1Zm-.808-1.614a.8.8,0,0,1-.331.053h-.738v-.882h.758a.688.688,0,0,1,.318.058.414.414,0,0,1,.188.4A.371.371,0,0,1,62.761-52.714Z" transform="translate(0.661 15.64)" fill="url(#linear-gradient-2)"/>
    <path id="Path_9" data-name="Path 9" d="M62.886-55.008a2.973,2.973,0,0,0-2.97,2.968,2.973,2.973,0,0,0,2.97,2.97,2.973,2.973,0,0,0,2.968-2.97A2.972,2.972,0,0,0,62.886-55.008Zm0,5.513a2.548,2.548,0,0,1-2.545-2.545,2.547,2.547,0,0,1,2.545-2.543,2.546,2.546,0,0,1,2.543,2.543A2.546,2.546,0,0,1,62.886-49.5Z" transform="translate(0.134 15.213)" fill="url(#linear-gradient-3)"/>
    <path id="Path_10" data-name="Path 10" d="M67.2-69.854l-.056.056v0a6.511,6.511,0,0,0-1.87,4.578,6.517,6.517,0,0,0,1.924,4.637,6.511,6.511,0,0,0,4.636,1.926,6.517,6.517,0,0,0,4.637-1.926,6.521,6.521,0,0,0,1.923-4.637,6.521,6.521,0,0,0-1.923-4.637,6.521,6.521,0,0,0-4.637-1.923A6.516,6.516,0,0,0,67.2-69.854Zm4.633,8.3a3.643,3.643,0,0,1-2.583-1.071,3.655,3.655,0,0,1-1.071-2.587A3.641,3.641,0,0,1,69.247-67.8a3.651,3.651,0,0,1,2.581-1.074A3.647,3.647,0,0,1,74.409-67.8h0a3.643,3.643,0,0,1,1.071,2.583,3.649,3.649,0,0,1-1.071,2.587A3.638,3.638,0,0,1,71.828-61.559Z" transform="translate(2.686 7.217)" fill="url(#linear-gradient-4)"/>
  </g>
</svg>
