<svg width="96" height="33" viewBox="0 0 96 33" fill="none" xmlns="http://www.w3.org/2000/svg">
<g clip-path="url(#clip0_408_4226)">
<path d="M20.8124 30.82C20.2633 30.82 19.7065 30.6376 19.2457 30.2652L0.898151 15.3387C-0.154009 14.4837 -0.303769 12.9446 0.560231 11.9034C1.42423 10.8622 2.97943 10.714 4.03159 11.569L22.3791 26.4955C23.4313 27.3543 23.5849 28.8896 22.717 29.9308C22.2294 30.5198 21.5228 30.8238 20.8086 30.8238" fill="#36B77A"/>
<path d="M12.8796 13.8567C12.3267 13.8567 11.7737 13.6743 11.3129 13.3019L0.902678 4.82781C-0.149482 3.96901 -0.303082 2.4338 0.564758 1.38879C1.42876 0.347584 2.98396 0.199383 4.03612 1.05439L14.4464 9.52845C15.4985 10.3835 15.6483 11.9225 14.7843 12.9637C14.2966 13.5489 13.59 13.8529 12.8758 13.8529" fill="#FCD639"/>
<path d="M9.96892 32.4999C9.4198 32.4999 8.863 32.3175 8.4022 31.9451L0.902678 25.8461C-0.149482 24.9911 -0.303082 23.4521 0.564758 22.4109C1.42876 21.3697 2.98396 21.2177 4.03612 22.0765L11.5395 28.1755C12.5916 29.0305 12.7452 30.5695 11.8774 31.6107C11.3897 32.1997 10.6832 32.5037 9.96892 32.5037" fill="#29B5E4"/>
<path d="M43.5069 13.1165C43.5069 9.92452 40.8842 7.3291 37.6586 7.3291H29.9287C29.0224 7.3291 28.2852 8.05871 28.2852 8.95551V24.0454C28.2852 24.946 29.0224 25.6718 29.9287 25.6718C30.8349 25.6718 31.5722 24.9422 31.5722 24.0454V18.9002H37.4013C37.4666 18.923 37.5357 18.9496 37.6048 18.961C39.0756 19.2574 40.1469 20.5266 40.1469 21.9782V24.0416C40.1469 24.9422 40.8842 25.668 41.7904 25.668C42.6967 25.668 43.434 24.9384 43.434 24.0416V21.9782C43.434 20.2378 42.6967 18.6304 41.4909 17.4676C42.7197 16.4074 43.5031 14.8494 43.5031 13.1089L43.5069 13.1165ZM31.5722 10.5819H37.6586C39.0679 10.5819 40.216 11.7181 40.216 13.1165C40.216 14.515 39.0679 15.6474 37.6586 15.6474H31.5722V10.5819Z" fill="#6D6E71"/>
<path d="M74.4498 7.35547H61.8086C60.8985 7.35547 60.165 8.08507 60.165 8.98188C60.165 9.87869 60.9023 10.6083 61.8086 10.6083H66.4857V24.0452C66.4857 24.9458 67.223 25.6716 68.1292 25.6716C69.0354 25.6716 69.7727 24.942 69.7727 24.0452V10.6083H74.4498C75.3599 10.6083 76.0934 9.87869 76.0934 8.98188C76.0934 8.08507 75.3561 7.35547 74.4498 7.35547Z" fill="#6D6E71"/>
<path d="M94.8476 7.42451C94.1641 7.21171 93.4153 7.46251 93.0044 8.04772L87.0063 16.5598L81.0889 8.05532C80.6818 7.46631 79.933 7.21171 79.2457 7.42451C78.5583 7.63731 78.0898 8.26812 78.0898 8.97872V24.0458C78.0898 24.9464 78.8271 25.6722 79.7334 25.6722C80.6396 25.6722 81.3769 24.9426 81.3769 24.0458V14.2114L85.6393 20.337C85.9465 20.7778 86.4495 21.04 86.991 21.04H86.9948C87.5324 21.04 88.0354 20.7816 88.3426 20.3446L92.701 14.1544V24.042C92.701 24.9426 93.4383 25.6684 94.3446 25.6684C95.2508 25.6684 95.9881 24.9388 95.9881 24.042V8.97492C95.9881 8.26432 95.5234 7.63351 94.8361 7.42071L94.8476 7.42451Z" fill="#6D6E71"/>
<path d="M56.4827 10.6044C57.3928 10.6044 58.1262 9.87478 58.1262 8.97797C58.1262 8.08117 57.3889 7.35156 56.4827 7.35156H47.1016C46.6638 7.35156 46.2414 7.52636 45.9342 7.83417C45.6232 8.14197 45.4542 8.55997 45.4581 8.99317L45.604 24.0641C45.6117 24.9571 46.3451 25.6753 47.2475 25.6753H56.4866C57.3966 25.6753 58.1301 24.9457 58.1301 24.0489C58.1301 23.1521 57.3928 22.4225 56.4866 22.4225H48.8795L48.8373 18.1436H54.724C55.6341 18.1436 56.3675 17.414 56.3675 16.5172C56.3675 15.6204 55.6302 14.887 54.724 14.887H48.8066L48.7643 10.6082H56.4866L56.4827 10.6044Z" fill="#6D6E71"/>
</g>
<defs>
<clipPath id="clip0_408_4226">
<rect width="96" height="32" fill="white" transform="translate(0 0.5)"/>
</clipPath>
</defs>
</svg>
