<svg xmlns="http://www.w3.org/2000/svg" xmlns:xlink="http://www.w3.org/1999/xlink" width="300" height="180"><defs><path d="M.699 64.579c0 32.762 24.608 59.776 56.351 63.564h15.335c29.313-3.498 52.542-26.802 55.926-56.15V57.164C124.637 25.3 97.566.56 64.717.56 29.361.56.699 29.222.699 64.579" id="a"/><path d="M.699 64.579c0 32.762 24.608 59.776 56.351 63.564h15.335c29.313-3.498 52.542-26.802 55.926-56.15V57.164C124.637 25.3 97.566.56 64.717.56 29.361.56.699 29.222.699 64.579" id="c"/><path d="M.699 64.579c0 32.762 24.608 59.776 56.351 63.564h15.335c29.313-3.498 52.542-26.802 55.926-56.15V57.164C124.637 25.3 97.566.56 64.717.56 29.361.56.699 29.222.699 64.579" id="e"/><path d="M.699 64.579c0 32.762 24.608 59.776 56.351 63.564h15.335c29.313-3.498 52.542-26.802 55.926-56.15V57.164C124.637 25.3 97.566.56 64.717.56 29.361.56.699 29.222.699 64.579" id="g"/><path d="M.699 64.579c0 32.762 24.608 59.776 56.351 63.564h15.335c29.313-3.498 52.542-26.802 55.926-56.15V57.164C124.637 25.3 97.566.56 64.717.56 29.361.56.699 29.222.699 64.579" id="i"/></defs><g fill="none" fill-rule="evenodd"><path d="M32.79 127.22c.051-.444-.073-.817-.373-1.117-.3-.3-.732-.588-1.294-.862a35.225 35.225 0 00-1.979-.883 16.178 16.178 0 01-2.392-1.254 5.463 5.463 0 01-1.548-1.313 5.004 5.004 0 01-.882-1.646 5.257 5.257 0 01-.235-1.804 5.08 5.08 0 01.431-1.823 4.532 4.532 0 011.02-1.45 5.64 5.64 0 011.391-.96 6.375 6.375 0 011.548-.53 7.397 7.397 0 011.45-.156h.471c1.385.078 2.652.418 3.802 1.019a9.342 9.342 0 012.941 2.39l.117.119-.117.156c-.262.367-.549.64-.863.823a1.779 1.779 0 01-.98.275c-.366 0-.719-.072-1.058-.215-.34-.144-.706-.294-1.098-.452-.497-.208-.96-.384-1.392-.53a4.147 4.147 0 00-1.313-.214c-.575 0-1.006.124-1.293.372-.288.249-.458.543-.51.882-.053.497.104.908.47 1.235.366.327.902.634 1.608.92.81.34 1.672.714 2.587 1.118.914.406 1.725.902 2.43 1.49a5.78 5.78 0 011.607 2.117c.366.823.405 1.823.118 2.999-.13.47-.353.96-.666 1.469-.314.51-.752.974-1.314 1.392-.562.418-1.24.765-2.038 1.039-.797.275-1.73.412-2.803.412-.209 0-.379-.013-.51-.04-1.254-.052-2.488-.378-3.704-.98-1.215-.6-2.228-1.397-3.038-2.39l-.117-.118.117-.157c.13-.21.275-.378.431-.51.157-.13.301-.248.431-.352a2.09 2.09 0 01.942-.236c.365 0 .718.073 1.058.216.34.144.705.294 1.097.45.366.184.778.34 1.235.472.457.13.961.222 1.51.273.94 0 1.613-.182 2.018-.548.405-.366.634-.732.686-1.098m9.721-5.41a8.203 8.203 0 012.392-1 11.485 11.485 0 012.782-.333c1.36 0 2.653.196 3.882.59-.079-.812-.249-1.53-.51-2.157-.34-.81-.85-1.398-1.528-1.764a3.477 3.477 0 00-.843-.294 4.879 4.879 0 00-1.04-.098h-.43a6.504 6.504 0 00-1.098.175 12.39 12.39 0 00-1.097.334 11.47 11.47 0 01-1.099.333 4.336 4.336 0 01-1.058.137c-.365 0-.718-.078-1.058-.235-.313-.182-.587-.484-.823-.902l-.078-.156.078-.118a9.25 9.25 0 012.764-2.018c1.058-.51 2.215-.804 3.469-.883a1.74 1.74 0 01.333-.039h.333c1.202 0 2.3.216 3.293.647a7.967 7.967 0 012.587 1.783c1.49 1.621 2.26 3.751 2.314 6.39v.314c0 2.718-.693 4.927-2.078 6.625a8.201 8.201 0 01-2.45 2.038c-.955.523-2.02.85-3.195.98a2.878 2.878 0 01-.471.04h-.51c-.548 0-1.123-.047-1.724-.138a6.696 6.696 0 01-1.764-.529 6.687 6.687 0 01-1.646-.922 4.756 4.756 0 01-1.255-1.469c-.497-.758-.758-1.686-.784-2.783v-.236c0-1.019.209-1.867.627-2.548.366-.679.928-1.267 1.686-1.764m8.115 1.882c-.34-.053-.726-.104-1.157-.157a10.956 10.956 0 00-1.313-.079c-.366 0-.72.02-1.058.06a4.11 4.11 0 00-.942.215c-.653.21-1.15.536-1.49.98a1.964 1.964 0 00-.313.53c-.078.196-.13.411-.156.646a1.16 1.16 0 00-.04.353c0 .261.04.542.118.843.078.3.235.582.47.842.21.262.516.484.922.667.404.183.947.274 1.627.274.208 0 .365-.013.47-.039.73-.026 1.372-.235 1.92-.627.262-.157.484-.346.667-.569.183-.222.339-.463.47-.725a4.976 4.976 0 00.588-1.529 7.458 7.458 0 00.157-1.45c-.026 0-.046-.006-.06-.019-.012-.013-.031-.02-.057-.02a8.057 8.057 0 00-.353-.078 5.645 5.645 0 01-.47-.118m12.464-9.369c1.15-.6 2.47-.902 3.96-.902a7.98 7.98 0 013.43.745 8.964 8.964 0 012.764 2 9.598 9.598 0 011.9 2.978c.458 1.124.687 2.352.687 3.685 0 1.281-.21 2.49-.627 3.627a9.416 9.416 0 01-1.764 2.998 8.398 8.398 0 01-2.763 2c-1.085.496-2.294.744-3.626.744a7.978 7.978 0 01-3.43-.744 8.967 8.967 0 01-2.764-2 9.412 9.412 0 01-1.862-2.959c-.458-1.137-.686-2.359-.686-3.666v-13.916c0-1.567.424-2.685 1.274-3.352.848-.665 2.084-.999 3.704-.999a8.996 8.996 0 00-.078.705c-.026.29-.046.68-.06 1.177-.013.496-.02 1.137-.02 1.921v1.234c0 .588-.005 1.21-.018 1.862-.013.653-.02 1.254-.02 1.804v1.058zm3.96 14.504c.34 0 .739-.078 1.196-.235.457-.157.895-.45 1.313-.882.418-.43.77-1.045 1.059-1.843.287-.797.43-1.822.43-3.077s-.143-2.279-.43-3.077c-.288-.797-.641-1.41-1.06-1.842-.417-.432-.855-.725-1.312-.883-.457-.157-.856-.234-1.195-.234-.34 0-.74.077-1.196.234-.458.158-.896.451-1.313.883-.42.431-.772 1.045-1.06 1.842-.287.798-.43 1.822-.43 3.077s.143 2.28.43 3.077c.288.798.64 1.412 1.06 1.843.417.431.855.725 1.313.882.457.157.856.235 1.196.235zm15.72-14.504c1.15-.6 2.47-.902 3.958-.902 1.228 0 2.372.25 3.43.745a8.964 8.964 0 012.764 2 9.598 9.598 0 011.901 2.978c.457 1.124.686 2.352.686 3.685 0 1.281-.209 2.49-.627 3.627a9.416 9.416 0 01-1.764 2.998 8.408 8.408 0 01-2.763 2c-1.085.496-2.294.744-3.627.744a7.984 7.984 0 01-3.43-.744 8.975 8.975 0 01-2.763-2 9.412 9.412 0 01-1.862-2.959c-.458-1.137-.686-2.359-.686-3.666v-13.916c0-1.567.424-2.685 1.274-3.352.848-.665 2.084-.999 3.704-.999a8.996 8.996 0 00-.078.705c-.026.29-.046.68-.059 1.177-.014.496-.02 1.137-.02 1.921v1.234c0 .588-.006 1.21-.019 1.862a84.23 84.23 0 00-.02 1.804v1.058zm3.958 14.504c.34 0 .74-.078 1.196-.235.457-.157.895-.45 1.313-.882.418-.43.771-1.045 1.06-1.843.286-.797.43-1.822.43-3.077s-.144-2.279-.43-3.077c-.289-.797-.642-1.41-1.06-1.842-.418-.432-.856-.725-1.313-.883-.457-.157-.856-.234-1.196-.234-.339 0-.738.077-1.195.234-.458.158-.896.451-1.313.883-.419.431-.772 1.045-1.059 1.842-.288.798-.43 1.822-.43 3.077s.142 2.28.43 3.077c.287.798.64 1.412 1.06 1.843.416.431.854.725 1.312.882.457.157.856.235 1.195.235zm13.838-7.017a8.215 8.215 0 012.391-1 11.485 11.485 0 012.783-.333c1.359 0 2.653.196 3.881.59-.078-.812-.248-1.53-.509-2.157-.34-.81-.85-1.398-1.529-1.764a3.477 3.477 0 00-.843-.294 4.879 4.879 0 00-1.039-.098h-.431a6.504 6.504 0 00-1.097.175c-.367.093-.732.204-1.098.334a11.47 11.47 0 01-1.098.333 4.336 4.336 0 01-1.058.137c-.366 0-.719-.078-1.059-.235-.313-.182-.587-.484-.823-.902l-.078-.156.078-.118a9.25 9.25 0 012.764-2.018c1.058-.51 2.215-.804 3.469-.883a1.74 1.74 0 01.333-.039h.333c1.202 0 2.3.216 3.294.647a7.973 7.973 0 012.586 1.783c1.49 1.621 2.261 3.751 2.314 6.39v.314c0 2.718-.693 4.927-2.078 6.625a8.201 8.201 0 01-2.45 2.038c-.955.523-2.019.85-3.195.98a2.878 2.878 0 01-.471.04h-.509a11.54 11.54 0 01-1.725-.138 6.707 6.707 0 01-1.764-.529 6.687 6.687 0 01-1.646-.922 4.756 4.756 0 01-1.255-1.469c-.496-.758-.758-1.686-.784-2.783v-.236c0-1.019.209-1.867.627-2.548.366-.679.928-1.267 1.686-1.764m8.115 1.882c-.34-.053-.726-.104-1.157-.157a10.956 10.956 0 00-1.313-.079c-.366 0-.719.02-1.058.06a4.09 4.09 0 00-.941.215c-.654.21-1.151.536-1.49.98a1.964 1.964 0 00-.314.53c-.078.196-.13.411-.156.646a1.16 1.16 0 00-.04.353c0 .261.04.542.118.843.078.3.235.582.471.842.209.262.515.484.921.667.404.183.947.274 1.627.274.208 0 .365-.013.47-.039.731-.026 1.372-.235 1.921-.627.261-.157.483-.346.666-.569.183-.222.339-.463.471-.725a4.976 4.976 0 00.587-1.529 7.458 7.458 0 00.157-1.45c-.026 0-.046-.006-.058-.019a.083.083 0 00-.059-.02 8.057 8.057 0 00-.353-.078 5.645 5.645 0 01-.47-.118m8.389-1.332c0-1.751.254-3.182.763-4.293.51-1.11 1.17-1.98 1.98-2.607a6.777 6.777 0 012.724-1.273 13.887 13.887 0 013-.334h1.92c.13.549.157 1.059.08 1.529-.054.392-.23.77-.53 1.136-.3.367-.792.589-1.47.667a6.673 6.673 0 00-1.314.294 2.847 2.847 0 00-1.157.745c-.339.353-.62.856-.842 1.509-.223.653-.333 1.529-.333 2.627v5.683c0 .785.006 1.418.02 1.902.012.484.032.869.058 1.156.026.314.052.549.078.706-1.594 0-2.822-.333-3.684-1-.863-.666-1.294-1.783-1.294-3.352v-5.095zM33.766 68.892c-.104.066-.22.12-.315.194-.84.66-1.293 1.876-1.293 3.43l.013.028c-.004.069-.009.137-.009.199v9.886c0 5.16-2.259 8.235-6.777 9.222-1.068.233-1.8 1.224-1.8 2.318v2.996l1.112-.131c8.163-.785 12.245-5.565 12.245-14.34v-7.552l.003-.206c.013-.647.02-1.263.02-1.846v-1.224c0-.778.006-1.412.02-1.905.012-.492.031-.88.057-1.166.026-.311.052-.544.078-.7-1.105 0-2.016.168-2.758.482a1.357 1.357 0 00-.596.315m31.233-13.097c1.179 0 2.073-.72 2.685-2.16.698 1.528 1.614 2.313 2.75 2.356 1.048 0 1.855-.349 2.422-1.047.48-.61.72-1.353.72-2.226V48.92h-1.898l.065 3.273c0 1.223-.502 1.834-1.506 1.834-1.091 0-1.637-.938-1.637-2.816v-2.29h-1.898v2.29c0 1.878-.524 2.816-1.572 2.816-1.005.088-1.506-.545-1.506-1.899V48.92H61.79v3.798c0 .83.239 1.55.72 2.16.567.7 1.396 1.005 2.488.917m-5.467 34.036c-1.048 0-1.943.37-2.685 1.113a3.655 3.655 0 00-1.113 2.685c0 1.047.37 1.942 1.113 2.685a3.663 3.663 0 002.685 1.113c1.048 0 1.942-.372 2.685-1.113.741-.743 1.113-1.638 1.113-2.685 0-1.048-.36-1.943-1.08-2.685-.72-.743-1.627-1.113-2.718-1.113m66.133-17.221c-2.227-5.15-6.134-8.03-11.721-8.643-2.75-.305-5.937.502-9.56 2.423-3.958 2.131-7.31 5.345-10.053 9.643-.02.031-.043.063-.066.091a38.833 38.833 0 01-2.354 2.707c-.66.68-1.81.216-1.815-.73l-.046-8.17c0-.015-.007-.02-.008-.035.008-.122.016-.249.026-.347.028-.31.057-.544.086-.7-1.79 0-3.152.331-4.088.991-.938.661-1.442 1.877-1.442 3.431l.008.015c-.004.035-.011.067-.011.108l.12 7.794c0 1.266-.547 1.877-1.637 1.833l-4.191-.065v.027c-5.974-.372-8.97-3.54-8.97-9.522v-2.833c.013-.446.03-.812.056-1.079a8.72 8.72 0 01.08-.7c-1.645 0-2.898.331-3.76.991-.86.661-1.29 1.766-1.291 3.317l-.001.001c0 6.03-3.06 9.508-9.177 9.84a1.514 1.514 0 01-.165 0c-6.118-.332-9.182-3.507-9.182-9.537V62.107l.012-.794c.013-.647.02-1.263.02-1.846v-1.225c0-.777.006-1.412.019-1.904s.032-.88.058-1.166c.026-.31.052-.544.078-.7-1.607 0-2.832.33-3.673.991-.843.661-1.264 1.77-1.264 3.324v3.97c-.02.15-.03.277-.03.363v10.407c0 9.27 4.548 14.072 13.619 14.436l-.001.034c.129 0 .246-.016.373-.019.162.004.315.018.479.02l-.001-.045c4.742-.216 8.26-1.594 10.528-4.16a1.054 1.054 0 011.598.012c2.365 2.717 6.137 4.115 11.316 4.192l-.001-.065h47.19c.589 0 1.069-.484 1.062-1.072-.076-6.195-.817-10.945-2.22-14.25m-4.513 10.414l-23.381.063c-2.27 0-3.253-.087-2.946-.262.392-.218 2.29-2.423 5.696-6.613 3.452-4.23 7.416-6.753 11.894-7.569.102-.018.209-.024.313-.017 4.234.311 7.106 2.71 8.615 7.193.57 1.822.858 3.875.867 6.158a1.056 1.056 0 01-1.058 1.047" fill="#FA4F0D"/><g transform="translate(148 26)"><mask id="b" fill="#fff"><use xlink:href="#a"/></mask><path d="M63.017 98.844c2.602-6.13 4.392-12.576 5.826-19.078 1.437-6.508 2.494-13.096 3.582-19.707 1.061-6.632 2.037-13.211 2.286-19.74.267-6.518-.178-12.982-1.75-19.078-.815-3.01-1.854-6.155-3.303-8.275a9.129 9.129 0 00-1.196-1.45c-.442-.455-.893-.827-1.295-1.063-.405-.247-.744-.368-1.005-.406a1.622 1.622 0 00-.812.087c-.65.21-1.597.987-2.397 2.033-.812 1.05-1.529 2.335-2.12 3.68-1.182 2.66-1.778 5.735-2.19 8.953-.205 1.608-.352 3.26-.496 4.94l-.433 5.056a217.717 217.717 0 00-.562 10.025c-.219 6.693-.104 13.4.285 20.094.416 6.784.71 13.525 1.518 20.126.412 3.3.99 6.566 1.85 9.735a46.805 46.805 0 001.715 5.158c.166-.363.344-.722.497-1.09" fill="#FA4F0D" mask="url(#b)"/></g><g transform="translate(148 26)"><mask id="d" fill="#fff"><use xlink:href="#c"/></mask><path d="M44.987 104.661c.637-3.317 1.238-6.638 1.712-9.957.906-6.636 1.32-13.32.433-19.844-.462-3.223-1.11-6.565-2.148-9.56-.519-1.5-1.137-2.929-1.92-4.183-.415-.659-.763-1.104-1.207-1.51-.429-.394-.882-.665-1.3-.8-.425-.128-.864-.174-1.145-.08-.3.073-.596.235-.95.551-.713.621-1.439 1.813-1.975 3.116a19.988 19.988 0 00-1.2 4.21 50.589 50.589 0 00-.633 4.725 92.236 92.236 0 00-.273 9.735c.036 3.285.153 6.695.313 9.975.161 3.284.402 6.487.9 9.58.538 3.05 1.274 6.157 2.513 8.664.611 1.261 1.352 2.381 2.234 3.227.45.43.89.78 1.442 1.094.137.077.277.144.415.217 1.22-2.996 2.196-6.033 2.79-9.16" fill="#FA4F0D" mask="url(#d)"/></g><g transform="translate(148 26)"><mask id="f" fill="#fff"><use xlink:href="#e"/></mask><path d="M88.7 123.065c-1.317-3.184-2.514-6.441-3.461-9.791a71.507 71.507 0 01-.997-3.976c-1.158 1.013-2.375 1.977-3.703 2.845-1.563 1.017-3.326 1.885-5.365 2.267-1.016.17-2.128.179-3.161-.045a9.784 9.784 0 01-2.834-1.046c-1.72-.924-3.128-2.145-4.39-3.457a26.043 26.043 0 01-1.663-1.904c-.45.653-.907 1.3-1.384 1.934a35.5 35.5 0 01-3.567 4.09c-1.312 1.279-2.708 2.525-4.34 3.55-1.625 1.017-3.431 1.905-5.454 2.37-1.826.44-3.802.474-5.697.128-.608 1.325-1.23 2.64-1.85 3.96a63.823 63.823 0 0023.883 4.608 63.817 63.817 0 0024.31-4.782c-.108-.251-.22-.5-.326-.751" fill="#FA4F0D" mask="url(#f)"/></g><g transform="translate(148 26)"><mask id="h" fill="#fff"><use xlink:href="#g"/></mask><path d="M101.073 55.8c.334-3.247.45-6.506.28-9.73a48.38 48.38 0 00-.464-4.767c-.236-1.494-.613-2.85-1.207-3.887-.61-1.065-1.34-1.693-2.233-1.992-.877-.29-1.82-.165-2.636.367a4.825 4.825 0 00-.596.477c-.238.242-.475.49-.697.757a14.06 14.06 0 00-1.237 1.742c-.749 1.257-1.365 2.66-1.864 4.147-1.005 2.974-1.6 6.206-2.08 9.5l-1.35 10.049a176.217 176.217 0 00-1.385 20.058 140.04 140.04 0 00.755 15.856 138.816 138.816 0 002.89-5.07c6.115-11.691 10.416-24.514 11.824-37.507" fill="#FA4F0D" mask="url(#h)"/></g><g transform="translate(148 26)"><mask id="j" fill="#fff"><use xlink:href="#i"/></mask><path d="M64.717.56C29.36.56.698 29.222.698 64.579c0 25.882 15.361 48.175 37.462 58.265.561-1.196 1.125-2.397 1.678-3.601a21.757 21.757 0 01-.705-.292 13.238 13.238 0 01-2.808-1.68c-1.725-1.338-3.042-2.99-4.093-4.68-1.047-1.692-1.83-3.486-2.465-5.218-.654-1.747-1.134-3.538-1.527-5.324-.797-3.575-1.145-7.154-1.302-10.646a192.186 192.186 0 01-.106-10.382c.121-3.486.316-7.035.923-10.58a54.466 54.466 0 011.135-5.298 26.204 26.204 0 012.114-5.394c.95-1.725 2.076-3.502 4.077-4.956.99-.71 2.291-1.292 3.681-1.408 1.408-.14 2.69.18 3.826.693 2.29 1.074 3.71 3.033 4.557 4.757a27.123 27.123 0 011.954 5.21c.9 3.514 1.414 6.888 1.764 10.398.668 6.985.102 13.969-1.02 20.735-.546 3.392-1.203 6.743-1.9 10.08-.678 3.269-1.753 6.443-2.974 9.49 2.045.302 4.263-.19 6.348-1.386 2.594-1.431 4.896-3.702 6.861-6.21a36.142 36.142 0 002.292-3.35c-3.035-5.722-4.622-11.94-5.783-18.097-1.275-6.821-1.807-13.65-2.478-20.393-.647-6.841-.912-13.72-.89-20.6.02-3.44.117-6.88.294-10.318l.295-5.1c.1-1.703.205-3.436.38-5.202a52.77 52.77 0 01.777-5.364c.363-1.786.882-3.69 1.61-5.453.725-1.778 1.608-3.515 2.822-5.191 1.232-1.64 2.784-3.364 5.311-4.424a8.63 8.63 0 014.181-.568c1.426.16 2.7.672 3.753 1.284 1.068.614 1.935 1.336 2.693 2.077.77.727 1.488 1.583 2.085 2.43 1.214 1.717 2.058 3.508 2.76 5.234.66 1.72 1.262 3.439 1.75 5.197 2 7.024 2.423 14.27 2.164 21.295-.28 7.044-1.217 13.937-2.39 20.689-2.3 13.56-6.69 26.89-12.549 39.425a46.183 46.183 0 01-2.2 4.194c1.506 2.243 3.48 4.293 5.678 5.504 1.3.717 2.53.975 3.812.69 1.302-.294 2.59-1.086 3.77-2.047 1.842-1.551 3.4-3.534 4.834-5.62-.017-.116-.04-.232-.058-.35-1.073-6.813-1.537-13.698-1.61-20.572a180.495 180.495 0 011.008-20.575l1.162-10.16c.425-3.424.955-6.918 2.04-10.411.54-1.743 1.24-3.488 2.188-5.172.48-.84 1.025-1.662 1.65-2.445.31-.392.65-.77.998-1.14a9.95 9.95 0 011.357-1.148c1.976-1.407 4.711-1.892 7.087-1.168 2.392.66 4.344 2.48 5.42 4.346 1.123 1.903 1.637 3.886 1.971 5.727.306 1.836.5 3.562.62 5.352.248 3.55.182 7.099-.116 10.608-.578 7.028-2.126 13.892-4.235 20.53A121.066 121.066 0 0194.6 96.122a46.72 46.72 0 01-5.995 8.783c-.378.435-.775.856-1.168 1.28l.222 1.29a63.051 63.051 0 001.107 4.822c.852 3.196 1.953 6.34 3.184 9.444.088.22.183.44.274.66 21.591-10.29 36.513-32.312 36.513-57.822 0-35.357-28.662-64.02-64.019-64.02" fill="#FA4F0D" mask="url(#j)"/></g></g></svg>