<?xml version="1.0" encoding="utf-8"?>
<!-- Generator: Adobe Illustrator 27.0.0, SVG Export Plug-In . SVG Version: 6.00 Build 0)  -->
<svg version="1.1" id="Layer_2_00000008849113076996912990000014145188983498132100_"
	 xmlns="http://www.w3.org/2000/svg" xmlns:xlink="http://www.w3.org/1999/xlink" x="0px" y="0px" viewBox="0 0 1488.8 373.4"
	 style="enable-background:new 0 0 1488.8 373.4;" xml:space="preserve">
<g id="SFP">
	<g>
		<polygon points="1339.8,37.7 1341.7,38.5 1450.3,38.5 1450.3,147.1 1451.1,149 1484.2,182 1488.8,180.1 1488.8,35.7 1488.8,9 
			1488.8,2.7 1486.1,0 1308.7,0 1306.8,4.6 		"/>
		<g>
			<path d="M1254,328.9c0-3.1-0.8-5.2-2.4-6.3s-3.8-1.7-6.4-1.7h-16.9l-0.9,0.9V336l0.9,0.9h16.9c1.3,0,2.5-0.1,3.6-0.4
				c1.1-0.2,2.1-0.7,2.8-1.3c0.8-0.6,1.4-1.5,1.8-2.5C1253.8,331.7,1254,330.4,1254,328.9 M1266.5,328.9c0,3.1-0.5,5.9-1.6,8.2
				c-1.1,2.3-2.5,4.3-4.4,5.8c-1.9,1.6-4.1,2.8-6.8,3.5s-5.5,1.2-8.6,1.2h-16.9l-0.9,0.9v23.1l-0.9,0.9h-10.7l-0.9-0.9v-60.5
				l0.9-0.9h29.4c3.1,0,5.9,0.4,8.6,1.2s4.9,1.9,6.8,3.5c1.9,1.6,3.3,3.5,4.4,5.9C1266,323.1,1266.5,325.8,1266.5,328.9"/>
			<path d="M1313.7,328.9c0-3.1-0.8-5.2-2.4-6.3s-3.8-1.7-6.4-1.7h-16.9l-0.9,0.9V336l0.9,0.9h16.9c1.3,0,2.5-0.1,3.6-0.4
				c1.1-0.2,2.1-0.7,2.8-1.3c0.8-0.6,1.4-1.5,1.8-2.5C1313.5,331.7,1313.7,330.4,1313.7,328.9 M1326.1,328.9c0,2.4-0.4,4.6-1.1,6.6
				s-1.7,3.7-2.9,5.2s-2.7,2.8-4.3,3.8s-3.3,1.7-5.1,2.1v0.9l11.6,15.1v8.9l-0.9,0.9h-5.3l-1.8-0.9l-17.8-23.1l-1.8-0.9h-8.9
				l-0.9,0.9v23.1l-0.9,0.9h-10.7l-0.9-0.9v-60.5l0.9-0.9h29.4c3.1,0,5.9,0.4,8.6,1.2s4.9,1.9,6.8,3.5c1.9,1.6,3.3,3.5,4.4,5.9
				C1325.6,323.1,1326.1,325.8,1326.1,328.9"/>
			<path d="M1381.3,341.4c0-3.1-0.4-6-1.2-8.6c-0.8-2.6-1.9-4.9-3.4-6.8c-1.5-1.9-3.4-3.3-5.6-4.4c-2.2-1.1-4.8-1.6-7.7-1.6
				s-5.5,0.5-7.7,1.6c-2.2,1.1-4.1,2.5-5.6,4.4s-2.7,4.1-3.4,6.8c-0.8,2.6-1.2,5.5-1.2,8.6s0.4,6,1.2,8.6c0.8,2.6,1.9,4.9,3.4,6.7
				s3.4,3.3,5.6,4.4c2.2,1.1,4.7,1.6,7.7,1.6s5.5-0.5,7.7-1.6c2.2-1.1,4.1-2.5,5.6-4.4s2.7-4.1,3.4-6.7
				C1381,347.4,1381.3,344.5,1381.3,341.4 M1393.8,341.4c0,4.7-0.7,9-2.1,12.9c-1.4,3.9-3.4,7.3-6,10.1s-5.8,5.1-9.5,6.6
				s-7.9,2.4-12.6,2.4s-8.9-0.8-12.6-2.4c-3.7-1.6-6.9-3.8-9.5-6.6s-4.6-6.2-6-10.1c-1.4-3.9-2.1-8.2-2.1-12.9s0.7-9,2.1-12.9
				s3.4-7.3,6-10.1s5.8-5.1,9.5-6.6s7.9-2.4,12.6-2.4s8.9,0.8,12.6,2.4c3.7,1.6,6.9,3.8,9.5,6.6s4.6,6.2,6,10.1
				C1393.1,332.4,1393.8,336.7,1393.8,341.4"/>
		</g>
		<polygon points="149,334.1 147.1,333.3 38.5,333.3 38.5,224.7 37.7,222.8 4.6,189.7 0,191.7 0,336 0,362.8 0,369 2.7,371.8 
			180.1,371.8 182,367.1 		"/>
		<g>
			<g>
				<path d="M168,278.4c-51.3,0-74.4-25.6-74.4-59l2.6-2.6h30.8l2.6,2.6c0,18,10.3,28.2,41,28.2c23.1,0,35.9-7.7,35.9-23.1
					c0-18-10.3-23.1-46.2-28.2s-64.1-18-64.1-53.9c0-25.7,20.5-48.7,69.3-48.7s69.3,23.1,69.3,53.9l-2.6,2.6h-30.8l-2.6-2.6
					c0-15.4-7.7-23.1-35.9-23.1c-23.1,0-30.8,7.7-30.8,18c0,15.4,10.3,20.5,46.2,25.6c35.9,5.1,64.1,20.5,64.1,56.4
					C242.4,252.7,221.8,278.4,168,278.4L168,278.4z"/>
				<path d="M403.2,275.8h-23.1l-2.6-2.6l-12.8-33.3l-5.1-2.6h-64.1l-5.1,2.6l-12.8,33.3l-2.6,2.6h-23.1l-2.6-2.6v-25.6l59-148.8
					l2.6-2.6h33.4l2.6,2.6l59,148.8v25.6L403.2,275.8L403.2,275.8z M328.8,142.4h-2.6L303.2,204l2.6,2.6h43.6l2.6-2.6L328.8,142.4
					L328.8,142.4z"/>
				<path d="M539.2,127h-79.5l-2.6,2.6v38.5l2.6,2.6h74.4l2.6,2.6v25.6l-2.6,2.6h-74.4l-2.6,2.6v69.3l-2.6,2.6h-30.8l-2.6-2.6V98.8
					l2.6-2.6h115.4l2.6,2.6v25.7L539.2,127L539.2,127z"/>
				<path d="M681,275.8H560.4l-2.6-2.6V98.8l2.6-2.6H681l2.6,2.6v25.7L681,127h-84.7l-2.6,2.6v35.9l2.6,2.6h79.5l2.6,2.6v25.6
					l-2.6,2.6h-79.5l-2.6,2.6v41l2.6,2.6H681l2.6,2.6v25.6L681,275.8L681,275.8z"/>
			</g>
			<g>
				<path d="M859.1,127h-79.5l-2.6,2.6v38.5l2.6,2.6H854l2.6,2.6v25.6l-2.6,2.6h-74.4L777,204v69.3l-2.6,2.6h-30.8l-2.6-2.6V98.8
					l2.6-2.6h115.4l2.6,2.6v25.7L859.1,127L859.1,127z"/>
				<path d="M959.1,278.4c-53.9,0-87.2-38.5-87.2-92.3s33.3-92.3,87.2-92.3s87.2,38.5,87.2,92.3S1013,278.4,959.1,278.4L959.1,278.4
					z M959.1,124.5c-33.3,0-51.3,25.6-51.3,61.6s18,61.6,51.3,61.6s51.3-25.6,51.3-61.6S992.5,124.5,959.1,124.5z"/>
				<path d="M1143.8,278.4c-53.9,0-87.2-38.5-87.2-92.3s33.3-92.3,87.2-92.3s87.2,38.5,87.2,92.3S1197.7,278.4,1143.8,278.4z
					 M1143.8,124.5c-33.3,0-51.3,25.6-51.3,61.6s17.9,61.6,51.3,61.6s51.3-25.6,51.3-61.6S1177.2,124.5,1143.8,124.5z"/>
				<path d="M1305.4,275.8H1249l-2.6-2.6V98.8l2.6-2.6h56.4c64.1,0,87.2,33.3,87.2,89.8S1369.5,275.8,1305.4,275.8z M1308,127h-23.1
					l-2.6,2.6v112.9l2.6,2.6h23.1c35.9,0,48.7-17.9,48.7-59S1343.9,127,1308,127L1308,127z"/>
			</g>
		</g>
	</g>
</g>
</svg>
