<svg xmlns="http://www.w3.org/2000/svg" width="142.725" height="45.422" viewBox="0 0 142.725 45.422">
  <g id="Logo1" transform="translate(-245.706 -320.089)">
    <path id="Path_105" data-name="Path 105" d="M365.4,150.909c-.472-.933-1.38-.128.34,1.912l.237.281c-4.356,5.237-7.693,2.756-12.279-.457a5.052,5.052,0,0,0,1.445-1.919,7.487,7.487,0,0,0,.859-3.32,11.638,11.638,0,0,0-.778-5.707,4.637,4.637,0,0,0-4.62-5.2,2.511,2.511,0,0,1-1.848,1.762c-2.625.6-4.439,1.649-5.295,3.268a6.086,6.086,0,0,0,.451,6.048q-1.4,1.782,1.659,3.3.149.1.288.189.365.232.745.434h0c-2.165.268-4.345-.847-6.523-.719-4.377.257-7.181,2.484-8.376,6.723l-.048.171-.154.089a2.22,2.22,0,0,0-1.092,1.693,2.152,2.152,0,0,0,.757,1.874c.38.183.725-.206.947.1l.055.074c.306.317.483.083.755-.022.339-.122,1.09.7,1.284-.264a4.576,4.576,0,0,0-.033-1.442c.18.242.826.362.669-.4a10.784,10.784,0,0,0-.693-1.184c-.149-.225-.216-.321-.37-.543.666-1.913,3.83-2.893,5.676-2.57a5.772,5.772,0,0,1,3.885,2.4,6.972,6.972,0,0,1,1.151,3.64,9.508,9.508,0,0,1-.687,3.952,7.946,7.946,0,0,1-4.465,4.612,5.939,5.939,0,0,1-4.49-.161c-1.438-.022-4.292.8-4.756,2.295a.369.369,0,0,0-.016.206c.073.22.679.276.853.285a10.338,10.338,0,0,0,3.146-.586l.187-.057.168.1a14.519,14.519,0,0,0,15.916-.657l.2-.141.225.091A17.643,17.643,0,0,1,360.9,181.92a21.287,21.287,0,0,0,3.766-1.081,5.2,5.2,0,0,0,1.183-.638c.08-.063.3-.255.3-.373,0-.192-.576-.474-.712-.534a13.761,13.761,0,0,0-3.1-.8l-.353-.06-.013-.358a15.526,15.526,0,0,0-7.813-12.91l-.33-.189.139-.354a15.407,15.407,0,0,0,1.062-6.029l-.019-.72.649.313c4.885,2.357,10.979.441,12.334-5.145l.044-.182c.727-.848,1.23-3.722-.219-3.3a.3.3,0,0,1-.321-.1c-.2-.248-.351-.339-.478-.351-.233-.024-.371.227-.5.236a.618.618,0,0,1-.426-.178c-.977-.723-.744,1.345-.7,1.743Zm-11.479,5.426c-.077.354-2.009-.2-2.5-.69a.206.206,0,0,1-.162.142c-.29.036-.494.113-.587-.048-.408.6-2.177,1.8-2.309,1.477a7.766,7.766,0,0,1-.441-3.346c.058-.627,2.067.159,2.387.365a.929.929,0,0,1,.313.562c0-.1-.005-.187-.008-.26v0a.192.192,0,0,1,.127-.077c.116-.014.492-.091.536-.012.009.074.023.159.034.262a1.014,1.014,0,0,1,.2-.6c.216-.227,2.179-1.258,2.3-.786A6.272,6.272,0,0,1,353.922,156.335Z" transform="translate(19.677 183.591)" fill="#6cc4c2" fill-rule="evenodd"/>
    <path id="Path_106" data-name="Path 106" d="M245.706,368.812a1.977,1.977,0,0,0,.852,1.557,12.441,12.441,0,0,0,8.375,2.891,9.484,9.484,0,0,0,6.522-2.15,6.794,6.794,0,0,0,2.483-5.373c0-3.521-2.557-6.189-7.634-8-3.854-1.334-5.225-2.557-5.225-4.484,0-1.668,1.594-3.15,4.3-3.15a7.818,7.818,0,0,1,4.892,1.668,2.537,2.537,0,0,0,1.408.556,1.753,1.753,0,0,0,1.779-1.853,2.119,2.119,0,0,0-1.038-1.7,11.649,11.649,0,0,0-7.078-2.187,9.476,9.476,0,0,0-6.263,2,6.265,6.265,0,0,0-2.372,5.04c0,3.261,2.149,5.67,6.485,7.227,4.855,1.779,6.411,3.187,6.411,5.373,0,1.964-1.816,3.521-4.373,3.521a10.13,10.13,0,0,1-6.189-2.149,2.444,2.444,0,0,0-1.445-.63,1.78,1.78,0,0,0-1.89,1.853Z" transform="translate(0 -18.833)" fill="#6cc4c2" fill-rule="evenodd"/>
    <path id="Path_107" data-name="Path 107" d="M318.289,371.492a1.966,1.966,0,0,0,2.038,2.038,1.945,1.945,0,0,0,2.038-2.038v-7.819l9.08,8.968a2.113,2.113,0,0,0,1.668.89,1.8,1.8,0,0,0,1.927-1.89,2.194,2.194,0,0,0-.556-1.408l-7.708-7.115,7.152-5.781a1.846,1.846,0,1,0-2.668-2.52l-8.894,7.93V349.219a1.916,1.916,0,0,0-2.038-2,1.936,1.936,0,0,0-2.038,2Z" transform="translate(-51.606 -19.288)" fill="#6cc4c2" fill-rule="evenodd"/>
    <path id="Path_108" data-name="Path 108" d="M383.336,349.657a2.473,2.473,0,0,0,2.594-2.52,2.6,2.6,0,0,0-5.188,0,2.5,2.5,0,0,0,2.594,2.52Zm2.075,4.706a2.076,2.076,0,0,0-4.151,0v15.231a2.076,2.076,0,1,0,4.151,0Z" transform="translate(-96.01 -17.465)" fill="#6cc4c2" fill-rule="evenodd"/>
    <path id="Path_109" data-name="Path 109" d="M420.383,370.556a8.049,8.049,0,0,0-7.041,3.743v-1.668a1.872,1.872,0,1,0-3.743,0v21.42a1.936,1.936,0,0,0,2.038,2,1.916,1.916,0,0,0,2.038-2v-7a7.662,7.662,0,0,0,6.559,3.261,8.926,8.926,0,0,0,6.67-2.891,9.787,9.787,0,0,0,2.817-7.078,9.648,9.648,0,0,0-2.742-6.967,8.831,8.831,0,0,0-6.6-2.817Zm5.262,9.858a6.125,6.125,0,0,1-1.742,4.41,6.267,6.267,0,0,1-8.671,0,6.126,6.126,0,0,1-1.742-4.41,5.894,5.894,0,0,1,1.742-4.336,6.173,6.173,0,0,1,8.671,0A5.893,5.893,0,0,1,425.646,380.414Z" transform="translate(-116.528 -35.882)" fill="#6cc4c2" fill-rule="evenodd"/>
    <path id="Path_110" data-name="Path 110" d="M487.418,388.085a1.966,1.966,0,0,0,2.038,2.038,1.946,1.946,0,0,0,2.038-2.038v-6.633c0-4.447,2.149-6.745,5.707-6.745a2.044,2.044,0,0,0,2.112-2.112,2.006,2.006,0,0,0-2.112-2.038c-2.668,0-4.855,1.557-6.078,4.336l-.074-2.372c.223-2.335-3.854-2.335-3.632,0Z" transform="translate(-171.851 -35.882)" fill="#6cc4c2" fill-rule="evenodd"/>
    <path id="Path_111" data-name="Path 111" d="M528.767,387.492a10.624,10.624,0,0,0,14.49-.074,9.57,9.57,0,0,0,2.965-7.078,9.282,9.282,0,0,0-2.891-6.967,9.747,9.747,0,0,0-7.19-2.817,10.033,10.033,0,0,0-7.3,2.891,9.4,9.4,0,0,0-2.928,7.041,9.531,9.531,0,0,0,2.853,7Zm1.223-7.078a5.894,5.894,0,0,1,1.742-4.336,6.173,6.173,0,0,1,8.672,0,5.894,5.894,0,0,1,1.742,4.336,6.126,6.126,0,0,1-1.742,4.41,6.268,6.268,0,0,1-8.672,0A6.126,6.126,0,0,1,529.99,380.414Z" transform="translate(-199.227 -35.882)" fill="#6cc4c2" fill-rule="evenodd"/>
  </g>
</svg>
