<?xml version="1.0" encoding="UTF-8"?> <svg xmlns="http://www.w3.org/2000/svg" viewBox="0 0 132.51 132.51" xml:space="preserve"> <rect width="132.51" height="132.51" fill="#1369B2"></rect> <defs> <filter id="b" x="19.608" y="19.609" width="93.291" height="93.289" filterUnits="userSpaceOnUse"> <feColorMatrix values="1 0 0 0 0 0 1 0 0 0 0 0 1 0 0 0 0 0 1 0"></feColorMatrix> </filter> </defs> <mask id="a" x="19.608" y="19.609" width="93.291" height="93.289" maskUnits="userSpaceOnUse"> <g filter="url(#b)"> <rect x="19.035" y="16.682" width="94.178" height="29.762" fill="#fff"></rect> <rect x="19.035" y="86.219" width="94.178" height="28.735" fill="#fff"></rect> </g> </mask> <path d="m66.254 112.9c-25.721 0-46.646-20.926-46.646-46.645 0-25.72 20.925-46.645 46.646-46.645 25.72 0 46.646 20.925 46.646 46.645-1e-3 25.719-20.926 46.645-46.646 46.645zm0-88.364c-23.005 0-41.722 18.715-41.722 41.72 0 23.006 18.717 41.72 41.722 41.72 23.006 0 41.722-18.714 41.722-41.72 0-23.005-18.716-41.72-41.722-41.72z" fill="#fff" mask="url(#a)"></path> <path d="m14.683 75.887c-0.126-2.067-0.271-3.724-0.437-4.966 1.089 0.485 2.061 0.821 2.91 1.012 0.853 0.189 1.598 0.284 2.24 0.284 0.847 0 1.52-0.123 2.021-0.372 0.501-0.246 0.752-0.614 0.752-1.1 0-0.166-0.025-0.323-0.073-0.472-0.05-0.152-0.142-0.32-0.277-0.512-0.136-0.189-0.331-0.396-0.584-0.617l-2.743-2.39c-0.642-0.544-1.09-0.936-1.343-1.179-0.516-0.495-0.917-0.957-1.204-1.384s-0.496-0.862-0.628-1.304c-0.131-0.441-0.197-0.91-0.197-1.405 0-0.592 0.104-1.172 0.313-1.74s0.521-1.099 0.94-1.595c0.417-0.495 0.97-0.922 1.659-1.282 0.689-0.358 1.428-0.604 2.214-0.734 0.785-0.133 1.597-0.197 2.434-0.197 1.639 0 3.426 0.188 5.357 0.569 0.029 0.669 0.064 1.282 0.103 1.842 0.038 0.558 0.131 1.536 0.275 2.935-0.893-0.359-1.708-0.61-2.446-0.751-0.737-0.141-1.373-0.211-1.907-0.211-0.757 0-1.387 0.142-1.885 0.423-0.501 0.281-0.751 0.631-0.751 1.049 0 0.194 0.038 0.383 0.116 0.567s0.224 0.4 0.437 0.648c0.214 0.247 0.494 0.52 0.845 0.815 0.35 0.296 0.898 0.735 1.646 1.317l1.048 0.83c0.312 0.252 0.646 0.56 1.006 0.917 0.358 0.358 0.67 0.715 0.932 1.064s0.464 0.669 0.605 0.961c0.14 0.29 0.244 0.583 0.313 0.881 0.067 0.298 0.103 0.614 0.103 0.953 0 0.873-0.21 1.706-0.628 2.498-0.417 0.792-1.009 1.442-1.776 1.951-0.768 0.511-1.608 0.867-2.527 1.07-0.916 0.203-1.886 0.308-2.905 0.308-1.575 3e-3 -3.559-0.227-5.958-0.683z" fill="#fff"></path> <path d="m30.411 76.194 0.361-2.942 0.895-10.209 0.449-6.729c1.793 0.02 3.2 0.029 4.224 0.029 0.849 0 2.145-0.01 3.889-0.029 0.125 0.835 0.231 1.469 0.319 1.901 0.087 0.432 0.302 1.275 0.646 2.534 0.345 1.257 0.62 2.344 0.827 3.261 0.209 0.918 0.521 2.488 0.938 4.711 0.427-1.523 0.815-2.834 1.167-3.932 0.349-1.096 0.787-2.345 1.312-3.742 0.525-1.398 0.859-2.313 1-2.745 0.143-0.432 0.333-1.095 0.577-1.988 1.457 0.02 2.883 0.029 4.282 0.029 0.95 0 2.271-0.01 3.961-0.029-0.185 3.271-0.307 6.083-0.364 8.432-0.126 4.602-0.19 7.767-0.19 9.496 0 0.358 0.011 1.009 0.029 1.952-1.282-0.021-2.179-0.031-2.693-0.031-0.747 0-1.665 0.011-2.752 0.031 0.078-0.875 0.176-2.954 0.295-6.24 0.118-3.288 0.178-5.387 0.178-6.3 0-0.398-0.01-0.952-0.029-1.66l-1.91 5.927-2.743 8.273c-1.262-0.021-2.131-0.031-2.607-0.031-0.601 0-1.522 0.011-2.766 0.031l-1.797-8.011-1.049-4.267c-0.041-0.166-0.083-0.369-0.133-0.612-0.048-0.241-0.127-0.67-0.232-1.28l-0.368 4.033-0.485 8.271-0.043 1.866c-1.339-0.021-2.194-0.031-2.563-0.031-0.507 0-1.382 0.01-2.625 0.031z" fill="#fff"></path> <path d="m56.321 76.194 1.21-2.098 7.533-14.186 0.801-1.587c0.232-0.466 0.56-1.136 0.977-2.01 1.707 0.02 2.955 0.029 3.742 0.029 1.369 0 2.636-0.01 3.801-0.029l2.125 6.073 4.322 11.679 0.845 2.128c-1.681-0.021-2.704-0.031-3.061-0.031-0.817 0-2.018 0.011-3.604 0.031-0.426-1.604-1.041-3.486-1.847-5.652h-7.33c-0.843 1.71-1.718 3.593-2.618 5.652-1.809-0.021-2.917-0.031-3.323-0.031-0.741 1e-3 -1.931 0.011-3.573 0.032zm11.275-9.89h4.526c-1.125-3.421-1.741-5.306-1.847-5.655-0.641 1.425-1.184 2.593-1.631 3.504l-1.048 2.151z" fill="#fff"></path> <path d="m98.512 71.345c-0.115 0.569-0.257 1.365-0.422 2.387-0.166 1.021-0.276 1.812-0.335 2.374-2.076 0.31-3.933 0.467-5.563 0.467-1.572 0-3.035-0.198-4.391-0.59-1.354-0.395-2.597-1.04-3.729-1.938-1.131-0.898-1.939-1.954-2.426-3.167-0.483-1.216-0.727-2.573-0.727-4.078 0-1.758 0.328-3.338 0.982-4.741 0.655-1.402 1.598-2.573 2.826-3.51 1.227-0.937 2.574-1.606 4.042-2.01 1.466-0.402 2.979-0.604 4.543-0.604 1.438 0 3.214 0.186 5.329 0.553l0.03 1.224c0.018 0.533 0.048 1.122 0.087 1.763l0.101 1.659c-1.134-0.271-2.057-0.455-2.759-0.553-0.704-0.097-1.356-0.145-1.958-0.145-1.311 0-2.49 0.262-3.541 0.786-1.048 0.524-1.872 1.287-2.475 2.286-0.602 1-0.902 2.107-0.902 3.319 0 1.107 0.252 2.057 0.758 2.849 0.504 0.792 1.186 1.404 2.046 1.835 0.859 0.433 1.92 0.649 3.182 0.649 0.689 0 1.438-0.059 2.249-0.169 0.812-0.112 1.831-0.327 3.053-0.646z" fill="#fff"></path> <path d="m117.91 71.345c-0.117 0.569-0.257 1.365-0.422 2.387s-0.275 1.812-0.335 2.374c-2.077 0.31-3.932 0.467-5.565 0.467-1.569 0-3.034-0.198-4.389-0.59-1.354-0.395-2.598-1.04-3.728-1.938-1.132-0.898-1.94-1.954-2.425-3.167-0.486-1.216-0.729-2.573-0.729-4.078 0-1.758 0.327-3.338 0.982-4.741 0.655-1.402 1.599-2.573 2.825-3.51 1.23-0.937 2.575-1.606 4.042-2.01 1.464-0.402 2.981-0.604 4.544-0.604 1.437 0 3.214 0.186 5.329 0.553l0.029 1.224c0.019 0.533 0.049 1.122 0.086 1.763l0.103 1.659c-1.135-0.271-2.056-0.455-2.759-0.553-0.704-0.097-1.356-0.145-1.959-0.145-1.31 0-2.49 0.262-3.536 0.786-1.051 0.524-1.876 1.287-2.479 2.286-0.602 1-0.902 2.107-0.902 3.319 0 1.107 0.253 2.057 0.759 2.849 0.504 0.792 1.186 1.404 2.045 1.835 0.859 0.433 1.921 0.649 3.183 0.649 0.689 0 1.439-0.059 2.25-0.169 0.81-0.112 1.828-0.327 3.051-0.646z" fill="#fff"></path> </svg> 