<svg width="71" height="46" viewBox="0 0 71 46" fill="none" xmlns="http://www.w3.org/2000/svg">
<path d="M11.8189 13.4863C15.6958 13.5462 18.9543 14.5636 21.7473 16.8778C22.0665 17.1438 22.3525 17.4431 22.6118 17.7623C23.0374 18.2876 23.0507 18.7531 22.5919 19.2585C21.4813 20.4888 20.3375 21.6924 19.2003 22.9027C18.8147 23.315 18.3624 23.315 17.9169 23.0158C17.6243 22.8163 17.3583 22.5769 17.0857 22.3508C15.5296 21.0474 13.8072 20.2294 11.7125 20.4755C11.2869 20.522 10.8546 20.6151 10.449 20.7548C9.71745 21.0075 9.1788 21.4863 9.06575 22.3042C8.95935 23.0889 9.35835 23.6941 9.9635 24.0465C10.8081 24.5386 11.7191 24.9376 12.6302 25.2967C14.3392 25.9684 16.0815 26.5469 17.7839 27.2319C18.6019 27.5644 19.3866 28.0033 20.1447 28.4621C23.0374 30.2177 24.1347 32.9176 23.9152 36.1628C23.6293 40.3989 21.2752 43.2185 17.4049 44.6748C12.3841 46.5568 7.65595 45.7721 3.33345 42.62C2.4091 41.9483 1.5313 41.1969 0.693403 40.4255C-0.250897 39.5543 -0.217645 39.0489 0.713355 38.1645C1.71085 37.2135 2.70835 36.2626 3.7125 35.3116C4.4307 34.6333 4.75655 34.6267 5.56785 35.2119C6.61855 35.9766 7.66925 36.7414 8.7399 37.4795C10.1697 38.477 11.7723 38.6699 13.4415 38.3573C14.5454 38.1512 15.2902 37.4795 15.5429 36.3623C15.7956 35.2584 15.3168 34.3873 14.4257 33.822C13.6676 33.3366 12.8164 32.9974 11.9851 32.645C10.3027 31.9201 8.56035 31.3083 6.92445 30.4837C5.80725 29.9251 4.74325 29.187 3.8056 28.3624C-0.563447 24.5386 0.188005 17.9485 5.26195 15.1422C7.40325 13.9651 9.6975 13.4863 11.8189 13.4863Z" fill="#F8991D"/>
<path d="M39.4764 18.2676C47.0774 18.2477 53.2885 24.3723 53.3084 31.8935C53.3284 39.5077 47.1439 45.6989 39.5296 45.6922C31.9486 45.6922 25.7508 39.5742 25.7442 32.093C25.7309 24.4255 31.8289 18.2876 39.4764 18.2676ZM45.6011 31.8735C45.6609 30.4438 45.1622 29.0739 44.3176 27.817C42.4689 25.0706 38.5055 24.5585 35.8921 26.5801C33.0725 28.7613 32.6602 33.3698 34.7549 36.2093C36.2977 38.2974 38.9311 39.122 41.3983 38.3041C43.8854 37.4728 45.5944 34.9059 45.6011 31.8735Z" fill="#F8991D"/>
<path d="M63.7084 25.4439C63.7084 28.5428 63.7084 31.6417 63.7084 34.7406C63.7084 36.177 64.6194 37.108 66.0558 37.1279C67.04 37.1412 68.0309 37.1213 69.0151 37.1545C69.8197 37.1878 70.0857 37.4538 70.0924 38.2518C70.1123 40.167 70.1123 42.0822 70.099 43.9974C70.0924 44.5427 69.8663 45.0082 69.2611 45.0348C66.6144 45.1412 63.9478 45.3207 61.4939 44.024C57.8098 42.0822 55.7949 39.0232 55.7483 34.8403C55.6885 28.6226 55.7283 22.4048 55.735 16.1804C55.735 14.9701 55.9811 14.7108 57.1847 14.6975C58.8805 14.6842 60.5828 14.6842 62.2786 14.6975C63.449 14.7108 63.7084 14.9901 63.7084 16.1405C63.7084 19.2461 63.7084 22.345 63.7084 25.4439Z" fill="#F8991D"/>
<path d="M49.1584 4.67589C50.5017 4.66924 51.7785 4.97514 53.0088 5.50049C53.3479 5.64679 53.4676 5.85294 53.461 6.22534C53.4011 12.6758 46.3322 17.0715 40.5533 14.2585C40.1344 14.0524 40.1277 13.7598 40.141 13.394C40.3206 8.53954 44.3039 4.68919 49.1584 4.67589Z" fill="#F8991D"/>
<path d="M27.0674 9.81509C29.3683 8.93064 31.6293 8.05949 33.99 7.14844C34.8745 9.45599 35.7523 11.7369 36.6567 14.0777C34.3292 14.9755 32.0748 15.84 29.734 16.7377C28.8363 14.4235 27.9651 12.1559 27.0674 9.81509Z" fill="#F8991D"/>
<path d="M38.2662 2.48288e-05C39.942 2.48288e-05 41.2853 1.33668 41.2853 2.99918C41.2853 4.65503 39.9287 5.99833 38.2595 5.99833C36.5904 5.99833 35.2471 4.65503 35.2471 2.99253C35.2537 1.32338 36.5904 -0.00662517 38.2662 2.48288e-05Z" fill="#F8991D"/>
</svg>
