<svg width="188" height="51" viewBox="0 0 188 51" fill="none" xmlns="http://www.w3.org/2000/svg">
<g clip-path="url(#clip0_646_40)">
<g clip-path="url(#clip1_646_40)">
<path d="M44.1502 7.12957L44.0205 6.98617H44.0068L43.8634 6.85644C39.7324 3.08736 32.8703 0.929688 25.0316 0.929688C17.193 0.929688 10.3377 3.08736 6.19987 6.85644L6.05648 6.98617L5.92675 7.12957C2.15767 11.2605 0 18.1227 0 25.9545C0 33.7863 2.15767 40.6485 5.94041 44.7863L6.07014 44.9297L6.21353 45.0594C10.3445 48.8285 17.2067 50.9998 25.0453 50.9998C32.8839 50.9998 39.7393 48.8421 43.8771 45.0594L44.0205 44.9297L44.1502 44.7863C47.9193 40.6553 50.077 33.7931 50.0906 25.9545C50.0906 18.1227 47.9329 11.2605 44.1502 7.12274V7.12957Z" fill="#E3077F"/>
<path d="M13.4043 35.1584V25.9273C13.4043 22.9682 15.0947 20.3143 17.6578 19.2441V28.4752C17.6578 31.4344 15.9674 34.0882 13.4043 35.1584Z" fill="white"/>
<path d="M19.3584 39.3062V27.3961C19.3584 24.437 21.0488 21.7813 23.612 20.7129V32.623C23.612 35.5822 21.9216 38.2361 19.3584 39.3062Z" fill="white"/>
<path d="M25.4707 34.3471V19.5981C25.4707 16.639 27.1611 13.9833 29.7242 12.9131V27.6621C29.7242 30.6212 28.0338 33.2751 25.4707 34.3453" fill="white"/>
<path d="M31.583 36.424V23.0953C31.583 20.1362 33.2734 17.4805 35.8366 16.4121V29.7408C35.8366 32.6999 34.1462 35.3538 31.583 36.424Z" fill="white"/>
<path d="M179.047 33.5857C175.523 33.5857 173.115 31.6474 173.115 27.6239V13.5566H176.61V18.696H184.099V21.8678H176.61V27.6239C176.61 29.5622 177.608 30.3258 179.047 30.3258C180.486 30.3258 181.485 29.5916 181.485 27.6239V27.2421H184.98V27.6239C184.98 31.6474 182.572 33.5857 179.047 33.5857Z" fill="white"/>
<path d="M156.799 33.2039V12.3525H160.294V20.7224C161.263 19.1659 162.761 18.3142 164.611 18.3142C167.959 18.3142 171.131 20.4875 171.131 25.6563V33.2039H167.636V25.6563C167.636 22.8957 166.168 21.5741 163.965 21.5741C161.821 21.5741 160.294 22.9544 160.294 25.6563V33.2039H156.799Z" fill="white"/>
<path d="M146.626 39.7826C143.014 39.7826 140.165 38.2261 139.255 34.79H142.779C143.366 36.141 144.776 36.7577 146.626 36.7577C149.21 36.7577 150.826 35.5536 150.826 32.1763V30.9135C149.827 32.5287 148.094 33.4097 145.921 33.4097C142.456 33.4097 138.755 31.0897 138.755 25.9502C138.755 21.545 141.986 18.3145 146.567 18.3145C151.149 18.3145 154.32 21.3688 154.32 26.0677V32.0588C154.32 37.6094 150.884 39.7826 146.626 39.7826ZM146.567 30.1499C149.122 30.1499 150.826 28.5053 150.826 25.9502C150.826 23.3952 149.122 21.5744 146.567 21.5744C144.012 21.5744 142.28 23.3952 142.28 25.9502C142.28 28.5053 144.012 30.1499 146.567 30.1499Z" fill="white"/>
<path d="M135.115 16.8171C133.764 16.8171 132.794 15.8479 132.794 14.497C132.794 13.146 133.764 12.1475 135.115 12.1475C136.465 12.1475 137.435 13.146 137.435 14.497C137.435 15.8479 136.465 16.8171 135.115 16.8171ZM133.352 33.2045V18.6966H136.847V33.2045H133.352Z" fill="white"/>
<path d="M126.863 33.2039V12.3525H130.357V33.2039H126.863Z" fill="white"/>
<path d="M119.066 33.5857C115.542 33.5857 113.134 31.6474 113.134 27.6239V13.5566H116.629V18.696H124.118V21.8678H116.629V27.6239C116.629 29.5622 117.627 30.3258 119.066 30.3258C120.505 30.3258 121.504 29.5916 121.504 27.6239V27.2421H124.999V27.6239C124.999 31.6474 122.591 33.5857 119.066 33.5857Z" fill="white"/>
<path d="M103.917 33.586C99.336 33.586 96.1055 30.3555 96.1055 25.9502C96.1055 21.545 99.336 18.3145 103.917 18.3145C108.498 18.3145 111.729 21.545 111.729 25.9502C111.729 30.3555 108.498 33.586 103.917 33.586ZM103.917 30.3261C106.472 30.3261 108.175 28.5053 108.175 25.9502C108.175 23.3952 106.472 21.5744 103.917 21.5744C101.362 21.5744 99.6297 23.3952 99.6297 25.9502C99.6297 28.5053 101.362 30.3261 103.917 30.3261Z" fill="white"/>
<path d="M79.7061 39.4009V26.0677C79.7061 21.3688 82.8779 18.3145 87.43 18.3145C92.0408 18.3145 95.2713 21.4863 95.2713 26.0971C95.2713 31.0603 91.5709 33.586 88.0467 33.586C85.9615 33.586 84.2288 32.7049 83.2009 31.0897V39.4009H79.7061ZM87.4593 30.3261C90.0144 30.3261 91.7471 28.5053 91.7471 25.9502C91.7471 23.3952 90.0144 21.5744 87.4593 21.5744C84.9043 21.5744 83.2009 23.3952 83.2009 25.9502C83.2009 28.5053 84.9043 30.3261 87.4593 30.3261Z" fill="white"/>
<path d="M72.1994 33.586C68.499 33.586 66.1789 31.6183 66.0908 28.9164H69.615C69.6443 29.8856 70.496 30.5317 72.1994 30.5317C73.9908 30.5317 74.7544 29.7975 74.7544 28.9164C74.7544 27.8004 73.4622 27.6536 71.9057 27.448C69.6737 27.1543 66.3845 26.7725 66.3845 23.219C66.3845 20.2528 68.6458 18.3145 72.1406 18.3145C75.6942 18.3145 77.8674 20.3115 77.9555 22.8666H74.4901C74.402 21.9855 73.5797 21.3688 72.1994 21.3688C70.6722 21.3688 69.9086 22.103 69.9086 22.9547C69.9086 24.0707 71.2302 24.2469 72.7867 24.4525C74.725 24.7168 78.2786 25.0986 78.2786 28.7108C78.2786 31.6477 75.8997 33.586 72.1994 33.586Z" fill="white"/>
</g>
</g>
<defs>
<clipPath id="clip0_646_40">
<rect width="188" height="51" fill="white"/>
</clipPath>
<clipPath id="clip1_646_40">
<rect width="391" height="51" fill="white"/>
</clipPath>
</defs>
</svg>
