<?xml version="1.0" encoding="UTF-8" standalone="no" ?>
<svg width="124" height="38" viewBox="0 0 124 38" fill="none" xmlns="http://www.w3.org/2000/svg">
<g clip-path="url(#clip0_720_4252)">
<path d="M48.2503 33.6301C46.0481 36.2835 42.7258 37.7948 38.9036 37.7948C32.1325 37.7948 27.8125 32.8963 27.8125 26.4057C27.8125 20.282 31.8414 15.2197 38.7792 15.2197C45.3414 15.2197 49.2458 20.8542 49.2458 26.4057V28.487H33.5436C34.2081 31.1404 36.2014 32.8133 38.9436 32.8133C41.3103 32.8133 42.9725 31.7104 44.0103 30.4459L48.2503 33.6301ZM43.3903 24.1192C42.6836 21.5465 40.7725 20.2012 38.6125 20.2012C36.1614 20.2012 34.2103 21.4657 33.6281 24.1192H43.3903Z" fill="black"/>
<path d="M53.3828 37.3866V15.6305H58.7828V20.4854C60.5273 16.8513 63.4361 15.0977 66.925 15.0977C72.4495 15.0977 75.3984 19.424 75.3984 24.3225V37.3844H69.9984V24.3225C69.9984 21.6275 68.7517 20.4046 66.8406 20.4046C63.3517 20.4046 58.7828 24.5693 58.7828 35.9977V37.3866H53.3828Z" fill="black"/>
<path d="M90.8704 20.8892H79.7527V15.626H97.9638V20.887L86.526 32.049H98.2015V37.3799H79.4727V32.0555L90.8704 20.8892Z" fill="black"/>
<path d="M100.633 26.569C100.633 20.2815 105.784 15.0576 112.222 15.0576C118.577 15.0576 123.237 20.2837 123.237 26.569C123.237 32.8543 118.411 38.0804 112.055 38.0804C105.617 38.0804 100.633 32.8128 100.633 26.569ZM117.713 26.5275C117.713 23.0573 115.419 20.24 112.179 20.24C108.939 20.24 105.791 23.0573 105.791 26.6083C105.791 30.0785 108.773 32.8543 112.013 32.8543C115.295 32.8543 117.713 30.037 117.713 26.5275Z" fill="black"/>
<path d="M23.2012 37.3295L17.7945 37.299C17.7945 37.299 17.8701 19.7054 17.8167 16.1194C14.5612 16.8838 11.2101 17.0978 7.81006 16.4579C2.28117 15.4184 0.134502 11.0921 0.481169 7.51264C0.830058 3.89391 3.78339 0 9.44117 0C15.8678 0 20.9189 3.47678 22.5612 8.82736C26.8323 6.88805 30.9523 4.20184 34.6345 1.79954L35.6145 1.16184L38.5967 5.59299L37.6212 6.22851C33.2856 9.05667 23.1834 14.3767 23.1834 14.3767L23.2012 37.3295ZM9.44117 5.31345C7.91006 5.31345 6.0545 6.02103 5.86339 8.01713C5.74117 9.28379 6.4545 10.7972 8.82784 11.2449C11.6723 11.78 14.5856 11.4983 17.4812 10.7033C16.479 6.74172 12.6012 5.31345 9.44117 5.31345Z" fill="black"/>
</g>
<defs>
<clipPath id="clip0_720_4252">
<rect width="124" height="38" fill="white"/>
</clipPath>
</defs>
</svg>
