<svg xmlns="http://www.w3.org/2000/svg" width="81" height="66" viewBox="0 0 81 66">
    <g fill="#FF2D55" fill-rule="evenodd" transform="translate(0 .5)">
        <g fill-rule="nonzero">
            <path d="M36.172 30.213v30.342c0 2.002-1.622 3.624-3.624 3.624s-3.624-1.622-3.624-3.624V30.213h7.248z"/>
            <path d="M42.523 23.561c2.285-.403 4.464 1.123 4.867 3.408.45 2.548-1.252 4.978-3.8 5.428l-22.898 4.037c-1.407.248-2.75-.691-2.997-2.099-.242-1.372.557-2.715 1.879-3.156l22.348-7.465c.196-.066.397-.117.601-.153zM64.805 31.709v2.827h-9.69c-.78 0-1.413-.633-1.413-1.413 0-.781.633-1.414 1.413-1.414h9.69zM34.525 5.638v4.224c0 .78-.633 1.414-1.414 1.414-.78 0-1.413-.633-1.413-1.414V5.638h2.827zM11.276 33.123c0 .78-.633 1.413-1.414 1.413H5.638V31.71h4.224c.78 0 1.414.633 1.414 1.414z"/>
            <path d="M32.402 0C14.507 0 0 14.507 0 32.402 0 50.12 14.218 64.514 31.836 64.8h2.934c1.557 0 2.819-1.262 2.819-2.818s-1.261-2.817-2.817-2.817h-.002l-2.368.002c-14.781 0-26.764-11.983-26.764-26.765 0-14.781 11.983-26.764 26.764-26.764 14.623 0 26.507 11.726 26.76 26.289l.003 2.71c.001 1.558 1.264 2.82 2.82 2.82 1.558 0 2.82-1.263 2.82-2.82v-2.235C64.805 14.507 50.298 0 32.402 0z"/>
        </g>
        <path fill-rule="nonzero" d="M47.211 47.92v13.555c0 1.81-1.466 3.276-3.275 3.276-1.81 0-3.276-1.467-3.276-3.276V47.92c0-1.809 1.467-3.276 3.276-3.276 1.809 0 3.275 1.467 3.275 3.276zM56.03 47.97v13.555c0 1.809-1.467 3.275-3.276 3.275-1.809 0-3.275-1.466-3.275-3.275V47.97c0-1.81 1.466-3.276 3.275-3.276 1.81 0 3.276 1.467 3.276 3.276z"/>
        <circle cx="57.59" cy="47.944" r="3.25"/>
        <path d="M69.794 44.694c5.552 0 10.053 4.501 10.053 10.053 0 5.552-4.5 10.053-10.053 10.053-5.552 0-10.053-4.5-10.053-10.053 0-5.552 4.501-10.053 10.053-10.053zm0 6.095c-2.186 0-3.958 1.772-3.958 3.958s1.772 3.959 3.958 3.959 3.959-1.773 3.959-3.959-1.773-3.958-3.959-3.958z"/>
        <circle cx="43.91" cy="39.762" r="3.25"/>
    </g>
</svg>
