<svg width="114" height="18" viewBox="0 0 114 18" fill="none" xmlns="http://www.w3.org/2000/svg">
<path d="M19.3537 8.66225H22.3555C23.4151 8.66225 24.1913 8.41611 24.6873 7.9176C25.1833 7.41908 25.4313 6.76477 25.4313 5.94845C25.4313 5.13213 25.1865 4.50899 24.7002 4.02916C24.2106 3.54934 23.4216 3.30943 22.3297 3.30943H19.3537V8.66225ZM16.178 17.5421V0.742065H22.5552C23.9465 0.742065 25.0899 0.969517 25.9917 1.42753C26.8936 1.88243 27.5667 2.49934 28.0144 3.27515C28.4621 4.05097 28.6843 4.91091 28.6843 5.85498C28.6843 6.88005 28.4073 7.81477 27.8534 8.66225C27.2994 9.50973 26.433 10.1266 25.2606 10.5099L28.8582 17.5421H25.2123L21.9851 10.918H19.3537V17.5421H16.178Z" fill="#1A1A1A"/>
<path d="M38.8299 17.8318C37.5544 17.8318 36.4078 17.5888 35.3804 17.0996C34.3562 16.6105 33.5413 15.872 32.9358 14.8781C32.3303 13.8873 32.0308 12.6317 32.0308 11.1112V0.742065H35.2065V11.1361C35.2065 12.4479 35.5318 13.4262 36.1856 14.0649C36.8394 14.7036 37.7444 15.0246 38.9039 15.0246C40.0634 15.0246 40.9459 14.7036 41.6094 14.0649C42.2697 13.4262 42.6014 12.4479 42.6014 11.1361V0.742065H45.7771V11.1112C45.7771 12.6317 45.4647 13.8873 44.8334 14.8781C44.2054 15.872 43.3647 16.6105 42.3148 17.0996C41.2648 17.5888 40.1021 17.8318 38.8299 17.8318Z" fill="#1A1A1A"/>
<path d="M55.4523 17.832C54.1769 17.832 53.0528 17.6201 52.0769 17.1964C51.101 16.7726 50.3313 16.1651 49.7709 15.3737C49.2072 14.5823 48.9173 13.6164 48.9012 12.4823H52.2509C52.2831 13.2674 52.5762 13.928 53.1301 14.4639C53.6841 14.9998 54.4475 15.2677 55.4266 15.2677C56.2704 15.2677 56.9403 15.0714 57.4363 14.6789C57.9324 14.2863 58.1804 13.7628 58.1804 13.1054C58.1804 12.448 57.9613 11.8809 57.5233 11.4977C57.0853 11.1145 56.5023 10.8029 55.7744 10.563C55.0465 10.3231 54.2703 10.0676 53.4426 9.7934C52.1027 9.34474 51.0817 8.76832 50.3796 8.06417C49.6774 7.36001 49.3264 6.4253 49.3264 5.2569C49.3103 4.2661 49.5518 3.41239 50.0575 2.702C50.5632 1.99162 51.2524 1.43702 52.1285 1.04443C53.0045 0.651852 54.0126 0.455566 55.156 0.455566C56.2994 0.455566 57.3365 0.654971 58.219 1.0569C59.1047 1.45883 59.7972 2.01655 60.3028 2.73628C60.8085 3.45601 61.0758 4.31284 61.108 5.30364H57.7101C57.694 4.71165 57.4589 4.1882 57.0015 3.73331C56.5474 3.2753 55.9129 3.04785 55.1045 3.04785C54.4088 3.03228 53.8258 3.1974 53.3556 3.54013C52.8854 3.88598 52.647 4.3845 52.647 5.0388C52.647 5.59963 52.8274 6.04206 53.1945 6.37233C53.5585 6.69948 54.0545 6.97678 54.6826 7.20111C55.3106 7.42545 56.0321 7.66536 56.8405 7.92085C57.7004 8.20749 58.4863 8.544 59.1981 8.92723C59.9099 9.31046 60.48 9.81832 60.9116 10.4508C61.3432 11.0833 61.5557 11.8965 61.5557 12.8873C61.5557 13.7691 61.3238 14.5823 60.8601 15.3363C60.3963 16.0903 59.7102 16.6916 58.7987 17.1496C57.8873 17.6045 56.7729 17.8351 55.4491 17.8351" fill="#1A1A1A"/>
<path d="M81.2896 15.0682C80.6938 15.5449 78.7806 17.1495 78.0044 16.1836C77.6276 15.7163 78.101 15.0215 78.4553 14.6881C79.0222 14.1615 79.8016 13.8718 80.5649 13.7347C81.3251 13.5976 82.0755 13.6132 82.8131 13.7284C82.3203 14.1896 81.8178 14.6445 81.2929 15.0682M88.5783 9.91791C89.96 8.54387 91.477 7.16361 92.5399 5.53097C93.4256 4.17251 94.1245 2.10366 92.7782 0.785711C91.3707 -0.59144 88.9841 0.10025 87.4703 0.900992C86.5041 1.41197 85.6377 2.08186 84.7777 2.74551C83.8147 3.49017 82.8743 4.25351 81.9531 5.04802C81.3379 5.58081 82.2462 6.45633 82.8582 5.92354C84.1432 4.81123 85.467 3.71138 86.8712 2.73927C88.0146 1.94787 89.4672 1.09729 90.9391 1.26554C92.717 1.46806 92.3015 3.38423 91.696 4.4685C90.9423 5.81761 89.7635 6.92369 88.6814 8.02666C87.4124 9.31657 86.1111 10.5753 84.8003 11.8216C84.4911 12.1176 84.1819 12.4167 83.8759 12.7158C82.7873 12.4354 81.6568 12.3295 80.4877 12.4977C78.7967 12.7439 76.7322 13.8063 76.6034 15.6602C76.4971 17.2243 78.1977 18.025 79.5858 17.5421C81.3089 16.9408 82.7325 15.5418 84.0048 14.3204C84.0853 14.2425 84.1658 14.1678 84.2463 14.0899C86.4332 14.8314 88.4655 16.3488 90.1983 17.5857C90.8618 18.0593 91.5028 16.9844 90.8457 16.5139C89.1387 15.2957 87.2577 13.9621 85.2222 13.1552C86.3463 12.0833 87.4703 11.0115 88.5751 9.91479" fill="#1A1A1A"/>
<path d="M68.6544 17.5456V3.21632H63.5914V0.742432H76.9158V3.21632H71.8302V17.5456H68.6544Z" fill="#1A1A1A"/>
<path d="M100.907 5.77406C100.134 5.65878 99.2326 5.21011 98.9878 4.43429C98.5788 3.1288 100.486 2.06012 101.564 1.87006C103.03 1.61145 104.46 2.12866 104.95 3.56189C105.065 3.90774 105.133 4.26293 105.165 4.62436C104.637 4.8892 104.102 5.13534 103.555 5.33474C102.737 5.63385 101.79 5.9018 100.907 5.77094M108.966 2.44958C108.106 2.93875 107.249 3.47465 106.37 3.97628C106.309 3.64602 106.228 3.31887 106.103 3.0073C105.384 1.21887 103.635 0.396312 101.703 0.608182C100.047 0.788894 98.086 1.90744 97.7221 3.6024C97.4902 4.68356 98.057 5.69305 98.9588 6.3162C99.9219 6.98296 101.085 7.1294 102.231 6.96426C103.246 6.81782 104.212 6.45329 105.13 6.01397C105.062 6.51872 104.946 7.01723 104.808 7.49394C104.36 9.02999 103.552 10.4695 102.647 11.7968C101.639 13.2767 100.328 14.7224 98.8139 15.735C97.5514 16.5794 95.4031 17.4798 94.176 16.0809C93.0777 14.8315 93.5672 12.7938 94.0053 11.3886C94.6398 9.3478 95.6994 7.46278 97.0392 5.77717C97.5417 5.14468 96.4273 4.52777 95.9313 5.15092C94.5077 6.94558 93.4062 8.97703 92.7427 11.1456C92.2338 12.8125 91.886 14.8813 92.8812 16.4517C94.0536 18.2993 96.4176 18.2931 98.2535 17.4736C100.257 16.5794 101.919 14.8564 103.214 13.1646C104.418 11.588 105.465 9.77153 106.025 7.88029C106.267 7.0702 106.441 6.18845 106.47 5.30981C107.529 4.73029 108.57 4.11649 109.616 3.51827C110.325 3.11323 109.681 2.04141 108.969 2.44646" fill="#1A1A1A"/>
<path d="M113.997 2.06351H113.742V1.2316L113.237 2.06351H113.034L112.528 1.2316V2.06351H112.274V0.742432H112.528L113.137 1.77063L113.746 0.742432H114V2.06351H113.997ZM112.174 0.988577H111.668V2.06351H111.414V0.988577H110.908V0.74555H112.174V0.988577Z" fill="#1A1A1A"/>
<path d="M5.06308 17.5456V3.21632H0V0.742432H13.3244V3.21632H8.2388V17.5456H5.06308Z" fill="#1A1A1A"/>
</svg>
