<svg width="630" height="86" viewBox="0 0 630 86" fill="none" xmlns="http://www.w3.org/2000/svg">
<path d="M36.4622 86C58.2732 86 73.3221 70.6287 73.3221 46.8429V0.993836H58.9361V45.7165C58.9361 62.2142 50.4504 72.9476 36.5285 72.9476C22.6065 72.9476 14.4523 62.0816 14.4523 45.7165V0.993836H0V46.8429C0 70.5624 14.6512 86 36.4622 86ZM205.978 85.0062H220.43V0.993836H205.978V85.0062ZM240.65 85.0062H255.103V49.4931H289.974V36.4407H255.036V14.0463H300.316L300.183 0.993836H240.65V85.0062ZM347.054 86C372.179 86 390.211 68.7735 390.211 43C390.211 17.8891 372.577 0 347.054 0C323.254 0 303.896 16.2327 303.896 43C303.896 68.9723 322.259 86 347.054 86ZM347.054 72.8813C329.684 72.8813 318.812 59.9615 318.812 42.9338C318.812 25.8398 329.817 12.9861 347.054 12.9861C364.423 12.9861 375.295 26.0385 375.295 42.9338C375.295 59.7627 364.688 72.8813 347.054 72.8813ZM519.42 85.0062H533.872V0.993836H519.42V85.0062ZM590.886 86C610.841 86 627.149 74.1402 629.867 54.8598H615.084C612.366 66.7858 602.885 72.9476 590.952 72.9476C574.578 72.9476 564.434 60.1602 564.434 43C564.434 25.9723 574.644 13.0524 590.952 13.0524C603.018 13.0524 612.432 19.2142 615.216 31.1402H630C627.282 11.7935 611.371 0 590.886 0C568.081 0 549.452 16.3652 549.452 43C549.452 69.1048 567.086 86 590.886 86ZM165.538 85.735C178.267 85.735 186.62 77.453 186.62 63.4068V0.927597H172.168V64.1356C172.168 70.0324 169.184 71.755 166.135 71.755C163.152 71.755 161.229 70.0324 159.373 66.057L137.031 18.2203C130.999 5.30046 123.706 0.13256 112.966 0.13256C99.9063 0.13256 90.7576 8.74581 90.7576 25.641V84.9399H105.21V23.8521C105.21 16.9615 109.055 14.1125 113.232 14.1125C117.276 14.1125 119.795 16.4314 121.983 21.2681L144.523 69.7011C149.893 81.1633 156.588 85.735 165.538 85.735ZM478.848 85.735C491.576 85.735 499.929 77.453 499.929 63.4068V0.927597H485.477V64.1356C485.477 70.0324 482.494 71.755 479.444 71.755C476.461 71.755 474.539 70.0324 472.682 66.057L450.341 18.2203C444.308 5.30046 437.016 0.13256 426.276 0.13256C413.216 0.13256 404.067 8.74581 404.067 25.641V84.9399H418.519V23.8521C418.519 16.9615 422.365 14.1125 426.541 14.1125C430.585 14.1125 433.104 16.4314 435.292 21.2681L457.832 69.7011C463.202 81.1633 469.832 85.735 478.848 85.735Z" fill="black"/>
</svg>
