<svg width="196" height="61" viewBox="0 0 196 61" fill="none" xmlns="http://www.w3.org/2000/svg">
<path d="M82.736 36.4521L89.232 22.1161H98.36L79.936 60.4201H70.864L78.312 45.5241L67 22.1161H76.296L82.736 36.4521Z" fill="#4A46FF"/>
<path d="M120.762 24.6921V22.1161H128.826V49.2201H120.762V46.6441C118.858 48.6041 116.114 49.7801 112.25 49.7801C104.69 49.7801 98.9222 43.6761 98.9222 35.6681C98.9222 27.6601 104.69 21.5561 112.25 21.5561C116.114 21.5561 118.858 22.7321 120.762 24.6921ZM113.93 42.2761C118.242 42.2761 120.37 39.4761 120.37 35.6681C120.37 31.8601 118.242 29.0041 113.93 29.0041C110.122 29.0041 107.602 31.8601 107.602 35.6681C107.602 39.4761 110.122 42.2761 113.93 42.2761Z" fill="#4A46FF"/>
<path d="M144.214 49.2201H135.646V0.580078H144.214V49.2201Z" fill="#4A46FF"/>
<path d="M159.582 49.2201H151.014V0.580078H159.582V49.2201Z" fill="#4A46FF"/>
<path d="M186.989 24.6921V22.1161H195.053V49.2201H186.989V46.6441C185.085 48.6041 182.341 49.7801 178.477 49.7801C170.917 49.7801 165.149 43.6761 165.149 35.6681C165.149 27.6601 170.917 21.5561 178.477 21.5561C182.341 21.5561 185.085 22.7321 186.989 24.6921ZM180.157 42.2761C184.469 42.2761 186.597 39.4761 186.597 35.6681C186.597 31.8601 184.469 29.0041 180.157 29.0041C176.349 29.0041 173.829 31.8601 173.829 35.6681C173.829 39.4761 176.349 42.2761 180.157 42.2761Z" fill="#4A46FF"/>
<path d="M21.237 21.6448C22.3428 21.4522 23.4214 21.7212 24.5 22.0361C25.5786 22.351 27.4692 25.5321 27.4692 25.5321C27.4692 25.5321 27.491 25.5752 27.5154 25.5742C27.5377 25.5734 27.5579 25.5359 27.5579 25.5359C27.5579 25.5359 29.4803 22.353 30.5 22.0359C31.5197 21.7188 32.4145 21.4887 33.4715 21.6294L33.7789 21.6754C35.1111 21.9105 36.3564 22.5095 37.3828 23.4089C38.4092 24.3082 39.1785 25.4746 39.6093 26.7843C40.0401 28.0941 40.1163 29.4985 39.8298 30.8489C39.5433 32.1993 38.9048 33.4454 37.982 34.4553L37.7571 34.6915L37.6971 34.7438L29.5 42.5361C29.2852 42.7534 27.5877 44.5334 27.5877 44.5334L25.5 42.5361L17.2688 34.6889C16.277 33.7027 15.5716 32.4551 15.2309 31.0844C14.8901 29.7137 14.9272 28.2733 15.338 26.9229C15.7489 25.5724 16.5174 24.3644 17.5586 23.4329C18.5997 22.5013 19.8729 21.8824 21.237 21.6448Z" fill="#4A46FF"/>
<path d="M51 23.5801L51 14.5801C51 10.7141 47.866 7.58008 44 7.58008H35" stroke="#4A46FF" stroke-width="7"/>
<path d="M4 23.5801L4 14.5801C4 10.7141 7.13401 7.58008 11 7.58008H20" stroke="#4A46FF" stroke-width="7"/>
<path d="M51 38.5801L51 47.5801C51 51.4461 47.866 54.5801 44 54.5801H35" stroke="#4A46FF" stroke-width="7"/>
<path d="M4 38.5801L4 47.5801C4 51.4461 7.13401 54.5801 11 54.5801H20" stroke="#4A46FF" stroke-width="7"/>
</svg>
