<svg xmlns="http://www.w3.org/2000/svg" width="132" height="42" viewBox="0 0 132 42" fill="none"><path d="M42.1143 41.4064H23.5076L23.5248 36.6704C24.1221 36.1466 24.8163 35.5462 25.6013 34.8629C26.3862 34.1796 27.2039 33.4713 28.0404 32.7395C28.877 32.0077 29.6775 31.3088 30.4406 30.6396C31.2036 29.9704 31.8634 29.3888 32.4263 28.8916C32.9892 28.3944 33.3942 28.033 33.6475 27.8079L26.6582 27.7846C25.812 27.8595 24.9659 27.6384 24.2644 27.1591C24.0116 26.9026 23.818 26.5938 23.697 26.2546C23.576 25.9154 23.5306 25.5539 23.5639 25.1953C23.5596 24.5781 23.6628 23.9648 23.8688 23.383C23.9927 23.0077 24.1437 22.642 24.3207 22.2886L39.12 22.3432C39.9021 22.3115 40.6675 22.5744 41.2652 23.0797C41.5561 23.3534 41.7821 23.6885 41.9269 24.0608C42.0716 24.433 42.1313 24.8329 42.1018 25.2312C42.1108 25.8122 41.9669 26.3854 41.6843 26.8932C41.3187 27.4884 40.8766 28.033 40.3693 28.5131C40.1957 28.6898 39.8252 29.0276 39.2654 29.5373C38.7056 30.0471 38.0521 30.6318 37.3156 31.2901C36.5792 31.9483 35.8271 32.6144 35.0641 33.2945C34.301 33.9747 33.6099 34.5891 32.9845 35.1208C32.3591 35.6524 31.89 36.0464 31.5585 36.2934L42.1362 36.331L42.1143 41.4064Z" fill="#8C03E2"></path><path d="M44.3941 19.604C43.7951 18.954 43.4639 18.1016 43.4671 17.2177C43.4703 16.3338 43.8076 15.4838 44.4113 14.8382C44.7156 14.5218 45.0827 14.2724 45.489 14.1062C45.8953 13.9401 46.3319 13.8607 46.7707 13.8734C47.2152 13.8612 47.6573 13.9425 48.0685 14.1116C48.4798 14.2807 48.851 14.534 49.1583 14.8554C49.7547 15.5067 50.084 16.3586 50.0808 17.2416C50.0776 18.1247 49.7421 18.9742 49.1411 19.6211C48.8345 19.9455 48.4623 20.201 48.0492 20.3703C47.6362 20.5396 47.1918 20.619 46.7457 20.6032C46.3052 20.6137 45.8675 20.5298 45.462 20.3575C45.0564 20.1852 44.6923 19.9283 44.3941 19.604ZM49.6993 41.43L43.6827 41.4098L43.7374 25.003C43.7141 24.6317 43.7769 24.2599 43.9209 23.9168C44.065 23.5737 44.2863 23.2685 44.5677 23.0251C45.2408 22.5414 46.0608 22.3059 46.888 22.3589C47.3907 22.3624 47.8918 22.4149 48.3844 22.5155C48.8571 22.6084 49.3196 22.7477 49.765 22.9314L49.6993 41.43Z" fill="#8C03E2"></path><path d="M72.1242 31.3054C72.171 33.3038 71.7338 35.2838 70.8499 37.0767C70.0592 38.6297 68.8184 39.9081 67.2896 40.7447C65.6116 41.6204 63.7371 42.0512 61.8452 41.9957C59.9221 42.0367 58.0204 41.5851 56.3211 40.6839C54.7926 39.862 53.5315 38.6194 52.6873 37.1032C51.8149 35.5116 51.3755 33.719 51.413 31.9044C51.3841 30.1015 51.8146 28.3209 52.6638 26.7303C53.4456 25.2725 54.5968 24.0458 56.0021 23.1731C57.1604 22.4762 58.4603 22.0482 59.8061 21.9205C61.1518 21.7928 62.5091 21.9687 63.7778 22.4353C64.6651 22.7627 65.4688 23.2828 66.131 23.9582L66.1623 14.5017C66.617 14.3199 67.0883 14.1826 67.5695 14.0919C68.0555 13.999 68.5491 13.9515 69.0439 13.9497C69.8707 13.9025 70.6883 14.1427 71.358 14.6297C71.6382 14.8752 71.8578 15.1823 71.9994 15.5268C72.141 15.8714 72.2008 16.244 72.1742 16.6155L72.1242 31.3054ZM58.7915 28.5894C58.0133 29.5143 57.5845 30.6832 57.5799 31.892C57.5754 33.1007 57.9953 34.2727 58.7665 35.2035C59.5964 36.0103 60.7071 36.4632 61.8646 36.467C63.022 36.4708 64.1356 36.025 64.9708 35.2237C65.7453 34.2971 66.1717 33.129 66.1763 31.9213C66.1808 30.7137 65.7633 29.5423 64.9958 28.6098C64.1659 27.803 63.0552 27.3501 61.8978 27.3463C60.7404 27.3425 59.6267 27.7881 58.7915 28.5894Z" fill="#8C03E2"></path><path d="M13.3971 26.1344C13.0085 26.145 12.6218 26.0778 12.2596 25.9367C11.8975 25.7955 11.5672 25.5833 11.2883 25.3126C11.0094 25.0419 10.7876 24.7181 10.6358 24.3603C10.4839 24.0025 10.4053 23.6179 10.4044 23.2292C10.3345 20.7009 11.0204 18.2091 12.3745 16.0727C12.0922 15.7068 11.7873 15.359 11.4613 15.0314C11.1364 14.7026 10.7906 14.395 10.4263 14.1104C8.28096 15.4498 5.78475 16.1183 3.25723 16.0305C2.47738 16.0028 1.73887 15.6729 1.19791 15.1105C0.656951 14.5481 0.355958 13.7973 0.358599 13.017C0.361239 12.2367 0.667306 11.488 1.21206 10.9292C1.75682 10.3705 2.49753 10.0456 3.27755 10.0232C5.8061 9.95375 8.29787 10.6403 10.4341 11.9949C10.8 11.7126 11.1478 11.4077 11.4754 11.0817C11.803 10.7556 12.1105 10.4099 12.3964 10.0466C11.0569 7.90083 10.3883 5.40409 10.4763 2.87606C10.5097 2.10022 10.8421 1.36741 11.4038 0.831246C11.9656 0.295083 12.7131 -0.00281048 13.4897 1.99873e-05C14.2662 0.00285046 15.0115 0.306176 15.5694 0.84642C16.1272 1.38666 16.4543 2.12188 16.482 2.89795C16.5528 5.42644 15.8667 7.91844 14.5119 10.0545C14.7945 10.4196 15.0995 10.7668 15.425 11.0943C15.7504 11.4227 16.0961 11.7302 16.4601 12.0152C18.6062 10.6763 21.1028 10.0078 23.6307 10.0951C24.4106 10.123 25.149 10.4531 25.6898 11.0156C26.2307 11.5782 26.5315 12.329 26.5287 13.1094C26.5258 13.8897 26.2195 14.6384 25.6746 15.197C25.1297 15.7555 24.3889 16.0802 23.6088 16.1024C21.0805 16.1716 18.589 15.4857 16.4523 14.1323C16.0864 14.4145 15.7386 14.7195 15.411 15.0454C15.0834 15.3711 14.7759 15.7162 14.49 16.0789C15.8295 18.2248 16.498 20.7215 16.4101 23.2495C16.4068 23.6383 16.3256 24.0225 16.1714 24.3794C16.0172 24.7364 15.7931 25.0588 15.5122 25.3277C15.2314 25.5966 14.8995 25.8065 14.5363 25.945C14.173 26.0836 13.7856 26.1479 13.3971 26.1344ZM13.4268 17.7145C12.531 19.3964 12.0875 21.2821 12.1399 23.187C12.1502 23.5155 12.2876 23.8272 12.5232 24.0563C12.7587 24.2855 13.074 24.4143 13.4027 24.4155C13.7313 24.4167 14.0476 24.2903 14.2849 24.0628C14.5221 23.8354 14.6618 23.5248 14.6745 23.1964C14.7401 21.292 14.309 19.4034 13.4236 17.716M11.8788 13.0597C12.1592 13.2963 12.4297 13.5459 12.6903 13.8086C12.9509 14.0713 13.199 14.3434 13.4346 14.6248C13.6707 14.3465 13.9224 14.0744 14.1851 13.8149C14.4478 13.5553 14.7199 13.3052 15.0013 13.0706C14.7209 12.833 14.4504 12.5828 14.1898 12.3201C13.9292 12.0574 13.6811 11.7854 13.4455 11.5039C13.2094 11.7838 12.9577 12.0543 12.695 12.3154C12.4323 12.5765 12.1603 12.8236 11.8788 13.0597ZM3.63874 11.7572H3.31664C2.98824 11.7688 2.67715 11.9073 2.4489 12.1437C2.22066 12.3801 2.0931 12.6959 2.0931 13.0245C2.0931 13.3531 2.22066 13.6689 2.4489 13.9053C2.67715 14.1417 2.98824 14.2803 3.31664 14.2918C5.2183 14.3551 7.10387 13.9241 8.78918 13.0409C7.20355 12.1964 5.43525 11.753 3.63874 11.7494M18.0909 13.0737C19.7727 13.9698 21.6586 14.4132 23.5635 14.3606C23.8889 14.3444 24.1956 14.2038 24.4202 13.9677C24.6448 13.7317 24.7701 13.4183 24.7701 13.0925C24.7701 12.7667 24.6448 12.4533 24.4202 12.2173C24.1956 11.9813 23.8889 11.8406 23.5635 11.8244C21.6618 11.7612 19.7763 12.1922 18.0909 13.0753M13.4799 1.7237C13.3158 1.71174 13.1509 1.73409 12.9958 1.78936C12.8408 1.84463 12.6989 1.9316 12.5793 2.04472C12.4597 2.15784 12.365 2.29464 12.3012 2.44639C12.2374 2.59813 12.2059 2.7615 12.2087 2.9261C12.1439 4.8309 12.5749 6.71989 13.4596 8.40802C14.3557 6.72623 14.7991 4.84037 14.7464 2.93548C14.7505 2.77082 14.7202 2.60711 14.6574 2.45481C14.5947 2.30251 14.5009 2.16497 14.382 2.05095C14.2631 1.93693 14.1218 1.84894 13.967 1.7926C13.8122 1.73625 13.6474 1.71279 13.4831 1.7237" fill="#8C03E2"></path><path d="M79.5241 25.44C80.5449 25.2993 81.576 25.247 82.6059 25.2836C86.9573 25.2836 87.9314 26.9864 87.9314 28.797C87.9314 30.7437 86.7963 32.3104 82.7951 32.3104C81.6992 32.3094 80.6052 32.219 79.5241 32.0399V25.44ZM76.3891 41.362H79.5241V34.7668C79.768 34.7668 81.4973 35.0373 83.0108 35.0373C88.9853 35.0373 91.229 32.3604 91.229 28.7923C91.229 25.0084 88.4443 22.5474 82.6872 22.5474C81.0787 22.5047 79.4695 22.5951 77.876 22.8179C77.6629 22.8354 77.4554 22.8948 77.2652 22.9927C77.0751 23.0905 76.9061 23.2249 76.768 23.3882C76.6299 23.5514 76.5253 23.7403 76.4603 23.944C76.3953 24.1477 76.3711 24.3623 76.3891 24.5753V41.362ZM103.367 22.3316C102.07 22.2987 100.78 22.5276 99.5738 23.0047C98.3675 23.4817 97.2697 24.1971 96.3461 25.108C95.4225 26.0189 94.692 27.1067 94.1983 28.3063C93.7046 29.5059 93.4579 30.7928 93.4728 32.0899C93.4579 33.3871 93.7046 34.6739 94.1983 35.8735C94.692 37.0732 95.4225 38.1609 96.3461 39.0719C97.2697 39.9828 98.3675 40.6981 99.5738 41.1752C100.78 41.6522 102.07 41.8811 103.367 41.8482C104.664 41.8809 105.954 41.6518 107.16 41.1747C108.366 40.6976 109.464 39.9822 110.387 39.0713C111.311 38.1604 112.041 37.0727 112.535 35.8732C113.028 34.6736 113.275 33.3869 113.26 32.0899C113.275 30.7929 113.028 29.5062 112.535 28.3067C112.041 27.1071 111.311 26.0194 110.387 25.1085C109.464 24.1976 108.366 23.4823 107.16 23.0051C105.954 22.528 104.664 22.2989 103.367 22.3316ZM103.367 38.9056C102.483 38.9146 101.607 38.7422 100.793 38.3989C99.9781 38.0557 99.2427 37.549 98.632 36.9101C98.0212 36.2712 97.5481 35.5138 97.2419 34.6846C96.9357 33.8555 96.8028 32.9724 96.8517 32.0899C96.7989 31.2068 96.9289 30.3222 97.2336 29.4916C97.5383 28.661 98.0112 27.9023 98.6226 27.2628C99.2341 26.6233 99.9709 26.117 100.787 25.7753C101.603 25.4337 102.481 25.2642 103.366 25.2774C104.25 25.2663 105.127 25.4372 105.942 25.7796C106.757 26.1219 107.493 26.6283 108.104 27.2673C108.715 27.9063 109.188 28.6642 109.494 29.4938C109.8 30.3235 109.931 31.2072 109.881 32.0899C109.927 32.9715 109.792 33.8532 109.485 34.6808C109.178 35.5084 108.705 36.2644 108.095 36.9025C107.485 37.5405 106.751 38.0471 105.938 38.391C105.125 38.7349 104.25 38.909 103.367 38.9024V38.9056ZM115.613 39.6358C118.069 41.1329 120.9 41.9003 123.775 41.8482C128.883 41.8482 131.641 39.5779 131.641 36.1443C131.641 33.0359 129.642 31.5489 125.722 30.8187L122.695 30.2511C120.207 29.7914 119.234 29.0894 119.234 27.7103C119.234 26.1467 120.262 25.1148 123.506 25.1148C125.715 24.9924 127.891 25.6964 129.61 27.0896C129.919 26.8731 130.175 26.5914 130.362 26.2644C130.549 25.9373 130.662 25.5731 130.692 25.1976C130.665 24.8925 130.561 24.599 130.391 24.344C130.222 24.0889 129.991 23.8804 129.72 23.7372C127.813 22.6609 125.632 22.1714 123.448 22.33C118.151 22.33 115.96 24.8708 115.96 27.9261C115.96 31.2784 118.775 32.6841 121.799 33.1969L124.769 33.7379C126.932 34.0897 128.209 34.7105 128.209 36.3601C128.209 38.0628 126.958 39.0088 123.831 39.0088C121.426 39.0481 119.06 38.391 117.019 37.1168L115.613 39.6358Z" fill="#404041"></path></svg>